<svg xmlns="http://www.w3.org/2000/svg" width="783.02" height="309.387" viewBox="0 0 117.893 46.582"><path d="M.05 0h108.442" style="stroke:#292924;stroke-width:.1;stroke-linecap:round;stroke-linejoin:round" transform="translate(9.352 6.63)"/><path d="M.05 0h108.442" style="stroke:#292924;stroke-width:.1;stroke-linecap:round;stroke-linejoin:round" transform="translate(9.352 5.63)"/><path d="M.05 0h108.442" style="stroke:#292924;stroke-width:.1;stroke-linecap:round;stroke-linejoin:round" transform="translate(9.352 4.63)"/><path d="M.05 0h108.442" style="stroke:#292924;stroke-width:.1;stroke-linecap:round;stroke-linejoin:round" transform="translate(9.352 3.63)"/><path d="M.05 0h108.442" style="stroke:#292924;stroke-width:.1;stroke-linecap:round;stroke-linejoin:round" transform="translate(9.352 2.63)"/><path d="M.05 0h108.442" style="stroke:#292924;stroke-width:.1;stroke-linecap:round;stroke-linejoin:round" transform="translate(9.352 43.045)"/><path d="M.05 0h108.442" style="stroke:#292924;stroke-width:.1;stroke-linecap:round;stroke-linejoin:round" transform="translate(9.352 42.045)"/><path d="M.05 0h108.442" style="stroke:#292924;stroke-width:.1;stroke-linecap:round;stroke-linejoin:round" transform="translate(9.352 41.045)"/><path d="M.05 0h108.442" style="stroke:#292924;stroke-width:.1;stroke-linecap:round;stroke-linejoin:round" transform="translate(9.352 40.045)"/><path d="M.05 0h108.442" style="stroke:#292924;stroke-width:.1;stroke-linecap:round;stroke-linejoin:round" transform="translate(9.352 39.045)"/><path d="M.05 0h108.442" style="stroke:#292924;stroke-width:.1;stroke-linecap:round;stroke-linejoin:round" transform="translate(9.352 24.838)"/><path d="M.05 0h108.442" style="stroke:#292924;stroke-width:.1;stroke-linecap:round;stroke-linejoin:round" transform="translate(9.352 23.838)"/><path d="M.05 0h108.442" style="stroke:#292924;stroke-width:.1;stroke-linecap:round;stroke-linejoin:round" transform="translate(9.352 22.838)"/><path d="M.05 0h108.442" style="stroke:#292924;stroke-width:.1;stroke-linecap:round;stroke-linejoin:round" transform="translate(9.352 21.838)"/><path d="M.05 0h108.442" style="stroke:#292924;stroke-width:.1;stroke-linecap:round;stroke-linejoin:round" transform="translate(9.352 20.838)"/><path d="M-.025-.814h.05a.04.04 0 0 1 .04.04V2.46a.04.04 0 0 1-.04.04h-.05a.04.04 0 0 1-.04-.04V-.774a.04.04 0 0 1 .04-.04" style="fill:#292924" transform="translate(84.804 4.63)"/><path fill="#292924" d="M85.611 3.087c.264 0 .432.144.432.356 0 .356-.452.732-.872.732-.264 0-.432-.144-.432-.356 0-.356.452-.732.872-.732"/><path d="M.343-.01c.04 0 .186.015.24.015.064 0 .084-.025.084-.05Q.666-.08.566-.108a.18.18 0 0 1-.121-.158l.004-.481c0-.065.072-.116.129-.116.05 0 .123.069.16.069.013 0 .033-.015.04-.022.04-.04.074-.104.074-.141 0-.057-.04-.104-.14-.104a.37.37 0 0 0-.218.096c-.012.015-.05.052-.05.015v-.062c0-.047 0-.069-.03-.069-.024 0-.229.082-.256.097-.032.014-.072.034-.072.061s.025.042.052.052c.06.022.102.084.102.126v.48c0 .061-.028.138-.094.157Q.047-.08.049-.044c0 .024.01.049.074.049.055 0 .173-.015.22-.015m.86-1.583a.136.136 0 1 0 0 .271.136.136 0 0 0 0-.271m-.09.847v.48c0 .061-.026.138-.093.157-.067.02-.109.04-.109.065 0 .024.023.049.087.049.054 0 .17-.015.22-.015.04 0 .163.015.217.015.064 0 .084-.025.084-.05 0-.024-.04-.044-.106-.064-.067-.02-.094-.096-.094-.158v-.743c0-.05 0-.072-.03-.072-.025 0-.23.082-.257.097C1-.971.961-.951.961-.924s.024.042.052.052c.059.022.1.084.1.126" aria-label="ri" style="font-size:2.4697px;font-family:&quot;EB Garamond&quot;;white-space:pre" transform="translate(84.606 10.188)"/><path fill="#292924" d="M85.611 21.294c.264 0 .432.144.432.356 0 .356-.452.732-.872.732-.264 0-.432-.144-.432-.356 0-.356.452-.732.872-.732"/><path d="M.343-.01c.04 0 .186.015.24.015.064 0 .084-.025.084-.05Q.666-.08.566-.108a.18.18 0 0 1-.121-.158l.004-.481c0-.065.072-.116.129-.116.05 0 .123.069.16.069.013 0 .033-.015.04-.022.04-.04.074-.104.074-.141 0-.057-.04-.104-.14-.104a.37.37 0 0 0-.218.096c-.012.015-.05.052-.05.015v-.062c0-.047 0-.069-.03-.069-.024 0-.229.082-.256.097-.032.014-.072.034-.072.061s.025.042.052.052c.06.022.102.084.102.126v.48c0 .061-.028.138-.094.157Q.047-.08.049-.044c0 .024.01.049.074.049.055 0 .173-.015.22-.015m.86-1.583a.136.136 0 1 0 0 .271.136.136 0 0 0 0-.271m-.09.847v.48c0 .061-.026.138-.093.157-.067.02-.109.04-.109.065 0 .024.023.049.087.049.054 0 .17-.015.22-.015.04 0 .163.015.217.015.064 0 .084-.025.084-.05 0-.024-.04-.044-.106-.064-.067-.02-.094-.096-.094-.158v-.743c0-.05 0-.072-.03-.072-.025 0-.23.082-.257.097C1-.971.961-.951.961-.924s.024.042.052.052c.059.022.1.084.1.126" aria-label="ri" style="font-size:2.4697px;font-family:&quot;EB Garamond&quot;;white-space:pre" transform="translate(84.606 28.338)"/><path fill="#292924" d="M85.611 41.501c.264 0 .432.144.432.356 0 .356-.452.732-.872.732-.264 0-.432-.144-.432-.356 0-.356.452-.732.872-.732M86.494 3.13a.224.224 0 1 1 .447 0 .224.224 0 0 1-.447 0M86.494 21.338a.224.224 0 1 1 .447 0 .224.224 0 0 1-.447 0"/><path d="M-.025-.814h.05a.04.04 0 0 1 .04.04V2.46a.04.04 0 0 1-.04.04h-.05a.04.04 0 0 1-.04-.04V-.774a.04.04 0 0 1 .04-.04" style="fill:#292924" transform="translate(84.804 22.838)"/><path d="M-.025.186h.05a.04.04 0 0 1 .04.04v2.726a.04.04 0 0 1-.04.04h-.05a.04.04 0 0 1-.04-.04V.226a.04.04 0 0 1 .04-.04" style="fill:#292924" transform="translate(81.204 22.838)"/><path d="M-.025-1.314h.05a.04.04 0 0 1 .04.04v3.429a.04.04 0 0 1-.04.04h-.05a.04.04 0 0 1-.04-.04v-3.429a.04.04 0 0 1 .04-.04" style="fill:#292924" transform="translate(81.204 4.63)"/><path d="M.24-1.4v1.133c0 .062-.028.139-.094.158-.067.02-.109.04-.109.065 0 .024.022.049.086.049.055 0 .17-.015.22-.015.04 0 .163.015.218.015.064 0 .084-.025.084-.05 0-.024-.04-.044-.107-.064C.472-.129.445-.205.445-.267v-1.348c0-.047 0-.067-.03-.067-.025 0-.158.042-.257.06-.035.004-.072.024-.072.051s.03.047.057.057c.06.022.097.072.097.114m.748.622c0-.05.101-.17.25-.17.07 0 .145.049.145.12 0 .035-.012.077-.037.077H1.02C.99-.75.988-.76.988-.778m.61-.027c0-.126-.158-.257-.326-.257a.526.526 0 0 0-.534.536c0 .279.154.546.428.546.242 0 .385-.119.385-.19q0-.036-.037-.035c-.025 0-.133.057-.257.057-.195 0-.311-.203-.311-.39 0-.042 0-.047.01-.074.007-.02.012-.025.047-.025h.52c.065 0 .075-.101.075-.168" aria-label="le" style="font-size:2.4697px;font-family:&quot;EB Garamond&quot;;white-space:pre" transform="translate(80.972 28.338)"/><path fill="#292924" d="M82.011 22.294c.264 0 .432.144.432.356 0 .356-.452.732-.872.732-.264 0-.432-.144-.432-.356 0-.356.452-.732.872-.732"/><path d="M.24-1.4v1.133c0 .062-.028.139-.094.158-.067.02-.109.04-.109.065 0 .024.022.049.086.049.055 0 .17-.015.22-.015.04 0 .163.015.218.015.064 0 .084-.025.084-.05 0-.024-.04-.044-.107-.064C.472-.129.445-.205.445-.267v-1.348c0-.047 0-.067-.03-.067-.025 0-.158.042-.257.06-.035.004-.072.024-.072.051s.03.047.057.057c.06.022.097.072.097.114m.748.622c0-.05.101-.17.25-.17.07 0 .145.049.145.12 0 .035-.012.077-.037.077H1.02C.99-.75.988-.76.988-.778m.61-.027c0-.126-.158-.257-.326-.257a.526.526 0 0 0-.534.536c0 .279.154.546.428.546.242 0 .385-.119.385-.19q0-.036-.037-.035c-.025 0-.133.057-.257.057-.195 0-.311-.203-.311-.39 0-.042 0-.047.01-.074.007-.02.012-.025.047-.025h.52c.065 0 .075-.101.075-.168" aria-label="le" style="font-size:2.4697px;font-family:&quot;EB Garamond&quot;;white-space:pre" transform="translate(80.972 10.188)"/><path fill="#292924" d="M82.011 2.587c.264 0 .432.144.432.356 0 .356-.452.732-.872.732-.264 0-.432-.144-.432-.356 0-.356.452-.732.872-.732M95.767 2.587c.263 0 .431.144.431.356 0 .356-.451.732-.871.732-.265 0-.433-.144-.433-.356 0-.356.452-.732.872-.732M65.704 42.001c.264 0 .432.144.432.356 0 .356-.452.732-.872.732-.264 0-.432-.144-.432-.356 0-.356.452-.732.872-.732"/><path d="M-.025-2h.05a.04.04 0 0 1 .04.04v3.234a.04.04 0 0 1-.04.04h-.05a.04.04 0 0 1-.04-.04V-1.96A.04.04 0 0 1-.025-2" style="fill:#292924" transform="translate(91.174 41.045)"/><path fill="#292924" d="M91.69 42.545a.224.224 0 1 1 .446 0 .224.224 0 0 1-.447 0M91.335 22.338a.224.224 0 1 1 .447 0 .224.224 0 0 1-.447 0M91.335 4.13a.224.224 0 1 1 .447 0 .224.224 0 0 1-.447 0M90.807 42.001c.264 0 .432.144.432.356 0 .356-.452.732-.872.732-.264 0-.432-.144-.432-.356 0-.356.452-.732.872-.732M89.911 22.526c0-.236.496-.332.496-.728a.43.43 0 0 0-.1-.276l-.14-.168a.06.06 0 0 1-.016-.04c0-.036.036-.06.068-.06q.025-.002.044.02l.604.72a.16.16 0 0 1 .04.1c0 .236-.496.332-.496.728 0 .096.028.196.096.276l.336.396a.06.06 0 0 1 .016.04.066.066 0 0 1-.064.064c-.032 0-.18-.176-.436-.176-.064 0-.212 0-.212.268 0 .14.044.296.112.376.028.032-.02.076-.048.044-.18-.216-.368-.592-.368-.808 0-.164.108-.168.16-.168.132 0 .312.052.476.124l-.528-.632a.16.16 0 0 1-.04-.1M89.911 4.319c0-.236.496-.332.496-.728a.43.43 0 0 0-.1-.276l-.14-.168a.06.06 0 0 1-.016-.04c0-.036.036-.06.068-.06.016 0 .032.004.044.02l.604.72a.16.16 0 0 1 .04.1c0 .236-.496.332-.496.728 0 .096.028.196.096.276l.336.396a.06.06 0 0 1 .016.04.066.066 0 0 1-.064.064c-.032 0-.18-.176-.436-.176-.064 0-.212 0-.212.268 0 .14.044.296.112.376.028.032-.02.076-.048.044-.18-.216-.368-.592-.368-.808 0-.164.108-.168.16-.168.132 0 .312.052.476.124l-.528-.632a.16.16 0 0 1-.04-.1"/><path d="M-.025-2.5h.05a.04.04 0 0 1 .04.04V.774a.04.04 0 0 1-.04.04h-.05a.04.04 0 0 1-.04-.04V-2.46a.04.04 0 0 1 .04-.04" style="fill:#292924" transform="translate(85.979 41.045)"/><path fill="#292924" d="M86.494 41.545a.224.224 0 1 1 .447 0 .224.224 0 0 1-.447 0M70.265 4.087c.264 0 .432.144.432.356 0 .356-.452.732-.872.732-.264 0-.432-.144-.432-.356 0-.356.452-.732.872-.732"/><path d="M.403-1.062a.315.315 0 0 0-.317.309c0 .123.097.2.208.276l.118.084c.06.045.112.07.112.178 0 .074-.072.124-.146.124-.082 0-.158-.028-.19-.094C.153-.262.104-.284.079-.284s-.027.037-.027.079c0 .037.03.123.042.156.012.032.025.034.062.049.024.01.093.02.163.02.202 0 .373-.15.373-.36 0-.087-.052-.144-.119-.198L.37-.692C.314-.73.264-.773.264-.842c0-.062.052-.106.114-.106.076 0 .148.042.168.098.012.05.05.062.074.062.03 0 .03-.025.03-.054a1 1 0 0 0-.013-.121C.63-.988.625-.995.61-1.003c-.079-.032-.13-.059-.207-.059M1.245.02c.242 0 .385-.119.385-.19q0-.036-.037-.035c-.025 0-.146.057-.26.057-.21 0-.306-.232-.306-.45 0-.163.104-.348.252-.348.052 0 .084.045.126.087.055.054.116.088.16.088.058 0 .105-.037.105-.096 0-.032-.035-.074-.082-.113-.04-.033-.116-.082-.289-.082-.284 0-.499.282-.499.58 0 .262.18.502.445.502m.773-.798c0-.05.101-.17.25-.17.07 0 .145.049.145.12 0 .035-.012.077-.037.077H2.05c-.03 0-.032-.01-.032-.027m.61-.027c0-.126-.158-.257-.326-.257a.526.526 0 0 0-.534.536c0 .279.153.546.428.546.242 0 .385-.119.385-.19q0-.036-.037-.035c-.025 0-.134.057-.257.057-.195 0-.311-.203-.311-.39 0-.042 0-.047.01-.074.007-.02.012-.025.047-.025h.52c.065 0 .075-.101.075-.168" aria-label="sce" style="font-size:2.4697px;font-family:&quot;EB Garamond&quot;;white-space:pre" transform="translate(72.885 10.188)"/><path fill="#292924" d="M73.757 3.587c.264 0 .432.144.432.356 0 .356-.452.732-.872.732-.264 0-.432-.144-.432-.356 0-.356.452-.732.872-.732M69.523 25.298h-.064v-1h.064Zm0 0v-1c.388-.236.896-.592.896-1.036 0-.228-.06-.448-.16-.652-.012-.064.04-.108.092-.108.028 0 .06.012.08.044.1.224.16.468.16.716 0 .812-1.068 1.224-1.068 2.036"/><path d="M-.025-.814h.05a.04.04 0 0 1 .04.04V2.46a.04.04 0 0 1-.04.04h-.05a.04.04 0 0 1-.04-.04V-.774a.04.04 0 0 1 .04-.04" style="fill:#292924" transform="translate(69.458 22.838)"/><path fill="#292924" d="M69.523 7.966h-.064v-1h.064Zm0 0v-1c.388-.236.896-.592.896-1.036 0-.228-.06-.448-.16-.652-.012-.064.04-.108.092-.108.028 0 .06.012.08.044.1.224.16.468.16.716 0 .812-1.068 1.224-1.068 2.036"/><path d="M-.025.186h.05a.04.04 0 0 1 .04.04v3.109a.04.04 0 0 1-.04.04h-.05a.04.04 0 0 1-.04-.04V.226a.04.04 0 0 1 .04-.04" style="fill:#292924" transform="translate(69.458 4.63)"/><path d="M.284-.568c0-.215.089-.388.237-.388.18 0 .319.129.319.3v.453c0 .065-.104.112-.168.112-.25 0-.388-.215-.388-.477m.521.524c.012-.008.035-.023.035.02V.4A.18.18 0 0 1 .72.558C.654.578.612.598.612.622c0 .025.023.05.087.05.057 0 .225-.035.427-.035.064 0 .08-.025.08-.05q0-.035-.102-.063C1.062.51 1.044.462 1.044.4V-.948c0-.047-.004-.082-.034-.082-.025 0-.067.027-.094.045-.017.01-.02.01-.042-.003a.5.5 0 0 0-.306-.074c-.299 0-.511.274-.511.57 0 .26.19.512.45.512a.55.55 0 0 0 .298-.064M1.973-.8v.467c0 .108-.11.19-.247.19-.113 0-.173-.111-.173-.23v-.622c0-.047 0-.067-.03-.067-.024 0-.128.032-.226.05-.035.004-.067.024-.067.051s.025.047.052.057c.059.022.066.082.066.124v.489c0 .143.102.3.245.3a.45.45 0 0 0 .333-.11c.032-.027.04-.042.05.002.007.035.007.07.015.094.002.012.014.035.034.035.037 0 .24-.06.284-.082.02-.01.045-.03.045-.062 0-.017-.02-.04-.032-.04-.02 0-.072.016-.104.016-.025 0-.04-.008-.04-.032v-.825c0-.047 0-.067-.03-.067-.024 0-.187.027-.276.04-.035.004-.072.034-.072.061s.028.042.057.047c.07.01.116.045.116.114m.704.215c0-.178.094-.373.272-.373.215 0 .328.237.328.457 0 .182-.076.405-.259.405-.23 0-.34-.257-.34-.49m.29-.477a.55.55 0 0 0-.537.531c0 .294.222.55.524.55a.58.58 0 0 0 .568-.587c0-.287-.27-.494-.556-.494m.896.487c0-.173.061-.38.234-.38.153 0 .277.13.277.286v.378c0 .098-.096.153-.193.153-.212 0-.318-.215-.318-.437m.686-1.107c-.025 0-.163.042-.262.06-.034.004-.071.024-.071.051s.03.047.057.057c.059.022.1.072.1.114v.363c-.004.047-.009.059-.031.04a.3.3 0 0 0-.193-.065c-.311 0-.514.304-.514.613 0 .251.2.469.452.469.1 0 .195-.04.252-.121.018-.025.025-.022.03.002q.011.057.022.094c.003.012.015.035.035.035.037 0 .281-.06.326-.082q.031-.015.032-.062c0-.017-.02-.04-.032-.04-.02 0-.102.016-.134.016-.024 0-.04-.013-.04-.07v-1.407c0-.047 0-.067-.029-.067" aria-label="quod" style="font-size:2.4697px;font-family:&quot;EB Garamond&quot;;white-space:pre" transform="translate(67.655 28.338)"/><path fill="#292924" d="M70.265 21.294c.264 0 .432.144.432.356 0 .356-.452.732-.872.732-.264 0-.432-.144-.432-.356 0-.356.452-.732.872-.732"/><path d="M.284-.568c0-.215.089-.388.237-.388.18 0 .319.129.319.3v.453c0 .065-.104.112-.168.112-.25 0-.388-.215-.388-.477m.521.524c.012-.008.035-.023.035.02V.4A.18.18 0 0 1 .72.558C.654.578.612.598.612.622c0 .025.023.05.087.05.057 0 .225-.035.427-.035.064 0 .08-.025.08-.05q0-.035-.102-.063C1.062.51 1.044.462 1.044.4V-.948c0-.047-.004-.082-.034-.082-.025 0-.067.027-.094.045-.017.01-.02.01-.042-.003a.5.5 0 0 0-.306-.074c-.299 0-.511.274-.511.57 0 .26.19.512.45.512a.55.55 0 0 0 .298-.064M1.973-.8v.467c0 .108-.11.19-.247.19-.113 0-.173-.111-.173-.23v-.622c0-.047 0-.067-.03-.067-.024 0-.128.032-.226.05-.035.004-.067.024-.067.051s.025.047.052.057c.059.022.066.082.066.124v.489c0 .143.102.3.245.3a.45.45 0 0 0 .333-.11c.032-.027.04-.042.05.002.007.035.007.07.015.094.002.012.014.035.034.035.037 0 .24-.06.284-.082.02-.01.045-.03.045-.062 0-.017-.02-.04-.032-.04-.02 0-.072.016-.104.016-.025 0-.04-.008-.04-.032v-.825c0-.047 0-.067-.03-.067-.024 0-.187.027-.276.04-.035.004-.072.034-.072.061s.028.042.057.047c.07.01.116.045.116.114m.704.215c0-.178.094-.373.272-.373.215 0 .328.237.328.457 0 .182-.076.405-.259.405-.23 0-.34-.257-.34-.49m.29-.477a.55.55 0 0 0-.537.531c0 .294.222.55.524.55a.58.58 0 0 0 .568-.587c0-.287-.27-.494-.556-.494m.896.487c0-.173.061-.38.234-.38.153 0 .277.13.277.286v.378c0 .098-.096.153-.193.153-.212 0-.318-.215-.318-.437m.686-1.107c-.025 0-.163.042-.262.06-.034.004-.071.024-.071.051s.03.047.057.057c.059.022.1.072.1.114v.363c-.004.047-.009.059-.031.04a.3.3 0 0 0-.193-.065c-.311 0-.514.304-.514.613 0 .251.2.469.452.469.1 0 .195-.04.252-.121.018-.025.025-.022.03.002q.011.057.022.094c.003.012.015.035.035.035.037 0 .281-.06.326-.082q.031-.015.032-.062c0-.017-.02-.04-.032-.04-.02 0-.102.016-.134.016-.024 0-.04-.013-.04-.07v-1.407c0-.047 0-.067-.029-.067" aria-label="quod" style="font-size:2.4697px;font-family:&quot;EB Garamond&quot;;white-space:pre" transform="translate(67.655 10.188)"/><path fill="#292924" d="M73.757 20.794c.264 0 .432.144.432.356 0 .356-.452.732-.872.732-.264 0-.432-.144-.432-.356 0-.356.452-.732.872-.732"/><path d="M-.025-2h.05a.04.04 0 0 1 .04.04v3.234a.04.04 0 0 1-.04.04h-.05a.04.04 0 0 1-.04-.04V-1.96A.04.04 0 0 1-.025-2" style="fill:#292924" transform="translate(66.071 41.045)"/><path fill="#292924" d="M66.586 42.545a.224.224 0 1 1 .447 0 .224.224 0 0 1-.447 0"/><path d="M-.025-.314h.05a.04.04 0 0 1 .04.04V2.96a.04.04 0 0 1-.04.04h-.05a.04.04 0 0 1-.04-.04V-.274a.04.04 0 0 1 .04-.04" style="fill:#292924" transform="translate(64.897 22.838)"/><path d="M-.025-.314h.05a.04.04 0 0 1 .04.04V2.96a.04.04 0 0 1-.04.04h-.05a.04.04 0 0 1-.04-.04V-.274a.04.04 0 0 1 .04-.04" style="fill:#292924" transform="translate(64.897 4.63)"/><path d="M.04-.55h.58a.04.04 0 0 1 .04.04v.05a.04.04 0 0 1-.04.04H.04A.04.04 0 0 1 0-.46v-.05a.04.04 0 0 1 .04-.04" style="fill:#292924" transform="translate(105.464 28.338)"/><path d="M-.025-.814h.05a.04.04 0 0 1 .04.04v3.186a.04.04 0 0 1-.04.04h-.05a.04.04 0 0 1-.04-.04V-.774a.04.04 0 0 1 .04-.04" style="fill:#292924" transform="translate(77.73 4.63)"/><path fill="#292924" d="M78.536 21.794c.264 0 .432.144.432.356 0 .356-.452.732-.872.732-.264 0-.432-.144-.432-.356 0-.356.452-.732.872-.732M78.536 3.087c.264 0 .432.144.432.356 0 .356-.452.732-.872.732-.264 0-.432-.144-.432-.356 0-.356.452-.732.872-.732"/><path d="M-.025-.814h.05a.04.04 0 0 1 .04.04v3.027a.04.04 0 0 1-.04.04h-.05a.04.04 0 0 1-.04-.04V-.774a.04.04 0 0 1 .04-.04" style="fill:#292924" transform="translate(75.34 22.838)"/><path fill="#292924" d="M76.146 21.294c.264 0 .432.144.432.356 0 .356-.452.732-.872.732-.264 0-.432-.144-.432-.356 0-.356.452-.732.872-.732"/><path d="M-.025-.314h.05a.04.04 0 0 1 .04.04v2.812a.04.04 0 0 1-.04.04h-.05a.04.04 0 0 1-.04-.04V-.274a.04.04 0 0 1 .04-.04" style="fill:#292924" transform="translate(77.73 22.838)"/><path fill="#292924" d="M74.285 40.545a.224.224 0 1 1 .447 0 .224.224 0 0 1-.447 0"/><path d="M-.025-1.314h.05a.04.04 0 0 1 .04.04v3.242a.04.04 0 0 1-.04.04h-.05a.04.04 0 0 1-.04-.04v-3.242a.04.04 0 0 1 .04-.04" style="fill:#292924" transform="translate(72.95 22.838)"/><path d="M-.025-.314h.05a.04.04 0 0 1 .04.04v3.04a.04.04 0 0 1-.04.04h-.05a.04.04 0 0 1-.04-.04v-3.04a.04.04 0 0 1 .04-.04" style="fill:#292924" transform="translate(72.95 4.63)"/><path fill="#292924" d="M72.86 40.733c0-.236.497-.332.497-.728a.43.43 0 0 0-.1-.276l-.14-.168a.06.06 0 0 1-.016-.04c0-.036.036-.06.068-.06.016 0 .032.004.044.02l.604.72a.16.16 0 0 1 .04.1c0 .236-.496.332-.496.728 0 .096.028.196.096.276l.336.396a.06.06 0 0 1 .016.04.066.066 0 0 1-.064.064c-.032 0-.18-.176-.436-.176-.064 0-.212 0-.212.268 0 .14.044.296.112.376.028.032-.02.076-.048.044-.18-.216-.368-.592-.368-.808 0-.164.108-.168.16-.168.132 0 .312.052.476.124l-.528-.632a.16.16 0 0 1-.04-.1"/><path d="M.403-1.062a.315.315 0 0 0-.317.309c0 .123.097.2.208.276l.118.084c.06.045.112.07.112.178 0 .074-.072.124-.146.124-.082 0-.158-.028-.19-.094C.153-.262.104-.284.079-.284s-.027.037-.027.079c0 .037.03.123.042.156.012.032.025.034.062.049.024.01.093.02.163.02.202 0 .373-.15.373-.36 0-.087-.052-.144-.119-.198L.37-.692C.314-.73.264-.773.264-.842c0-.062.052-.106.114-.106.076 0 .148.042.168.098.012.05.05.062.074.062.03 0 .03-.025.03-.054a1 1 0 0 0-.013-.121C.63-.988.625-.995.61-1.003c-.079-.032-.13-.059-.207-.059M1.245.02c.242 0 .385-.119.385-.19q0-.036-.037-.035c-.025 0-.146.057-.26.057-.21 0-.306-.232-.306-.45 0-.163.104-.348.252-.348.052 0 .084.045.126.087.055.054.116.088.16.088.058 0 .105-.037.105-.096 0-.032-.035-.074-.082-.113-.04-.033-.116-.082-.289-.082-.284 0-.499.282-.499.58 0 .262.18.502.445.502m.773-.798c0-.05.101-.17.25-.17.07 0 .145.049.145.12 0 .035-.012.077-.037.077H2.05c-.03 0-.032-.01-.032-.027m.61-.027c0-.126-.158-.257-.326-.257a.526.526 0 0 0-.534.536c0 .279.153.546.428.546.242 0 .385-.119.385-.19q0-.036-.037-.035c-.025 0-.134.057-.257.057-.195 0-.311-.203-.311-.39 0-.042 0-.047.01-.074.007-.02.012-.025.047-.025h.52c.065 0 .075-.101.075-.168" aria-label="sce" style="font-size:2.4697px;font-family:&quot;EB Garamond&quot;;white-space:pre" transform="translate(72.885 28.338)"/><path d="M.04-.55h.58a.04.04 0 0 1 .04.04v.05a.04.04 0 0 1-.04.04H.04A.04.04 0 0 1 0-.46v-.05a.04.04 0 0 1 .04-.04" style="fill:#292924" transform="translate(42.672 10.188)"/><path d="M.04-.55h.58a.04.04 0 0 1 .04.04v.05a.04.04 0 0 1-.04.04H.04A.04.04 0 0 1 0-.46v-.05a.04.04 0 0 1 .04-.04" style="fill:#292924" transform="translate(37.401 28.338)"/><path d="M.04-.55h.58a.04.04 0 0 1 .04.04v.05a.04.04 0 0 1-.04.04H.04A.04.04 0 0 1 0-.46v-.05a.04.04 0 0 1 .04-.04" style="fill:#292924" transform="translate(37.401 10.188)"/><path d="M.04-.55h.58a.04.04 0 0 1 .04.04v.05a.04.04 0 0 1-.04.04H.04A.04.04 0 0 1 0-.46v-.05a.04.04 0 0 1 .04-.04" style="fill:#292924" transform="translate(33.492 28.338)"/><path d="M.04-.55h.58a.04.04 0 0 1 .04.04v.05a.04.04 0 0 1-.04.04H.04A.04.04 0 0 1 0-.46v-.05a.04.04 0 0 1 .04-.04" style="fill:#292924" transform="translate(33.492 10.188)"/><path fill="#292924" stroke="#292924" stroke-linecap="round" stroke-linejoin="round" stroke-width=".1" d="M24.665 3.495c.75-.774 2.316-.893 3.21-.243h0c-.885-.54-2.451-.422-3.21.243"/><path d="M10.359-.204v.7M-.2.004v.7M10.359-.204l-5.18.102M-.2.004l5.38-.106" style="stroke:#292924;stroke-width:.16;stroke-linecap:round;stroke-linejoin:round" transform="translate(21.87 36.72)"/><path fill="#292924" stroke="#292924" stroke-linecap="round" stroke-linejoin="round" stroke-width=".08" d="M21.472 19.793c1.04-.52 2.606-.05 3.188.956h0c-.616-.891-2.183-1.361-3.188-.956"/><path d="M6.78-.2v.4H.04v-.4z" style="fill:#292924;stroke:#292924;stroke-width:.08;stroke-linecap:round;stroke-linejoin:round" transform="translate(20.695 24.648)"/><path d="M6.78-.2v.4H.04v-.4z" style="fill:#292924;stroke:#292924;stroke-width:.08;stroke-linecap:round;stroke-linejoin:round" transform="translate(20.695 7.44)"/><path d="M4.854 0v.7M-.2 0v.7M4.854 0H2.427M-.2 0h2.627" style="stroke:#292924;stroke-width:.16;stroke-linecap:round;stroke-linejoin:round" transform="translate(20.695 .33)"/><path d="M.032-.08H11.24c.018 0 .032.014.032.032v.016A.03.03 0 0 1 11.24 0H.032A.03.03 0 0 1 0-.032v-.016C0-.066.014-.08.032-.08" style="fill:#292924" transform="translate(17.417 28.338)"/><path d="M.032-.08H10.32c.017 0 .032.014.032.032v.016A.03.03 0 0 1 10.32 0H.032A.03.03 0 0 1 0-.032v-.016C0-.066.014-.08.032-.08" style="fill:#292924" transform="translate(18.066 10.188)"/><path d="M6.986-.01v.4L.04.2v-.4z" style="fill:#292924;stroke:#292924;stroke-width:.08;stroke-linecap:round;stroke-linejoin:round" transform="translate(38.885 24.838)"/><path fill="#292924" stroke="#292924" stroke-linecap="round" stroke-linejoin="round" stroke-width=".0075" d="M111.866 42.891c-.055-.002-.069-.005-.079-.014q-.03-.026-.018-.097a1 1 0 0 0-.01-.293 53 53 0 0 0-.244-1.33c-.002.003-.017.06-.034.128-.016.067-.04.15-.054.184-.046.12-.136.285-.232.425a.9.9 0 0 1-.149.183c-.008 0-.004-.024.008-.04a1 1 0 0 0 .066-.145 2 2 0 0 1 .06-.138l.024-.058.036-.087c.043-.102.142-.425.154-.505.017-.113.023-.29.012-.36-.007-.045-.007-.054.002-.084.017-.058.047-.074.139-.075q.09 0 .116.04c.016.024.03.09.037.168.003.038.014.11.023.158.01.05.018.103.02.119l.017.1.029.15.018.11c.002.018.01.076.02.13.03.172.035.2.046.28.007.041.018.105.026.14s.02.095.026.132c.017.09.018.094.02.091.002-.002.045-.182.072-.308a33 33 0 0 1 .157-.664l.037-.153a2 2 0 0 0 .044-.196 1 1 0 0 0 .028-.17c0-.039.009-.065.03-.092.016-.021.032-.027.091-.033.084-.008.144.013.172.06.019.03.056.2.08.363.016.114.054.296.085.409.01.04.027.114.036.166.01.052.018.094.02.094a.3.3 0 0 0 .013-.06c.028-.166.042-.234.08-.382.179-.709.37-1.175.66-1.606.12-.176.226-.306.36-.44.095-.093.123-.116.145-.116.067 0 .218.144.35.332l.072.104.083.121.104.153.038.055-.022.002a4 4 0 0 1-.308-.031l-.032-.004-.046-.061c-.068-.09-.153-.205-.229-.31l-.084-.113-.017-.02-.032.035-.054.064-.122.165a3.2 3.2 0 0 0-.443.76l-.057.134c-.015.033-.036.09-.047.127-.025.08-.083.254-.102.306-.008.02-.027.079-.042.13l-.05.167c-.06.202-.106.456-.131.737-.014.15-.015.14.028.351a24 24 0 0 1 .096.502c.016.074.016.075.006.09a.06.06 0 0 1-.031.02.6.6 0 0 1-.168 0c-.052-.013-.063-.034-.082-.159l-.02-.124a14 14 0 0 0-.124-.574 5 5 0 0 0-.096-.357 6 6 0 0 1-.115-.48l-.02-.098c-.013-.067-.02-.084-.026-.06l-.148.614c-.095.394-.121.511-.126.58-.003.036-.01.103-.017.147-.015.1-.025.297-.018.33a1 1 0 0 1 .01.086c.004.079.002.081-.056.093l-.043.007zM111.866 24.684c-.055-.002-.069-.005-.079-.014q-.03-.026-.018-.097a1 1 0 0 0-.01-.293 53 53 0 0 0-.244-1.33c-.002.003-.017.06-.034.128-.016.067-.04.15-.054.184-.046.12-.136.285-.232.425a.9.9 0 0 1-.149.183c-.008 0-.004-.024.008-.04a1 1 0 0 0 .066-.145 2 2 0 0 1 .06-.138l.024-.058.036-.087c.043-.102.142-.425.154-.505.017-.113.023-.29.012-.36-.007-.045-.007-.054.002-.084.017-.058.047-.074.139-.075q.09 0 .116.04c.016.024.03.09.037.168.003.038.014.11.023.158.01.05.018.103.02.119l.017.1.029.15.018.11c.002.018.01.076.02.13.03.172.035.2.046.28.007.041.018.105.026.14s.02.095.026.132c.017.09.018.094.02.091.002-.002.045-.182.072-.308a33 33 0 0 1 .157-.664l.037-.153a2 2 0 0 0 .044-.196.8.8 0 0 0 .028-.171c0-.038.009-.064.03-.09.016-.022.032-.028.091-.034.084-.008.144.013.172.06.019.03.056.2.08.363.016.114.054.296.085.409.01.04.027.114.036.166.01.051.018.094.02.094a.3.3 0 0 0 .013-.06c.028-.166.042-.234.08-.382.179-.709.37-1.175.66-1.606.12-.176.226-.306.36-.44.095-.093.123-.116.145-.116.067 0 .218.144.35.332l.072.104.083.121.104.153.038.055-.022.002a4 4 0 0 1-.308-.031l-.032-.004-.046-.061c-.068-.09-.153-.205-.229-.31l-.084-.113-.017-.02-.032.035-.054.064-.122.165a3.2 3.2 0 0 0-.443.76c-.016.04-.042.1-.057.133-.015.034-.036.09-.047.127-.025.08-.083.255-.102.307-.008.02-.027.079-.042.13l-.05.167c-.06.202-.106.456-.131.737-.014.15-.015.14.028.351a24 24 0 0 1 .096.502c.016.074.016.075.006.09a.06.06 0 0 1-.031.02.6.6 0 0 1-.168 0c-.052-.014-.063-.034-.082-.159l-.02-.124a14 14 0 0 0-.124-.574 5 5 0 0 0-.096-.357 6 6 0 0 1-.115-.48l-.02-.098c-.013-.067-.02-.084-.026-.06l-.148.614c-.095.394-.121.511-.126.58-.003.036-.01.103-.017.147-.015.1-.025.297-.018.33a1 1 0 0 1 .01.086c.004.079.002.081-.056.093l-.043.007zM111.866 6.477c-.055-.002-.069-.005-.079-.014q-.03-.026-.018-.097a1 1 0 0 0-.01-.293 53 53 0 0 0-.244-1.33c-.002.003-.017.06-.034.128-.016.067-.04.15-.054.184-.046.12-.136.285-.232.425a.9.9 0 0 1-.149.183c-.008 0-.004-.024.008-.04a1 1 0 0 0 .066-.145 2 2 0 0 1 .06-.138l.024-.058.036-.087c.043-.102.142-.425.154-.505.017-.113.023-.29.012-.36-.007-.045-.007-.054.002-.084.017-.058.047-.074.139-.075q.09 0 .116.04c.016.024.03.09.037.168.003.038.014.11.023.158.01.05.018.103.02.119l.017.1.029.15.018.11c.002.018.01.076.02.13.03.172.035.2.046.28.007.041.018.105.026.14s.02.095.026.132c.017.09.018.094.02.091.002-.002.045-.182.072-.308a33 33 0 0 1 .157-.664l.037-.153a2 2 0 0 0 .044-.196.8.8 0 0 0 .028-.171c0-.038.009-.064.03-.09.016-.022.032-.028.091-.034.084-.008.144.013.172.06.019.03.056.2.08.363.016.114.054.296.085.409.01.04.027.114.036.166.01.051.018.094.02.094a.3.3 0 0 0 .013-.06c.028-.166.042-.234.08-.382.179-.709.37-1.175.66-1.606.12-.176.226-.306.36-.44.095-.093.123-.116.145-.116.067 0 .218.144.35.332l.072.104.083.121.104.153.038.055-.022.002a4 4 0 0 1-.308-.031l-.032-.004-.046-.061c-.068-.09-.153-.205-.229-.31l-.084-.113-.017-.02-.032.035-.054.064-.122.165a3.2 3.2 0 0 0-.443.76c-.016.04-.042.1-.057.133-.015.034-.036.09-.047.127-.025.08-.083.255-.102.307-.008.02-.027.079-.042.13l-.05.167c-.06.202-.106.456-.131.737-.014.15-.015.14.028.351a24 24 0 0 1 .096.502c.016.074.016.075.006.09a.06.06 0 0 1-.031.02.6.6 0 0 1-.168 0c-.052-.014-.063-.034-.082-.159l-.02-.124a14 14 0 0 0-.124-.574 5 5 0 0 0-.096-.357 6 6 0 0 1-.115-.48l-.02-.098c-.013-.067-.02-.084-.026-.06l-.148.614c-.095.394-.121.511-.126.58-.003.036-.01.103-.017.147-.015.1-.025.297-.018.33a1 1 0 0 1 .01.086c.004.079.002.081-.056.092l-.043.008z"/><path d="M6.284 0v.7M-.2 0v.7M6.284 0H3.142M-.2 0h3.342" style="stroke:#292924;stroke-width:.16;stroke-linecap:round;stroke-linejoin:round" transform="translate(72.885 .33)"/><path d="M.04-.55h.58a.04.04 0 0 1 .04.04v.05a.04.04 0 0 1-.04.04H.04A.04.04 0 0 1 0-.46v-.05a.04.04 0 0 1 .04-.04" style="fill:#292924" transform="translate(105.464 10.188)"/><path d="M.04-.55h.58a.04.04 0 0 1 .04.04v.05a.04.04 0 0 1-.04.04H.04A.04.04 0 0 1 0-.46v-.05a.04.04 0 0 1 .04-.04" style="fill:#292924" transform="translate(97.753 28.338)"/><path d="M.04-.55h.58a.04.04 0 0 1 .04.04v.05a.04.04 0 0 1-.04.04H.04A.04.04 0 0 1 0-.46v-.05a.04.04 0 0 1 .04-.04" style="fill:#292924" transform="translate(97.753 10.188)"/><path d="M10.485.204v.7M-.2-.004v.7M10.485.204 5.242.102M-.2-.004l5.442.106" style="stroke:#292924;stroke-width:.16;stroke-linecap:round;stroke-linejoin:round" transform="translate(85.914 36.545)"/><path d="M.04-.55h.58a.04.04 0 0 1 .04.04v.05a.04.04 0 0 1-.04.04H.04A.04.04 0 0 1 0-.46v-.05a.04.04 0 0 1 .04-.04" style="fill:#292924" transform="translate(83.278 28.338)"/><path d="M.04-.55h.58a.04.04 0 0 1 .04.04v.05a.04.04 0 0 1-.04.04H.04A.04.04 0 0 1 0-.46v-.05a.04.04 0 0 1 .04-.04" style="fill:#292924" transform="translate(83.278 10.188)"/><path d="M.04-.55h.58a.04.04 0 0 1 .04.04v.05a.04.04 0 0 1-.04.04H.04A.04.04 0 0 1 0-.46v-.05a.04.04 0 0 1 .04-.04" style="fill:#292924" transform="translate(77.93 28.338)"/><path d="M.04-.55h.58a.04.04 0 0 1 .04.04v.05a.04.04 0 0 1-.04.04H.04A.04.04 0 0 1 0-.46v-.05a.04.04 0 0 1 .04-.04" style="fill:#292924" transform="translate(77.93 10.188)"/><path fill="#292924" stroke="#292924" stroke-linecap="round" stroke-linejoin="round" stroke-width=".1" d="M78.225 21.038q.1.123.18.255h0a2 2 0 0 0-.184-.236ZM77.627 20.497q.138.093.262.2l-.009.042a3 3 0 0 0-.264-.187ZM76.873 20.104q.162.063.316.138l-.014.07a4 4 0 0 0-.318-.133ZM76.029 19.873q.173.03.344.072l-.017.08a5 5 0 0 0-.344-.072ZM75.161 19.818q.172-.007.346 0l-.016.076a4 4 0 0 0-.344-.007ZM74.338 19.953q.155-.046.32-.077l-.012.055a3 3 0 0 0-.317.065ZM73.626 20.293q.127-.09.267-.161l-.004.019q-.138.064-.263.142"/><path d="M2.48.1v.4L.04.2v-.4z" style="fill:#292924;stroke:#292924;stroke-width:.08;stroke-linecap:round;stroke-linejoin:round" transform="translate(72.885 24.028)"/><path d="M8.345.8v.4L.04.2v-.4z" style="fill:#292924;stroke:#292924;stroke-width:.08;stroke-linecap:round;stroke-linejoin:round" transform="translate(72.885 24.838)"/><path d="M8.345-.82v.4L.04.2v-.4z" style="fill:#292924;stroke:#292924;stroke-width:.08;stroke-linecap:round;stroke-linejoin:round" transform="translate(72.885 7.44)"/><path d="M.04-.55h.58a.04.04 0 0 1 .04.04v.05a.04.04 0 0 1-.04.04H.04A.04.04 0 0 1 0-.46v-.05a.04.04 0 0 1 .04-.04" style="fill:#292924" transform="translate(57.65 28.338)"/><path d="M.04-.55h.58a.04.04 0 0 1 .04.04v.05a.04.04 0 0 1-.04.04H.04A.04.04 0 0 1 0-.46v-.05a.04.04 0 0 1 .04-.04" style="fill:#292924" transform="translate(60.247 10.188)"/><path d="M10.755.713v.7M-.2-.013v.7M10.755.713 5.378.357M-.2-.013l5.578.37" style="stroke:#292924;stroke-width:.16;stroke-linecap:round;stroke-linejoin:round" transform="translate(55.58 36.045)"/><path d="M7.28 0v.7M-.2 0v.7M7.28 0H3.64M-.2 0h3.84" style="stroke:#292924;stroke-width:.16;stroke-linecap:round;stroke-linejoin:round" transform="translate(55.58 17.838)"/><path d="M7.04.42v.4L.04.2v-.4z" style="fill:#292924;stroke:#292924;stroke-width:.08;stroke-linecap:round;stroke-linejoin:round" transform="translate(54.407 5.82)"/><path d="M8.454.25v.7M-.2-.006v.7M8.454.25 4.227.126M-.2-.006l4.427.131" style="stroke:#292924;stroke-width:.16;stroke-linecap:round;stroke-linejoin:round" transform="translate(54.407 .086)"/><path d="M.04-.55h.58a.04.04 0 0 1 .04.04v.05a.04.04 0 0 1-.04.04H.04A.04.04 0 0 1 0-.46v-.05a.04.04 0 0 1 .04-.04" style="fill:#292924" transform="translate(52.846 10.188)"/><path d="M.04-.55h.475a.04.04 0 0 1 .04.04v.05a.04.04 0 0 1-.04.04H.04A.04.04 0 0 1 0-.46v-.05a.04.04 0 0 1 .04-.04" style="fill:#292924" transform="translate(48.586 28.338)"/><path d="M.04-.55h.58a.04.04 0 0 1 .04.04v.05a.04.04 0 0 1-.04.04H.04A.04.04 0 0 1 0-.46v-.05a.04.04 0 0 1 .04-.04" style="fill:#292924" transform="translate(40.962 28.338)"/><path fill="#292924" d="M99.585 24.298h-.064v-1h.064Zm0 0v-1c.388-.236.896-.592.896-1.036 0-.228-.06-.448-.16-.652-.012-.064.04-.108.092-.108.028 0 .06.012.08.044.1.224.16.468.16.716 0 .812-1.068 1.224-1.068 2.036"/><path d="M-.025-1.814h.05a.04.04 0 0 1 .04.04V1.46a.04.04 0 0 1-.04.04h-.05a.04.04 0 0 1-.04-.04v-3.234a.04.04 0 0 1 .04-.04" style="fill:#292924" transform="translate(99.52 22.838)"/><path fill="#292924" d="M99.585 7.09h-.064v-1h.064Zm0 0v-1c.388-.235.896-.591.896-1.035 0-.228-.06-.448-.16-.652-.012-.064.04-.108.092-.108.028 0 .06.012.08.044.1.224.16.468.16.716 0 .812-1.068 1.224-1.068 2.036"/><path d="M-.025-.814h.05a.04.04 0 0 1 .04.04V2.46a.04.04 0 0 1-.04.04h-.05a.04.04 0 0 1-.04-.04V-.774a.04.04 0 0 1 .04-.04" style="fill:#292924" transform="translate(99.52 4.63)"/><path d="M.343-.01c.04 0 .186.015.24.015.064 0 .084-.025.084-.05Q.666-.08.566-.108a.18.18 0 0 1-.121-.158l.004-.481c0-.065.072-.116.129-.116.05 0 .123.069.16.069.013 0 .033-.015.04-.022.04-.04.074-.104.074-.141 0-.057-.04-.104-.14-.104a.37.37 0 0 0-.218.096c-.012.015-.05.052-.05.015v-.062c0-.047 0-.069-.03-.069-.024 0-.229.082-.256.097-.032.014-.072.034-.072.061s.025.042.052.052c.06.022.102.084.102.126v.48c0 .061-.028.138-.094.157Q.047-.08.049-.044c0 .024.01.049.074.049.055 0 .173-.015.22-.015m.86-1.583a.136.136 0 1 0 0 .271.136.136 0 0 0 0-.271m-.09.847v.48c0 .061-.026.138-.093.157-.067.02-.109.04-.109.065 0 .024.023.049.087.049.054 0 .17-.015.22-.015.04 0 .163.015.217.015.064 0 .084-.025.084-.05 0-.024-.04-.044-.106-.064-.067-.02-.094-.096-.094-.158v-.743c0-.05 0-.072-.03-.072-.025 0-.23.082-.257.097C1-.971.961-.951.961-.924s.024.042.052.052c.059.022.1.084.1.126" aria-label="ri" style="font-size:2.4697px;font-family:&quot;EB Garamond&quot;;white-space:pre" transform="translate(99.322 28.338)"/><path fill="#292924" d="M100.327 20.294c.264 0 .432.144.432.356 0 .356-.452.732-.872.732-.264 0-.432-.144-.432-.356 0-.356.452-.732.872-.732"/><path d="M.343-.01c.04 0 .186.015.24.015.064 0 .084-.025.084-.05Q.666-.08.566-.108a.18.18 0 0 1-.121-.158l.004-.481c0-.065.072-.116.129-.116.05 0 .123.069.16.069.013 0 .033-.015.04-.022.04-.04.074-.104.074-.141 0-.057-.04-.104-.14-.104a.37.37 0 0 0-.218.096c-.012.015-.05.052-.05.015v-.062c0-.047 0-.069-.03-.069-.024 0-.229.082-.256.097-.032.014-.072.034-.072.061s.025.042.052.052c.06.022.102.084.102.126v.48c0 .061-.028.138-.094.157Q.047-.08.049-.044c0 .024.01.049.074.049.055 0 .173-.015.22-.015m.86-1.583a.136.136 0 1 0 0 .271.136.136 0 0 0 0-.271m-.09.847v.48c0 .061-.026.138-.093.157-.067.02-.109.04-.109.065 0 .024.023.049.087.049.054 0 .17-.015.22-.015.04 0 .163.015.217.015.064 0 .084-.025.084-.05 0-.024-.04-.044-.106-.064-.067-.02-.094-.096-.094-.158v-.743c0-.05 0-.072-.03-.072-.025 0-.23.082-.257.097C1-.971.961-.951.961-.924s.024.042.052.052c.059.022.1.084.1.126" aria-label="ri" style="font-size:2.4697px;font-family:&quot;EB Garamond&quot;;white-space:pre" transform="translate(99.322 10.188)"/><path fill="#292924" d="M100.327 3.087c.264 0 .432.144.432.356 0 .356-.452.732-.872.732-.264 0-.432-.144-.432-.356 0-.356.452-.732.872-.732M103.802 3.587c.264 0 .432.144.432.356 0 .356-.452.732-.872.732-.264 0-.432-.144-.432-.356 0-.356.452-.732.872-.732"/><path d="M-.025-1.5h.05a.04.04 0 0 1 .04.04v3.234a.04.04 0 0 1-.04.04h-.05a.04.04 0 0 1-.04-.04V-1.46a.04.04 0 0 1 .04-.04" style="fill:#292924" transform="translate(96.134 41.045)"/><path fill="#292924" d="M96.649 42.545a.224.224 0 1 1 .447 0 .224.224 0 0 1-.447 0"/><path d="M-.025-1.314h.05a.04.04 0 0 1 .04.04V1.96a.04.04 0 0 1-.04.04h-.05a.04.04 0 0 1-.04-.04v-3.234a.04.04 0 0 1 .04-.04" style="fill:#292924" transform="translate(94.96 22.838)"/><path d="M-.025-1.314h.05a.04.04 0 0 1 .04.04V1.96a.04.04 0 0 1-.04.04h-.05a.04.04 0 0 1-.04-.04v-3.234a.04.04 0 0 1 .04-.04" style="fill:#292924" transform="translate(94.96 4.63)"/><path fill="#292924" d="M95.767 42.501c.263 0 .431.144.431.356 0 .356-.451.732-.871.732-.265 0-.433-.144-.433-.356 0-.356.452-.732.872-.732"/><path d="M.501.02C.743.02.887-.1.887-.17q0-.036-.037-.035c-.025 0-.146.057-.26.057-.21 0-.306-.232-.306-.45 0-.163.104-.348.252-.348.052 0 .084.045.126.087.054.054.116.088.16.088.057 0 .104-.037.104-.096C.926-.899.892-.94.845-.98c-.04-.033-.116-.082-.29-.082-.283 0-.498.282-.498.58C.057-.22.237.02.5.02m.707-1.42v1.133c0 .062-.027.139-.094.158-.067.02-.109.04-.109.065 0 .024.022.049.087.049.054 0 .17-.015.22-.015.039 0 .162.015.217.015.064 0 .084-.025.084-.05 0-.024-.04-.044-.106-.064-.067-.02-.094-.096-.094-.158v-1.348c0-.047 0-.067-.03-.067-.025 0-.158.042-.257.06-.034.004-.071.024-.071.051s.03.047.056.057c.06.022.097.072.097.114m.748.622c0-.05.101-.17.25-.17.071 0 .145.049.145.12 0 .035-.012.077-.037.077h-.326c-.03 0-.032-.01-.032-.027m.61-.027c0-.126-.158-.257-.326-.257a.526.526 0 0 0-.533.536c0 .279.153.546.427.546.242 0 .385-.119.385-.19q0-.036-.037-.035c-.025 0-.133.057-.257.057-.195 0-.311-.203-.311-.39 0-.042 0-.047.01-.074.007-.02.012-.025.047-.025h.52c.065 0 .075-.101.075-.168" aria-label="cle" style="font-size:2.4697px;font-family:&quot;EB Garamond&quot;;white-space:pre" transform="translate(94.25 28.338)"/><path fill="#292924" d="M95.767 20.794c.263 0 .431.144.431.356 0 .356-.451.732-.871.732-.265 0-.433-.144-.433-.356 0-.356.452-.732.872-.732M107.62 24.298h-.063v-1h.064Zm0 0v-1c.389-.236.897-.592.897-1.036 0-.228-.06-.448-.16-.652-.012-.064.04-.108.092-.108.028 0 .06.012.08.044.1.224.16.468.16.716 0 .812-1.068 1.224-1.068 2.036"/><path d="M-.025-1.814h.05a.04.04 0 0 1 .04.04V1.46a.04.04 0 0 1-.04.04h-.05a.04.04 0 0 1-.04-.04v-3.234a.04.04 0 0 1 .04-.04" style="fill:#292924" transform="translate(107.556 22.838)"/><path fill="#292924" d="M107.62 7.966h-.063v-1h.064Zm0 0v-1c.389-.236.897-.592.897-1.036 0-.228-.06-.448-.16-.652-.012-.064.04-.108.092-.108.028 0 .06.012.08.044.1.224.16.468.16.716 0 .812-1.068 1.224-1.068 2.036"/><path d="M-.025.186h.05a.04.04 0 0 1 .04.04v3.109a.04.04 0 0 1-.04.04h-.05a.04.04 0 0 1-.04-.04V.226a.04.04 0 0 1 .04-.04" style="fill:#292924" transform="translate(107.556 4.63)"/><path d="M.284-.575c0-.173.062-.38.235-.38.153 0 .276.13.276.286v.378c0 .098-.096.153-.192.153-.213 0-.319-.215-.319-.437m.687-1.107c-.025 0-.163.042-.262.06-.035.004-.072.024-.072.051s.03.047.057.057c.06.022.101.072.101.114v.363c-.005.047-.01.059-.032.04a.3.3 0 0 0-.192-.065c-.312 0-.514.304-.514.613 0 .251.2.469.452.469.099 0 .195-.04.252-.121.017-.025.024-.022.03.002q.01.057.022.094C.815.007.827.03.847.03c.037 0 .282-.06.326-.082q.031-.015.032-.062c0-.017-.02-.04-.032-.04-.02 0-.101.016-.133.016-.025 0-.04-.013-.04-.07v-1.407c0-.047 0-.067-.03-.067m.55.904c0-.05.102-.17.25-.17.071 0 .145.049.145.12 0 .035-.012.077-.037.077h-.326c-.03 0-.032-.01-.032-.027m.61-.027c0-.126-.158-.257-.326-.257a.526.526 0 0 0-.533.536c0 .279.153.546.427.546.242 0 .385-.119.385-.19q0-.036-.037-.035c-.024 0-.133.057-.256.057-.196 0-.312-.203-.312-.39 0-.042 0-.047.01-.074.008-.02.013-.025.047-.025h.521c.064 0 .074-.101.074-.168m.51.825c.147 0 .28-.121.28-.178q0-.036-.036-.035c-.025 0-.087.045-.178.045-.087 0-.129-.055-.129-.227v-.462c0-.035.01-.047.04-.047h.244c.035 0 .06-.064.06-.09 0-.024-.01-.056-.05-.056h-.24c-.031 0-.054-.012-.054-.037v-.07c0-.041-.005-.06-.034-.06-.032 0-.126.093-.16.123-.062.052-.166.12-.166.155 0 .025.057.035.079.035.091 0 .076.012.076.034v.588c0 .21.121.282.267.282" aria-label="det" style="font-size:2.4697px;font-family:&quot;EB Garamond&quot;;white-space:pre" transform="translate(106.64 28.338)"/><path fill="#292924" d="M108.363 20.294c.264 0 .432.144.432.356 0 .356-.452.732-.872.732-.264 0-.432-.144-.432-.356 0-.356.452-.732.872-.732"/><path d="M.284-.575c0-.173.062-.38.235-.38.153 0 .276.13.276.286v.378c0 .098-.096.153-.192.153-.213 0-.319-.215-.319-.437m.687-1.107c-.025 0-.163.042-.262.06-.035.004-.072.024-.072.051s.03.047.057.057c.06.022.101.072.101.114v.363c-.005.047-.01.059-.032.04a.3.3 0 0 0-.192-.065c-.312 0-.514.304-.514.613 0 .251.2.469.452.469.099 0 .195-.04.252-.121.017-.025.024-.022.03.002q.01.057.022.094C.815.007.827.03.847.03c.037 0 .282-.06.326-.082q.031-.015.032-.062c0-.017-.02-.04-.032-.04-.02 0-.101.016-.133.016-.025 0-.04-.013-.04-.07v-1.407c0-.047 0-.067-.03-.067m.55.904c0-.05.102-.17.25-.17.071 0 .145.049.145.12 0 .035-.012.077-.037.077h-.326c-.03 0-.032-.01-.032-.027m.61-.027c0-.126-.158-.257-.326-.257a.526.526 0 0 0-.533.536c0 .279.153.546.427.546.242 0 .385-.119.385-.19q0-.036-.037-.035c-.024 0-.133.057-.256.057-.196 0-.312-.203-.312-.39 0-.042 0-.047.01-.074.008-.02.013-.025.047-.025h.521c.064 0 .074-.101.074-.168m.51.825c.147 0 .28-.121.28-.178q0-.036-.036-.035c-.025 0-.087.045-.178.045-.087 0-.129-.055-.129-.227v-.462c0-.035.01-.047.04-.047h.244c.035 0 .06-.064.06-.09 0-.024-.01-.056-.05-.056h-.24c-.031 0-.054-.012-.054-.037v-.07c0-.041-.005-.06-.034-.06-.032 0-.126.093-.16.123-.062.052-.166.12-.166.155 0 .025.057.035.079.035.091 0 .076.012.076.034v.588c0 .21.121.282.267.282" aria-label="det" style="font-size:2.4697px;font-family:&quot;EB Garamond&quot;;white-space:pre" transform="translate(106.64 10.188)"/><path fill="#292924" d="M108.363 4.087c.264 0 .432.144.432.356 0 .356-.452.732-.872.732-.264 0-.432-.144-.432-.356 0-.356.452-.732.872-.732"/><path d="M.501.02C.743.02.887-.1.887-.17q0-.036-.037-.035c-.025 0-.146.057-.26.057-.21 0-.306-.232-.306-.45 0-.163.104-.348.252-.348.052 0 .084.045.126.087.054.054.116.088.16.088.057 0 .104-.037.104-.096C.926-.899.892-.94.845-.98c-.04-.033-.116-.082-.29-.082-.283 0-.498.282-.498.58C.057-.22.237.02.5.02m.707-1.42v1.133c0 .062-.027.139-.094.158-.067.02-.109.04-.109.065 0 .024.022.049.087.049.054 0 .17-.015.22-.015.039 0 .162.015.217.015.064 0 .084-.025.084-.05 0-.024-.04-.044-.106-.064-.067-.02-.094-.096-.094-.158v-1.348c0-.047 0-.067-.03-.067-.025 0-.158.042-.257.06-.034.004-.071.024-.071.051s.03.047.056.057c.06.022.097.072.097.114m.748.622c0-.05.101-.17.25-.17.071 0 .145.049.145.12 0 .035-.012.077-.037.077h-.326c-.03 0-.032-.01-.032-.027m.61-.027c0-.126-.158-.257-.326-.257a.526.526 0 0 0-.533.536c0 .279.153.546.427.546.242 0 .385-.119.385-.19q0-.036-.037-.035c-.025 0-.133.057-.257.057-.195 0-.311-.203-.311-.39 0-.042 0-.047.01-.074.007-.02.012-.025.047-.025h.52c.065 0 .075-.101.075-.168" aria-label="cle" style="font-size:2.4697px;font-family:&quot;EB Garamond&quot;;white-space:pre" transform="translate(94.25 10.188)"/><path fill="#292924" d="M104.33 40.545a.224.224 0 1 1 .447 0 .224.224 0 0 1-.447 0"/><path d="M-.025-2.314h.05a.04.04 0 0 1 .04.04V.96a.04.04 0 0 1-.04.04h-.05a.04.04 0 0 1-.04-.04v-3.234a.04.04 0 0 1 .04-.04" style="fill:#292924" transform="translate(102.995 22.838)"/><path d="M-.025-.314h.05a.04.04 0 0 1 .04.04V2.96a.04.04 0 0 1-.04.04h-.05a.04.04 0 0 1-.04-.04V-.274a.04.04 0 0 1 .04-.04" style="fill:#292924" transform="translate(102.995 4.63)"/><path fill="#292924" d="M102.906 40.733c0-.236.496-.332.496-.728a.43.43 0 0 0-.1-.276l-.14-.168a.06.06 0 0 1-.016-.04c0-.036.036-.06.068-.06.016 0 .032.004.044.02l.604.72a.16.16 0 0 1 .04.1c0 .236-.496.332-.496.728 0 .096.028.196.096.276l.336.396a.06.06 0 0 1 .016.04.066.066 0 0 1-.064.064c-.032 0-.18-.176-.436-.176-.064 0-.212 0-.212.268 0 .14.044.296.112.376.028.032-.02.076-.048.044-.18-.216-.368-.592-.368-.808 0-.164.108-.168.16-.168.132 0 .312.052.476.124l-.528-.632a.16.16 0 0 1-.04-.1"/><path d="M.403-1.062a.315.315 0 0 0-.317.309c0 .123.097.2.208.276l.118.084c.06.045.112.07.112.178 0 .074-.072.124-.146.124-.082 0-.158-.028-.19-.094C.153-.262.104-.284.079-.284s-.027.037-.027.079c0 .037.03.123.042.156.012.032.025.034.062.049.024.01.093.02.163.02.202 0 .373-.15.373-.36 0-.087-.052-.144-.119-.198L.37-.692C.314-.73.264-.773.264-.842c0-.062.052-.106.114-.106.076 0 .148.042.168.098.012.05.05.062.074.062.03 0 .03-.025.03-.054a1 1 0 0 0-.013-.121C.63-.988.625-.995.61-1.003c-.079-.032-.13-.059-.207-.059m.8 1.082c.148 0 .281-.121.281-.178q0-.036-.037-.035c-.024 0-.086.045-.178.045-.086 0-.128-.055-.128-.227v-.462c0-.035.01-.047.04-.047h.244c.035 0 .06-.064.06-.09 0-.024-.01-.056-.05-.056h-.24c-.032 0-.054-.012-.054-.037v-.07c0-.041-.005-.06-.035-.06-.032 0-.126.093-.16.123-.062.052-.166.12-.166.155 0 .025.057.035.08.035.09 0 .076.012.076.034v.588c0 .21.121.282.267.282M2.314-.8v.467c0 .108-.111.19-.247.19-.113 0-.173-.111-.173-.23v-.622c0-.047 0-.067-.03-.067-.024 0-.128.032-.227.05-.034.004-.066.024-.066.051s.024.047.052.057c.059.022.066.082.066.124v.489c0 .143.102.3.245.3a.45.45 0 0 0 .333-.11c.032-.027.04-.042.05.002.007.035.007.07.014.094.003.012.015.035.035.035.037 0 .24-.06.284-.082.02-.01.044-.03.044-.062 0-.017-.02-.04-.032-.04-.02 0-.071.016-.103.016-.025 0-.04-.008-.04-.032v-.825c0-.047 0-.067-.03-.067-.024 0-.187.027-.276.04-.035.004-.072.034-.072.061s.027.042.057.047c.07.01.116.045.116.114" aria-label="stu" style="font-size:2.4697px;font-family:&quot;EB Garamond&quot;;white-space:pre" transform="translate(102.217 28.338)"/><path fill="#292924" d="M103.802 19.794c.264 0 .432.144.432.356 0 .356-.452.732-.872.732-.264 0-.432-.144-.432-.356 0-.356.452-.732.872-.732"/><path d="M.403-1.062a.315.315 0 0 0-.317.309c0 .123.097.2.208.276l.118.084c.06.045.112.07.112.178 0 .074-.072.124-.146.124-.082 0-.158-.028-.19-.094C.153-.262.104-.284.079-.284s-.027.037-.027.079c0 .037.03.123.042.156.012.032.025.034.062.049.024.01.093.02.163.02.202 0 .373-.15.373-.36 0-.087-.052-.144-.119-.198L.37-.692C.314-.73.264-.773.264-.842c0-.062.052-.106.114-.106.076 0 .148.042.168.098.012.05.05.062.074.062.03 0 .03-.025.03-.054a1 1 0 0 0-.013-.121C.63-.988.625-.995.61-1.003c-.079-.032-.13-.059-.207-.059m.8 1.082c.148 0 .281-.121.281-.178q0-.036-.037-.035c-.024 0-.086.045-.178.045-.086 0-.128-.055-.128-.227v-.462c0-.035.01-.047.04-.047h.244c.035 0 .06-.064.06-.09 0-.024-.01-.056-.05-.056h-.24c-.032 0-.054-.012-.054-.037v-.07c0-.041-.005-.06-.035-.06-.032 0-.126.093-.16.123-.062.052-.166.12-.166.155 0 .025.057.035.08.035.09 0 .076.012.076.034v.588c0 .21.121.282.267.282M2.314-.8v.467c0 .108-.111.19-.247.19-.113 0-.173-.111-.173-.23v-.622c0-.047 0-.067-.03-.067-.024 0-.128.032-.227.05-.034.004-.066.024-.066.051s.024.047.052.057c.059.022.066.082.066.124v.489c0 .143.102.3.245.3a.45.45 0 0 0 .333-.11c.032-.027.04-.042.05.002.007.035.007.07.014.094.003.012.015.035.035.035.037 0 .24-.06.284-.082.02-.01.044-.03.044-.062 0-.017-.02-.04-.032-.04-.02 0-.071.016-.103.016-.025 0-.04-.008-.04-.032v-.825c0-.047 0-.067-.03-.067-.024 0-.187.027-.276.04-.035.004-.072.034-.072.061s.027.042.057.047c.07.01.116.045.116.114" aria-label="stu" style="font-size:2.4697px;font-family:&quot;EB Garamond&quot;;white-space:pre" transform="translate(102.217 10.188)"/><path fill="#292924" d="M24.724 21.396c.218 0 .362.122.362.304 0 .288-.35.58-.679.58-.217 0-.361-.122-.361-.304 0-.288.348-.58.678-.58"/><path d="M-.025-.364h.05a.04.04 0 0 1 .04.04V2.77a.04.04 0 0 1-.04.04h-.05a.04.04 0 0 1-.04-.04V-.324a.04.04 0 0 1 .04-.04" style="fill:#292924" transform="translate(27.45 4.63)"/><path fill="#292924" d="M28.257 20.794c.264 0 .432.144.432.356 0 .356-.452.732-.872.732-.264 0-.432-.144-.432-.356 0-.356.452-.732.872-.732M28.063 3.69c.218 0 .362.12.362.303 0 .288-.349.58-.679.58-.217 0-.361-.122-.361-.305 0-.288.349-.579.678-.579"/><path d="M-.025-.864h.05a.04.04 0 0 1 .04.04V1.77a.04.04 0 0 1-.04.04h-.05a.04.04 0 0 1-.04-.04V-.824a.04.04 0 0 1 .04-.04" style="fill:#292924" transform="translate(24.11 22.838)"/><path d="M-.025.186h.05a.04.04 0 0 1 .04.04V2.77a.04.04 0 0 1-.04.04h-.05a.04.04 0 0 1-.04-.04V.226a.04.04 0 0 1 .04-.04" style="fill:#292924" transform="translate(24.11 4.63)"/><path fill="#292924" d="M24.918 4.087c.264 0 .432.144.432.356 0 .356-.452.732-.872.732-.264 0-.432-.144-.432-.356 0-.356.452-.732.872-.732"/><path d="M-.025-2h.05a.04.04 0 0 1 .04.04v3.234a.04.04 0 0 1-.04.04h-.05a.04.04 0 0 1-.04-.04V-1.96A.04.04 0 0 1-.025-2" style="fill:#292924" transform="translate(21.935 41.045)"/><path fill="#292924" d="M22.45 42.545a.224.224 0 1 1 .447 0 .224.224 0 0 1-.447 0"/><path d="M-.025-1.814h.05a.04.04 0 0 1 .04.04V1.77a.04.04 0 0 1-.04.04h-.05a.04.04 0 0 1-.04-.04v-3.544a.04.04 0 0 1 .04-.04" style="fill:#292924" transform="translate(20.76 22.838)"/><path d="M-.025-.814h.05a.04.04 0 0 1 .04.04V2.46a.04.04 0 0 1-.04.04h-.05a.04.04 0 0 1-.04-.04V-.774a.04.04 0 0 1 .04-.04" style="fill:#292924" transform="translate(30.79 22.838)"/><path d="M-.025-1.814h.05a.04.04 0 0 1 .04.04V1.46a.04.04 0 0 1-.04.04h-.05a.04.04 0 0 1-.04-.04v-3.234a.04.04 0 0 1 .04-.04" style="fill:#292924" transform="translate(35.475 4.63)"/><path d="M.343-.01c.04 0 .186.015.24.015.064 0 .084-.025.084-.05Q.666-.08.566-.108a.18.18 0 0 1-.121-.158l.004-.481c0-.065.072-.116.129-.116.05 0 .123.069.16.069.013 0 .033-.015.04-.022.04-.04.074-.104.074-.141 0-.057-.04-.104-.14-.104a.37.37 0 0 0-.218.096c-.012.015-.05.052-.05.015v-.062c0-.047 0-.069-.03-.069-.024 0-.229.082-.256.097-.032.014-.072.034-.072.061s.025.042.052.052c.06.022.102.084.102.126v.48c0 .061-.028.138-.094.157Q.047-.08.049-.044c0 .024.01.049.074.049.055 0 .173-.015.22-.015m.86-1.583a.136.136 0 1 0 0 .271.136.136 0 0 0 0-.271m-.09.847v.48c0 .061-.026.138-.093.157-.067.02-.109.04-.109.065 0 .024.023.049.087.049.054 0 .17-.015.22-.015.04 0 .163.015.217.015.064 0 .084-.025.084-.05 0-.024-.04-.044-.106-.064-.067-.02-.094-.096-.094-.158v-.743c0-.05 0-.072-.03-.072-.025 0-.23.082-.257.097C1-.971.961-.951.961-.924s.024.042.052.052c.059.022.1.084.1.126" aria-label="ri" style="font-size:2.4697px;font-family:&quot;EB Garamond&quot;;white-space:pre" transform="translate(35.277 28.338)"/><path fill="#292924" d="M36.282 21.794c.264 0 .432.144.432.356 0 .356-.452.732-.872.732-.264 0-.432-.144-.432-.356 0-.356.452-.732.872-.732"/><path d="M.343-.01c.04 0 .186.015.24.015.064 0 .084-.025.084-.05Q.666-.08.566-.108a.18.18 0 0 1-.121-.158l.004-.481c0-.065.072-.116.129-.116.05 0 .123.069.16.069.013 0 .033-.015.04-.022.04-.04.074-.104.074-.141 0-.057-.04-.104-.14-.104a.37.37 0 0 0-.218.096c-.012.015-.05.052-.05.015v-.062c0-.047 0-.069-.03-.069-.024 0-.229.082-.256.097-.032.014-.072.034-.072.061s.025.042.052.052c.06.022.102.084.102.126v.48c0 .061-.028.138-.094.157Q.047-.08.049-.044c0 .024.01.049.074.049.055 0 .173-.015.22-.015m.86-1.583a.136.136 0 1 0 0 .271.136.136 0 0 0 0-.271m-.09.847v.48c0 .061-.026.138-.093.157-.067.02-.109.04-.109.065 0 .024.023.049.087.049.054 0 .17-.015.22-.015.04 0 .163.015.217.015.064 0 .084-.025.084-.05 0-.024-.04-.044-.106-.064-.067-.02-.094-.096-.094-.158v-.743c0-.05 0-.072-.03-.072-.025 0-.23.082-.257.097C1-.971.961-.951.961-.924s.024.042.052.052c.059.022.1.084.1.126" aria-label="ri" style="font-size:2.4697px;font-family:&quot;EB Garamond&quot;;white-space:pre" transform="translate(35.277 10.188)"/><path fill="#292924" d="M36.282 2.087c.264 0 .432.144.432.356 0 .356-.452.732-.872.732-.264 0-.432-.144-.432-.356 0-.356.452-.732.872-.732"/><path d="M-.025-2.5h.05a.04.04 0 0 1 .04.04V.774a.04.04 0 0 1-.04.04h-.05a.04.04 0 0 1-.04-.04V-2.46a.04.04 0 0 1 .04-.04" style="fill:#292924" transform="translate(31.963 41.045)"/><path fill="#292924" d="M32.478 41.545a.224.224 0 1 1 .448 0 .224.224 0 0 1-.448 0"/><path d="M-.025-.814h.05a.04.04 0 0 1 .04.04V2.46a.04.04 0 0 1-.04.04h-.05a.04.04 0 0 1-.04-.04V-.774a.04.04 0 0 1 .04-.04" style="fill:#292924" transform="translate(30.79 4.63)"/><path fill="#292924" d="M31.596 41.501c.264 0 .432.144.432.356 0 .356-.452.732-.872.732-.264 0-.432-.144-.432-.356 0-.356.452-.732.872-.732"/><path d="M.756-.938c.015.002.042.02.042.044a.3.3 0 0 1-.025.101l-.178.45c-.007.02-.017.024-.024 0L.368-.874c-.01-.025 0-.057.012-.06q.083-.025.084-.061c0-.025-.022-.05-.061-.05-.037 0-.141.015-.178.015s-.121-.015-.158-.015c-.04 0-.06.025-.06.05 0 .024.045.044.082.057.037.012.072.09.096.155l.274.719c.015.042.037.099.062.099.045 0 .114-.235.156-.339l.195-.494c.034-.086.079-.13.106-.14.037-.013.084-.033.084-.057 0-.025-.02-.05-.06-.05-.036 0-.08.015-.118.015s-.099-.015-.136-.015c-.04 0-.061.025-.061.05 0 .024.032.05.069.057m.585.16c0-.05.101-.17.25-.17.071 0 .145.049.145.12 0 .035-.012.077-.037.077h-.326c-.03 0-.032-.01-.032-.027m.61-.027c0-.126-.158-.257-.326-.257a.526.526 0 0 0-.533.536c0 .279.153.546.427.546.242 0 .385-.119.385-.19q0-.036-.037-.035c-.025 0-.133.057-.257.057-.195 0-.31-.203-.31-.39 0-.042 0-.047.009-.074.007-.02.012-.025.047-.025h.521c.064 0 .074-.101.074-.168" aria-label="ve" style="font-size:2.4697px;font-family:&quot;EB Garamond&quot;;white-space:pre" transform="translate(30.386 28.338)"/><path fill="#292924" d="M31.596 21.294c.264 0 .432.144.432.356 0 .356-.452.732-.872.732-.264 0-.432-.144-.432-.356 0-.356.452-.732.872-.732"/><path d="M.756-.938c.015.002.042.02.042.044a.3.3 0 0 1-.025.101l-.178.45c-.007.02-.017.024-.024 0L.368-.874c-.01-.025 0-.057.012-.06q.083-.025.084-.061c0-.025-.022-.05-.061-.05-.037 0-.141.015-.178.015s-.121-.015-.158-.015c-.04 0-.06.025-.06.05 0 .024.045.044.082.057.037.012.072.09.096.155l.274.719c.015.042.037.099.062.099.045 0 .114-.235.156-.339l.195-.494c.034-.086.079-.13.106-.14.037-.013.084-.033.084-.057 0-.025-.02-.05-.06-.05-.036 0-.08.015-.118.015s-.099-.015-.136-.015c-.04 0-.061.025-.061.05 0 .024.032.05.069.057m.585.16c0-.05.101-.17.25-.17.071 0 .145.049.145.12 0 .035-.012.077-.037.077h-.326c-.03 0-.032-.01-.032-.027m.61-.027c0-.126-.158-.257-.326-.257a.526.526 0 0 0-.533.536c0 .279.153.546.427.546.242 0 .385-.119.385-.19q0-.036-.037-.035c-.025 0-.133.057-.257.057-.195 0-.31-.203-.31-.39 0-.042 0-.047.009-.074.007-.02.012-.025.047-.025h.521c.064 0 .074-.101.074-.168" aria-label="ve" style="font-size:2.4697px;font-family:&quot;EB Garamond&quot;;white-space:pre" transform="translate(30.386 10.188)"/><path fill="#292924" d="M31.596 3.087c.264 0 .432.144.432.356 0 .356-.452.732-.872.732-.264 0-.432-.144-.432-.356 0-.356.452-.732.872-.732"/><path d="M-.025-1.314h.05a.04.04 0 0 1 .04.04V1.77a.04.04 0 0 1-.04.04h-.05a.04.04 0 0 1-.04-.04v-3.044a.04.04 0 0 1 .04-.04" style="fill:#292924" transform="translate(27.45 22.838)"/><path fill="#292924" d="M11.216 8.17h-.024a.783.783 0 0 1-.78-.787c0-.232.212-.412.448-.412.216 0 .38.188.38.412 0 .208-.172.38-.38.38a.3.3 0 0 1-.124-.024c.104.156.272.26.468.26h.016zm.78-1.727a.69.69 0 0 0 .452-.656.764.764 0 0 0-.692-.76c.076.356.192.968.24 1.416m-1.548-.924c0 .58.564.988 1.056.988.004 0 .188 0 .328-.024a17 17 0 0 0-.252-1.456c-.316.032-.496.244-.496.476 0 .176.1.364.324.492q.029.03.028.06c0 .044-.04.088-.088.088-.06 0-.504-.248-.504-.748 0-.352.232-.696.64-.788a15 15 0 0 0-.184-.7c-.428.484-.852.972-.852 1.612m.704-2.1c-.116-.384-.208-.68-.208-1.384 0-.46.22-.896.596-1.168a.06.06 0 0 1 .08 0c.272.32.532.98.532 1.432 0 .572-.344 1.02-.72 1.456.084.272.156.552.224.828.008 0 .028-.004.052-.004.62 0 1.024.512 1.024 1.044 0 .452-.296.848-.72.984q.019.21.02.42-.001.116-.008.232c-.028.476-.352.9-.808.912l.004-.172c.372-.008.612-.368.636-.764q.007-.11.008-.22c0-.124-.004-.244-.016-.368-.02.004-.176.032-.356.032-.772 0-1.332-.72-1.332-1.496 0-.708.524-1.224.992-1.764m.712-1.452c0-.136.004-.264-.08-.516a1.15 1.15 0 0 0-.648 1.036c0 .208.048.46.144.776.32-.388.584-.792.584-1.296"/><path d="M.406-.402.42-.41C.514-.47.625-.545.625-.656c0-.08-.06-.15-.14-.15-.12 0-.242.093-.242.232 0 .054.016.115.036.162l.01.027-.013.008C.17-.309.062-.238.062-.13c0 .083.056.158.143.158.096 0 .27-.083.27-.214 0-.077-.029-.127-.06-.197zm-.233.241c0-.076.047-.126.111-.166l.024-.015.007.015a.4.4 0 0 1 .041.17c0 .086-.047.118-.102.118-.056 0-.08-.066-.08-.122M.52-.622c0 .074-.06.129-.12.167l-.015.009-.008-.018a.3.3 0 0 1-.035-.13c0-.06.04-.152.096-.152.057 0 .082.065.082.124" aria-label="8" style="font-style:italic;font-size:1.3862px;font-family:&quot;EB Garamond&quot;;white-space:pre" transform="translate(10.854 45.37)"/><path fill="#292924" d="M11.216 44.585h-.024a.783.783 0 0 1-.78-.788c0-.232.212-.412.448-.412.216 0 .38.188.38.412 0 .208-.172.38-.38.38a.3.3 0 0 1-.124-.024c.104.156.272.26.468.26h.016zm.78-1.728a.69.69 0 0 0 .452-.656.764.764 0 0 0-.692-.76c.076.356.192.968.24 1.416m-1.548-.924c0 .58.564.988 1.056.988.004 0 .188 0 .328-.024a17 17 0 0 0-.252-1.456c-.316.032-.496.244-.496.476 0 .176.1.364.324.492q.029.03.028.06c0 .044-.04.088-.088.088-.06 0-.504-.248-.504-.748 0-.352.232-.696.64-.788a15 15 0 0 0-.184-.7c-.428.484-.852.972-.852 1.612m.704-2.1c-.116-.384-.208-.68-.208-1.384 0-.46.22-.896.596-1.168a.06.06 0 0 1 .08 0c.272.32.532.98.532 1.432 0 .572-.344 1.02-.72 1.456.084.272.156.552.224.828.008 0 .028-.004.052-.004.62 0 1.024.512 1.024 1.044 0 .452-.296.848-.72.984q.019.21.02.42-.001.116-.008.232c-.028.476-.352.9-.808.912l.004-.172c.372-.008.612-.368.636-.764a3.775 3.775 0 0 0-.008-.588c-.02.004-.176.032-.356.032-.772 0-1.332-.72-1.332-1.496 0-.708.524-1.224.992-1.764m.712-1.452c0-.136.004-.264-.08-.516a1.15 1.15 0 0 0-.648 1.036c0 .208.048.46.144.776.32-.388.584-.792.584-1.296M16.024 42.001c.264 0 .432.144.432.356 0 .356-.452.732-.872.732-.264 0-.432-.144-.432-.356 0-.356.452-.732.872-.732"/><path d="M.692-1.46c-.084 0-.186.013-.272.013-.09 0-.178-.013-.274-.013-.037 0-.087.015-.087.045 0 .022.018.034.04.042.14.04.202.042.202.183v.901c0 .091-.032.14-.116.178C.131-.086.05-.074.05-.037c0 .025.055.04.082.042C.148.005.294-.01.41-.01c.119 0 .282.015.299.015.027-.003.079-.017.079-.042 0-.037-.082-.05-.136-.074C.568-.148.536-.198.536-.29v-.901c0-.141.064-.144.205-.183q.035-.01.037-.042c0-.03-.05-.045-.086-.045M1.946-.272v-.447c0-.18-.136-.343-.309-.343a.46.46 0 0 0-.306.096c-.02.018-.05.052-.05.015v-.062c0-.047 0-.069-.029-.069-.025 0-.227.082-.257.097-.032.014-.071.034-.071.061s.024.042.052.052c.059.022.1.084.1.126v.48c0 .061-.026.138-.093.157-.067.02-.096.04-.096.065 0 .024.01.049.074.049.054 0 .17-.015.22-.015.039 0 .125.015.18.015.064 0 .071-.025.071-.05 0-.024-.027-.044-.093-.064-.047-.014-.057-.096-.057-.158l.002-.395c0-.188.099-.272.242-.272.129 0 .215.144.215.29v.377c0 .062-.012.146-.057.158q-.098.029-.096.065c0 .024.01.049.074.049.054 0 .133-.015.183-.015.04 0 .163.015.217.015.064 0 .067-.025.067-.05 0-.024-.022-.044-.089-.064s-.094-.098-.094-.163" aria-label="In" style="font-size:2.4697px;font-family:&quot;EB Garamond&quot;;white-space:pre" transform="translate(15.152 28.338)"/><path d="M.406-.402.42-.41C.514-.47.625-.545.625-.656c0-.08-.06-.15-.14-.15-.12 0-.242.093-.242.232 0 .054.016.115.036.162l.01.027-.013.008C.17-.309.062-.238.062-.13c0 .083.056.158.143.158.096 0 .27-.083.27-.214 0-.077-.029-.127-.06-.197zm-.233.241c0-.076.047-.126.111-.166l.024-.015.007.015a.4.4 0 0 1 .041.17c0 .086-.047.118-.102.118-.056 0-.08-.066-.08-.122M.52-.622c0 .074-.06.129-.12.167l-.015.009-.008-.018a.3.3 0 0 1-.035-.13c0-.06.04-.152.096-.152.057 0 .082.065.082.124" aria-label="8" style="font-style:italic;font-size:1.3862px;font-family:&quot;EB Garamond&quot;;white-space:pre" transform="translate(10.854 27.163)"/><path fill="#292924" d="M11.216 26.378h-.024a.783.783 0 0 1-.78-.788c0-.232.212-.412.448-.412.216 0 .38.188.38.412 0 .208-.172.38-.38.38a.3.3 0 0 1-.124-.024c.104.156.272.26.468.26h.016zm.78-1.728a.69.69 0 0 0 .452-.656.764.764 0 0 0-.692-.76c.076.356.192.968.24 1.416m-1.548-.924c0 .58.564.988 1.056.988.004 0 .188 0 .328-.024a17 17 0 0 0-.252-1.456c-.316.032-.496.244-.496.476 0 .176.1.364.324.492q.029.03.028.06c0 .044-.04.088-.088.088-.06 0-.504-.248-.504-.748 0-.352.232-.696.64-.788a15 15 0 0 0-.184-.7c-.428.484-.852.972-.852 1.612m.704-2.1c-.116-.384-.208-.68-.208-1.384 0-.46.22-.896.596-1.168a.06.06 0 0 1 .08 0c.272.32.532.98.532 1.432 0 .572-.344 1.02-.72 1.456.084.272.156.552.224.828.008 0 .028-.004.052-.004.62 0 1.024.512 1.024 1.044 0 .452-.296.848-.72.984q.019.21.02.42-.001.116-.008.232c-.028.476-.352.9-.808.912l.004-.172c.372-.008.612-.368.636-.764q.007-.11.008-.22.001-.184-.016-.368c-.02.004-.176.032-.356.032-.772 0-1.332-.72-1.332-1.496 0-.708.524-1.224.992-1.764m.712-1.452c0-.136.004-.264-.08-.516a1.15 1.15 0 0 0-.648 1.036c0 .208.048.46.144.776.32-.388.584-.792.584-1.296M16.024 20.294c.264 0 .432.144.432.356 0 .356-.452.732-.872.732-.264 0-.432-.144-.432-.356 0-.356.452-.732.872-.732"/><path d="M.21-1.442c-.08 0-.094 0-.094.084V.43c0 .059.02.061.077.061h.405c.03 0 .064-.039.064-.069S.637.385.598.385H.32C.25.385.235.331.235.257V-1.23c0-.074.022-.106.096-.106h.267c.05 0 .064-.047.064-.072s-.02-.034-.045-.034zm1.143-.018c-.084 0-.185.013-.271.013-.09 0-.178-.013-.274-.013-.037 0-.087.015-.087.045 0 .022.017.034.04.042.14.04.202.042.202.183v.901c0 .091-.032.14-.116.178-.054.025-.136.037-.136.074 0 .025.055.04.082.042.017 0 .163-.015.279-.015.118 0 .281.015.299.015.027-.003.079-.017.079-.042 0-.037-.082-.05-.136-.074-.084-.037-.116-.087-.116-.178v-.901c0-.141.064-.144.205-.183.022-.008.037-.02.037-.042 0-.03-.05-.045-.087-.045M2.608-.272v-.447c0-.18-.136-.343-.309-.343a.46.46 0 0 0-.306.096c-.02.018-.05.052-.05.015v-.062c0-.047 0-.069-.029-.069-.025 0-.227.082-.257.097-.032.014-.071.034-.071.061s.024.042.051.052c.06.022.102.084.102.126v.48c0 .061-.028.138-.094.157q-.099.029-.097.065c0 .024.01.049.075.049.054 0 .17-.015.22-.015.039 0 .125.015.18.015.064 0 .071-.025.071-.05 0-.024-.027-.044-.094-.064-.046-.014-.056-.096-.056-.158l.002-.395c0-.188.099-.272.242-.272.129 0 .215.144.215.29v.377c0 .062-.012.146-.057.158q-.098.029-.096.065c0 .024.01.049.074.049.054 0 .133-.015.183-.015.04 0 .163.015.217.015.064 0 .067-.025.067-.05 0-.024-.022-.044-.09-.064-.066-.02-.093-.098-.093-.163" aria-label="[In" style="font-size:2.4697px;font-family:&quot;EB Garamond&quot;;white-space:pre" transform="translate(15.152 10.188)"/><path d="M.406-.402.42-.41C.514-.47.625-.545.625-.656c0-.08-.06-.15-.14-.15-.12 0-.242.093-.242.232 0 .054.016.115.036.162l.01.027-.013.008C.17-.309.062-.238.062-.13c0 .083.056.158.143.158.096 0 .27-.083.27-.214 0-.077-.029-.127-.06-.197zm-.233.241c0-.076.047-.126.111-.166l.024-.015.007.015a.4.4 0 0 1 .041.17c0 .086-.047.118-.102.118-.056 0-.08-.066-.08-.122M.52-.622c0 .074-.06.129-.12.167l-.015.009-.008-.018a.3.3 0 0 1-.035-.13c0-.06.04-.152.096-.152.057 0 .082.065.082.124" aria-label="8" style="font-style:italic;font-size:1.3862px;font-family:&quot;EB Garamond&quot;;white-space:pre" transform="translate(10.854 8.956)"/><path d="M.973-1.37c.104.034.156.08.099.251L.81-.395C.798-.358.79-.361.778-.398l-.296-.787c-.04-.11.049-.154.155-.188.022-.008.037-.02.037-.042 0-.03-.05-.045-.086-.045-.084 0-.22.013-.306.013-.09 0-.1-.013-.196-.013-.037 0-.086.015-.086.045 0 .022.017.034.04.042.155.052.18.128.222.242l.375.998c.037.103.074.17.094.17.032 0 .121-.22.163-.336l.306-.844c.04-.112.084-.193.198-.23.022-.008.042-.02.042-.042 0-.03-.05-.045-.087-.045s-.12.013-.158.013c-.037 0-.14-.013-.177-.013-.038 0-.087.015-.087.045 0 .022.02.037.042.044m.635.592c0-.05.101-.17.25-.17.07 0 .145.049.145.12 0 .035-.012.077-.037.077H1.64c-.03 0-.032-.01-.032-.027m.61-.027c0-.126-.158-.257-.326-.257a.526.526 0 0 0-.534.536c0 .279.153.546.428.546.242 0 .385-.119.385-.19q0-.036-.037-.035c-.025 0-.134.057-.257.057-.195 0-.311-.203-.311-.39 0-.042 0-.047.01-.074.007-.02.012-.025.047-.025h.52c.065 0 .075-.101.075-.168m.392.795c.04 0 .186.015.24.015.064 0 .084-.025.084-.05q-.001-.035-.101-.064a.18.18 0 0 1-.121-.158l.005-.481c0-.065.071-.116.128-.116.05 0 .124.069.16.069.013 0 .033-.015.04-.022.04-.04.074-.104.074-.141 0-.057-.04-.104-.14-.104a.37.37 0 0 0-.218.096c-.012.015-.05.052-.05.015v-.062c0-.047 0-.069-.029-.069-.025 0-.23.082-.257.097-.032.014-.071.034-.071.061s.024.042.051.052c.06.022.102.084.102.126v.48c0 .061-.027.138-.094.157-.067.02-.096.04-.096.065 0 .024.01.049.074.049.054 0 .173-.015.22-.015m.86-1.583a.136.136 0 1 0 0 .271.136.136 0 0 0 0-.271m-.089.847v.48c0 .061-.027.138-.094.157-.067.02-.109.04-.109.065 0 .024.023.049.087.049.054 0 .17-.015.22-.015.04 0 .163.015.217.015.064 0 .084-.025.084-.05 0-.024-.04-.044-.106-.064-.067-.02-.094-.096-.094-.158v-.743c0-.05 0-.072-.03-.072-.024 0-.23.082-.256.097-.033.014-.072.034-.072.061s.025.042.052.052c.059.022.101.084.101.126m.901.766c.149 0 .282-.121.282-.178q0-.036-.037-.035c-.025 0-.086.045-.178.045-.086 0-.128-.055-.128-.227v-.462c0-.035.01-.047.04-.047h.244c.034 0 .059-.064.059-.09 0-.024-.01-.056-.05-.056h-.239c-.032 0-.054-.012-.054-.037v-.07c0-.041-.005-.06-.035-.06-.032 0-.126.093-.16.123-.062.052-.166.12-.166.155 0 .025.057.035.08.035.09 0 .076.012.076.034v.588c0 .21.12.282.266.282M4.9-.324c0-.042.037-.09.123-.118l.119-.047c.027-.01.057-.01.057.017v.232c0 .06-.084.094-.153.094-.09 0-.146-.057-.146-.178m.183-.738c-.092 0-.186.057-.272.116a.24.24 0 0 0-.094.168c0 .02.005.084.02.084a.6.6 0 0 0 .138-.052C4.897-.76 4.9-.78 4.9-.842c0-.052.062-.072.113-.072.087 0 .18.064.18.15v.122c0 .025-.012.037-.056.057l-.324.136c-.074.032-.133.108-.133.232 0 .123.124.237.245.237a.38.38 0 0 0 .251-.106c.018-.018.02-.02.038.004.032.045.088.102.17.102.099 0 .222-.064.222-.153 0-.028-.007-.055-.022-.055-.017 0-.054.032-.089.032-.042 0-.089-.03-.089-.069V-.81c0-.131-.113-.252-.323-.252M6.095.02c.148 0 .282-.121.282-.178q0-.036-.037-.035c-.025 0-.087.045-.178.045-.087 0-.129-.055-.129-.227v-.462c0-.035.01-.047.04-.047h.244c.035 0 .06-.064.06-.09 0-.024-.01-.056-.05-.056h-.24c-.031 0-.054-.012-.054-.037v-.07c0-.041-.004-.06-.034-.06-.032 0-.126.093-.16.123-.062.052-.166.12-.166.155 0 .025.057.035.079.035.091 0 .076.012.076.034v.588c0 .21.121.282.267.282m.65-.798c0-.05.101-.17.25-.17.07 0 .145.049.145.12 0 .035-.012.077-.037.077h-.326c-.03 0-.032-.01-.032-.027m.61-.027c0-.126-.158-.257-.326-.257a.526.526 0 0 0-.534.536c0 .279.153.546.428.546.242 0 .385-.119.385-.19q0-.036-.037-.035c-.025 0-.134.057-.257.057-.195 0-.311-.203-.311-.39 0-.042 0-.047.01-.074.007-.02.012-.025.047-.025h.52c.065 0 .075-.101.075-.168M8.476-.9q-.007.002-.017-.012a.31.31 0 0 0-.255-.151.46.46 0 0 0-.306.096c-.02.018-.05.052-.05.015v-.062c0-.047 0-.069-.029-.069-.025 0-.23.082-.257.097-.032.014-.071.034-.071.061s.024.042.051.052c.06.022.102.084.102.126v.48c0 .061-.027.138-.094.157-.067.02-.096.04-.096.065 0 .024.01.049.074.049.054 0 .17-.015.22-.015.039 0 .125.015.18.015.064 0 .071-.025.071-.05 0-.024-.027-.044-.094-.064-.046-.014-.056-.096-.056-.158l.002-.395c0-.188.099-.272.242-.272.129 0 .215.144.215.29v.377c0 .062-.012.146-.057.158q-.098.029-.096.065c0 .024.01.049.074.049.054 0 .136-.015.183-.015.04 0 .126.015.18.015.064 0 .072-.025.072-.05 0-.024-.027-.044-.094-.064-.047-.014-.057-.096-.057-.158v-.395c0-.175.099-.272.245-.272.128 0 .214.144.214.29v.377c0 .062-.012.146-.056.158q-.099.029-.097.065c0 .024.01.049.074.049.055 0 .134-.015.183-.015.04 0 .163.015.217.015.065 0 .067-.025.067-.05 0-.024-.022-.044-.089-.064-.066-.02-.094-.098-.094-.163v-.447c0-.18-.135-.343-.308-.343a.46.46 0 0 0-.307.096c-.046.04-.074.067-.086.067" aria-label="Veritatem" style="font-size:2.4697px;font-family:&quot;EB Garamond&quot;;white-space:pre" transform="translate(15.152 46.545)"/><path fill="#292924" d="M16.024 3.587c.264 0 .432.144.432.356 0 .356-.452.732-.872.732-.264 0-.432-.144-.432-.356 0-.356.452-.732.872-.732"/><path d="M.05-20.257h.06a.05.05 0 0 1 .05.05v40.414a.05.05 0 0 1-.05.05H.05a.05.05 0 0 1-.05-.05v-40.414a.05.05 0 0 1 .05-.05" style="fill:#292924" transform="translate(9.292 22.838)"/><path fill="#292924" d="M8.042 2.58v-.348c0-.056.044-.1.1-.1h.2c.636 0 1.084-.544 1.448-1.08.048-.068.152.004.104.072-.396.576-.86 1.456-1.552 1.456ZM8.042 43.096h.3c.692 0 1.156.88 1.552 1.456.048.068-.056.14-.104.072-.364-.536-.812-1.08-1.448-1.08h-.2a.1.1 0 0 1-.1-.1Z"/><path d="M0-20.302h.45v40.604H0Z" style="fill:#292924" transform="translate(8.042 22.838)"/><path d="M.585-1.111v.854c0 .081-.028.125-.103.158C.433-.077.36-.066.36-.033c0 .022.048.035.072.037.016 0 .146-.013.249-.013.106 0 .25.013.266.013.024-.002.07-.015.07-.037 0-.033-.072-.044-.12-.066C.823-.132.794-.176.794-.257v-.854c0-.022.005-.068.027-.068h.34c.031 0 .06.028.08.061.024.042.057.1.079.1.026 0 .03-.018.03-.051 0-.024-.004-.1-.004-.152 0-.048.01-.075.01-.095a.04.04 0 0 0-.04-.04c-.027 0-.038.018-.064.034a.27.27 0 0 1-.154.037H.33c-.121 0-.176-.066-.209-.066-.022 0-.037.027-.037.055 0 .022.004.064.004.1 0 .07-.011.087-.011.138 0 .02.011.05.04.05s.046-.061.07-.105c.022-.04.037-.066.095-.066H.55q.034.001.035.068m.913.418c0-.044.09-.152.222-.152.064 0 .13.044.13.108 0 .03-.01.068-.033.068h-.29c-.027 0-.029-.009-.029-.024m.544-.024c0-.112-.141-.229-.29-.229a.47.47 0 0 0-.476.477c0 .249.136.487.38.487.216 0 .344-.106.344-.17q0-.031-.033-.03c-.022 0-.119.05-.229.05-.174 0-.277-.18-.277-.348 0-.037 0-.041.009-.066.006-.017.01-.022.041-.022h.465c.057 0 .066-.09.066-.15m1.031.475V-.64c0-.16-.12-.306-.275-.306-.114 0-.2.026-.272.086-.018.015-.044.046-.044.013v-.055c0-.042 0-.062-.027-.062-.022 0-.202.073-.229.086-.028.013-.063.031-.063.055s.022.038.046.046c.053.02.09.075.09.113v.426c0 .055-.024.124-.084.141q-.087.026-.085.057c0 .022.008.044.066.044.048 0 .151-.013.195-.013.036 0 .113.013.161.013.057 0 .064-.022.064-.044s-.024-.04-.084-.057c-.042-.013-.05-.086-.05-.14l.002-.353c0-.167.088-.242.215-.242.115 0 .192.128.192.258v.336c0 .055-.011.13-.05.141q-.089.026-.087.057c0 .022.01.044.066.044.049 0 .12-.013.163-.013.035 0 .145.013.194.013.057 0 .06-.022.06-.044s-.02-.04-.08-.057-.084-.088-.084-.145m.476-.28c0-.158.083-.332.242-.332.191 0 .292.212.292.407 0 .163-.068.361-.23.361-.205 0-.304-.229-.304-.435m.257-.424a.49.49 0 0 0-.477.473c0 .262.198.49.466.49.282 0 .506-.24.506-.523 0-.255-.24-.44-.495-.44m.851.937c.036 0 .165.013.214.013.057 0 .075-.022.075-.044q0-.032-.09-.057a.16.16 0 0 1-.108-.14l.004-.43c0-.057.064-.103.114-.103.044 0 .11.062.143.062.011 0 .029-.014.036-.02.035-.035.066-.093.066-.126 0-.05-.036-.092-.126-.092a.33.33 0 0 0-.193.086c-.011.013-.044.046-.044.013v-.055c0-.042 0-.062-.027-.062a2 2 0 0 0-.229.086c-.028.013-.063.031-.063.055s.022.038.046.046c.053.02.09.075.09.113v.426c0 .055-.024.124-.084.141q-.087.026-.085.057c0 .022.008.044.066.044.048 0 .154-.013.195-.013" aria-label="Tenor" style="font-size:2.2px;font-family:&quot;EB Garamond&quot;;white-space:pre" transform="translate(.913 41.714)"/><path d="m1.564-.284-.037-.726c-.007-.125.017-.17.086-.198.088-.037.105-.044.105-.066q.002-.035-.035-.037c-.07 0-.222.022-.28.022-.057 0-.087 0-.112.05L.946-.52c-.042.083-.05.048-.068.002L.62-1.151C.58-1.25.541-1.289.482-1.289.38-1.29.317-1.3.238-1.3c-.027 0-.075-.002-.075.03 0 .036.079.069.119.106.055.05.09.093.07.249L.277-.33C.262-.22.224-.132.15-.099c-.051.022-.121.033-.121.066 0 .022.048.035.072.037.016 0 .1-.013.203-.013.105 0 .202.013.217.013.025-.002.07-.015.07-.037 0-.033-.072-.044-.12-.066C.414-.125.398-.233.403-.293L.44-.906C.442-.961.462-.992.495-.91l.27.693c.047.12.064.137.086.137.02 0 .113-.19.121-.21L1.27-.97c.016-.04.055-.049.058-.007l.028.693c.005.082-.028.152-.103.185-.049.022-.121.033-.121.066 0 .022.048.035.072.037.016 0 .146-.013.249-.013.106 0 .25.013.266.013.024-.002.07-.015.07-.037 0-.033-.072-.044-.12-.066-.075-.033-.1-.103-.104-.185m.471-.237c0-.159.084-.333.242-.333.191 0 .293.212.293.407 0 .163-.069.361-.231.361-.205 0-.304-.229-.304-.435m.257-.425a.49.49 0 0 0-.477.473c0 .262.198.49.466.49.282 0 .506-.24.506-.523 0-.255-.24-.44-.495-.44m.955.964c.132 0 .251-.108.251-.159q0-.031-.033-.03c-.022 0-.077.039-.158.039-.077 0-.115-.048-.115-.202v-.412c0-.03.009-.042.035-.042h.218c.031 0 .053-.057.053-.079s-.009-.05-.044-.05h-.213c-.029 0-.049-.011-.049-.033v-.062c0-.037-.004-.055-.03-.055-.03 0-.113.084-.144.11-.055.046-.147.108-.147.139 0 .022.05.03.07.03.082 0 .069.011.069.031v.524c0 .187.107.25.237.25m.579-.711c0-.044.09-.152.222-.152.064 0 .13.044.13.108 0 .03-.011.068-.033.068h-.29c-.027 0-.03-.009-.03-.024m.543-.024c0-.112-.14-.229-.29-.229a.47.47 0 0 0-.475.477c0 .249.136.487.38.487.216 0 .343-.106.343-.17q0-.031-.033-.03c-.022 0-.118.05-.228.05-.174 0-.278-.18-.278-.348 0-.037 0-.041.01-.066.006-.017.01-.022.041-.022h.464c.057 0 .066-.09.066-.15m.453.735c.132 0 .251-.108.251-.159q0-.031-.033-.03c-.022 0-.077.039-.158.039-.077 0-.115-.048-.115-.202v-.412q-.002-.044.036-.042h.217c.031 0 .053-.057.053-.079s-.009-.05-.044-.05h-.213c-.029 0-.049-.011-.049-.033v-.062c0-.037-.004-.055-.03-.055-.029 0-.113.084-.143.11-.055.046-.148.108-.148.139 0 .022.05.03.07.03.082 0 .069.011.069.031v.524c0 .187.108.25.237.25m.99-.73v.415c0 .097-.099.17-.22.17-.1 0-.154-.1-.154-.205v-.555c0-.041 0-.059-.026-.059-.022 0-.114.029-.202.044-.031.004-.06.022-.06.046s.022.042.046.05c.053.02.06.073.06.11v.436c0 .128.09.269.218.269.127 0 .198-.02.297-.1.028-.023.035-.037.044.003.006.03.006.062.013.084.002.01.013.03.03.03.034 0 .214-.052.254-.072.017-.009.04-.027.04-.055 0-.016-.018-.035-.03-.035-.017 0-.063.013-.092.013-.022 0-.035-.007-.035-.029v-.735c0-.041 0-.059-.026-.059-.022 0-.168.024-.247.035-.03.005-.064.031-.064.055s.025.038.051.042c.062.009.103.04.103.101m.718-.234a.28.28 0 0 0-.282.275c0 .11.086.178.185.246l.105.075c.053.04.1.062.1.159 0 .066-.064.11-.13.11-.073 0-.141-.025-.17-.084-.03-.068-.075-.088-.097-.088s-.024.033-.024.07c0 .033.027.11.038.139s.022.03.055.044a.5.5 0 0 0 .145.018c.18 0 .332-.135.332-.322 0-.077-.046-.127-.106-.176l-.18-.136c-.05-.035-.095-.073-.095-.134 0-.055.047-.095.102-.095.068 0 .132.038.15.088.01.044.043.055.065.055.027 0 .027-.022.027-.048a1 1 0 0 0-.011-.108c-.007-.022-.011-.029-.025-.035-.07-.029-.116-.053-.184-.053" aria-label="Motetus" style="font-size:2.2px;font-family:&quot;EB Garamond&quot;;white-space:pre" transform="translate(.06 23.48)"/><path d="M.585-1.111v.854c0 .081-.028.125-.103.158C.433-.077.36-.066.36-.033c0 .022.048.035.072.037.016 0 .146-.013.249-.013.106 0 .25.013.266.013.024-.002.07-.015.07-.037 0-.033-.072-.044-.12-.066C.823-.132.794-.176.794-.257v-.854c0-.022.005-.068.027-.068h.34c.031 0 .06.028.08.061.024.042.057.1.079.1.026 0 .03-.018.03-.051 0-.024-.004-.1-.004-.152 0-.048.01-.075.01-.095a.04.04 0 0 0-.04-.04c-.027 0-.038.018-.064.034a.27.27 0 0 1-.154.037H.33c-.121 0-.176-.066-.209-.066-.022 0-.037.027-.037.055 0 .022.004.064.004.1 0 .07-.011.087-.011.138 0 .02.011.05.04.05s.046-.061.07-.105c.022-.04.037-.066.095-.066H.55q.034.001.035.068m.98 1.102c.034 0 .164.013.213.013.057 0 .074-.022.074-.044q0-.032-.09-.057a.16.16 0 0 1-.108-.14l.005-.43c0-.057.064-.103.114-.103.044 0 .11.062.143.062.011 0 .029-.014.035-.02.036-.035.066-.093.066-.126 0-.05-.035-.092-.125-.092a.33.33 0 0 0-.194.086c-.01.013-.044.046-.044.013v-.055c0-.042 0-.062-.026-.062a2 2 0 0 0-.229.086c-.028.013-.064.031-.064.055s.022.038.047.046c.052.02.09.075.09.113v.426c0 .055-.024.124-.084.141-.06.018-.086.035-.086.057s.01.044.066.044c.049 0 .154-.013.196-.013m.765-1.41a.121.121 0 1 0 0 .242.121.121 0 0 0 0-.242m-.08.755v.426c0 .055-.024.124-.083.141-.06.018-.097.035-.097.057s.02.044.077.044c.049 0 .152-.013.196-.013.035 0 .145.013.194.013.057 0 .074-.022.074-.044s-.035-.04-.094-.057c-.06-.017-.084-.086-.084-.14V-.9c0-.044 0-.064-.026-.064a2 2 0 0 0-.229.086c-.029.013-.064.031-.064.055s.022.038.046.046c.053.02.09.075.09.113m.72-.011a.16.16 0 0 1 .165-.157c.191 0 .242.185.242.368 0 .18-.077.365-.249.365-.081 0-.158-.035-.158-.117zM2.787.355c0 .054-.01.107-.04.116-.059.017-.096.035-.096.057s.02.044.077.044c.205 0 .337.029.411.029.058 0 .075-.022.075-.044S3.18.517 3.12.499C3 .466 2.97.45 2.97.372V.018c0-.02.002-.031.022-.031.009 0 .042.026.086.026.292 0 .501-.28.501-.578 0-.185-.147-.381-.33-.381a.43.43 0 0 0-.248.088c-.018.018-.029.007-.031-.004v-.04c0-.042 0-.062-.026-.062a2 2 0 0 0-.23.086c-.028.013-.063.031-.063.055s.022.038.046.046c.053.02.09.075.09.113zm1.056-1.602v1.01c0 .054-.024.123-.083.14s-.097.035-.097.057.02.044.077.044c.048 0 .152-.013.196-.013.035 0 .145.013.193.013.058 0 .075-.022.075-.044S4.17-.08 4.11-.097c-.06-.017-.084-.086-.084-.14V-1.44c0-.042 0-.06-.026-.06-.022 0-.141.038-.23.054-.03.004-.063.022-.063.046s.026.042.05.05c.053.02.086.064.086.102m1.078.534v.416c0 .097-.099.17-.22.17-.1 0-.154-.1-.154-.205v-.555c0-.041 0-.059-.026-.059-.022 0-.114.029-.202.044-.031.004-.06.022-.06.046s.022.042.046.05c.053.02.06.073.06.11v.436c0 .128.09.269.218.269.127 0 .198-.02.297-.1.028-.023.035-.037.044.003.006.03.006.062.013.084.002.01.013.03.03.03.034 0 .214-.052.254-.072.017-.009.04-.027.04-.055 0-.016-.018-.035-.03-.035-.017 0-.063.013-.092.013-.022 0-.035-.007-.035-.029v-.735c0-.041 0-.059-.026-.059-.022 0-.168.024-.247.035-.03.005-.064.031-.064.055s.025.038.051.042c.062.009.103.04.103.101M6.235-.8q-.007.001-.016-.01a.27.27 0 0 0-.226-.135c-.115 0-.2.026-.273.086-.018.015-.044.046-.044.013v-.055c0-.042 0-.062-.026-.062a2 2 0 0 0-.23.086c-.028.013-.063.031-.063.055s.022.038.046.046c.053.02.09.075.09.113v.426c0 .055-.024.124-.083.141q-.088.026-.086.057c0 .022.009.044.066.044.048 0 .152-.013.196-.013.035 0 .112.013.16.013.058 0 .064-.022.064-.044s-.024-.04-.083-.057c-.042-.013-.051-.086-.051-.14l.002-.353c0-.167.088-.242.216-.242.114 0 .191.128.191.258v.336c0 .055-.01.13-.05.141q-.088.026-.086.057c0 .022.009.044.066.044.048 0 .12-.013.163-.013.035 0 .112.013.16.013.057 0 .064-.022.064-.044s-.024-.04-.084-.057c-.041-.013-.05-.086-.05-.14V-.59c0-.156.088-.242.218-.242.114 0 .191.128.191.258v.336c0 .055-.011.13-.05.141q-.088.026-.086.057c0 .022.008.044.066.044.048 0 .118-.013.162-.013.036 0 .146.013.194.013.057 0 .06-.022.06-.044s-.02-.04-.08-.057-.083-.088-.083-.145V-.64c0-.16-.121-.306-.275-.306-.115 0-.2.026-.273.086-.042.035-.066.06-.077.06" aria-label="Triplum" style="font-size:2.2px;font-family:&quot;EB Garamond&quot;;white-space:pre" transform="translate(-.077 5.08)"/><path d="M-.025-2h.05a.04.04 0 0 1 .04.04v3.234a.04.04 0 0 1-.04.04h-.05a.04.04 0 0 1-.04-.04V-1.96A.04.04 0 0 1-.025-2" style="fill:#292924" transform="translate(16.391 41.045)"/><path d="M-.025-.314h.05a.04.04 0 0 1 .04.04V2.77a.04.04 0 0 1-.04.04h-.05a.04.04 0 0 1-.04-.04V-.274a.04.04 0 0 1 .04-.04" style="fill:#292924" transform="translate(20.76 4.63)"/><path fill="#292924" d="M21.568 42.001c.263 0 .431.144.431.356 0 .356-.452.732-.872.732-.264 0-.432-.144-.432-.356 0-.356.452-.732.872-.732M21.568 20.294c.263 0 .431.144.431.356 0 .356-.452.732-.872.732-.264 0-.432-.144-.432-.356 0-.356.452-.732.872-.732M21.568 3.587c.263 0 .431.144.431.356 0 .356-.452.732-.872.732-.264 0-.432-.144-.432-.356 0-.356.452-.732.872-.732M65.704 21.794c.264 0 .432.144.432.356 0 .356-.452.732-.872.732-.264 0-.432-.144-.432-.356 0-.356.452-.732.872-.732M16.906 42.545a.224.224 0 1 1 .447 0 .224.224 0 0 1-.447 0"/><path d="M-.025-1.814h.05a.04.04 0 0 1 .04.04V1.46a.04.04 0 0 1-.04.04h-.05a.04.04 0 0 1-.04-.04v-3.234a.04.04 0 0 1 .04-.04" style="fill:#292924" transform="translate(15.217 22.838)"/><path fill="#292924" d="M16.906 20.338a.224.224 0 1 1 .447 0 .224.224 0 0 1-.447 0"/><path d="M-.025-.314h.05a.04.04 0 0 1 .04.04V2.96a.04.04 0 0 1-.04.04h-.05a.04.04 0 0 1-.04-.04V-.274a.04.04 0 0 1 .04-.04" style="fill:#292924" transform="translate(15.217 4.63)"/><path fill="#292924" d="M16.906 4.13a.224.224 0 1 1 .447 0 .224.224 0 0 1-.447 0"/><path d="M-.025-1.814h.05a.04.04 0 0 1 .04.04v2.93a.04.04 0 0 1-.04.04h-.05a.04.04 0 0 1-.04-.04v-2.93a.04.04 0 0 1 .04-.04" style="fill:#292924" transform="translate(54.471 4.63)"/><path fill="#292924" d="M55.279 41.001c.263 0 .431.144.431.356 0 .356-.451.732-.871.732-.264 0-.432-.144-.432-.356 0-.356.452-.732.872-.732M55.279 22.794c.263 0 .431.144.431.356 0 .356-.451.732-.871.732-.264 0-.432-.144-.432-.356 0-.356.452-.732.872-.732"/><path d="M.366-.758A.18.18 0 0 1 .55-.934c.215 0 .271.208.271.413 0 .202-.086.41-.279.41-.091 0-.177-.04-.177-.131zM.16.398c0 .061-.013.12-.045.13C.05.549.007.569.007.594c0 .024.023.05.087.05.23 0 .378.031.462.031C.62.674.64.65.64.624.64.6.6.58.533.562.4.524.366.504.366.417V.02c0-.022.002-.035.024-.035.01 0 .047.03.097.03.328 0 .563-.314.563-.65 0-.207-.166-.427-.37-.427a.5.5 0 0 0-.28.099c-.02.02-.032.007-.034-.005v-.045c0-.047 0-.069-.03-.069-.025 0-.23.082-.257.097-.032.014-.072.034-.072.061s.025.042.052.052c.06.022.102.084.102.126zM1.413-.778c0-.05.1-.17.25-.17.07 0 .145.049.145.12 0 .035-.013.077-.037.077h-.326c-.03 0-.032-.01-.032-.027m.61-.027c0-.126-.158-.257-.326-.257a.526.526 0 0 0-.534.536c0 .279.153.546.427.546.243 0 .386-.119.386-.19q0-.036-.037-.035c-.025 0-.134.057-.257.057-.195 0-.311-.203-.311-.39 0-.042 0-.047.01-.074.007-.02.012-.025.046-.025h.522c.064 0 .074-.101.074-.168" aria-label="pe" style="font-size:2.4697px;font-family:&quot;EB Garamond&quot;;white-space:pre" transform="translate(54.407 10.188)"/><path fill="#292924" d="M55.279 2.087c.263 0 .431.144.431.356 0 .356-.451.732-.871.732-.264 0-.432-.144-.432-.356 0-.356.452-.732.872-.732"/><path d="M-.025-3h.05a.04.04 0 0 1 .04.04V.274a.04.04 0 0 1-.04.04h-.05a.04.04 0 0 1-.04-.04V-2.96A.04.04 0 0 1-.025-3" style="fill:#292924" transform="translate(50.45 41.045)"/><path fill="#292924" d="M50.965 41.545a.224.224 0 1 1 .447 0 .224.224 0 0 1-.447 0"/><path d="M-.025-3h.05a.04.04 0 0 1 .04.04V.274a.04.04 0 0 1-.04.04h-.05a.04.04 0 0 1-.04-.04V-2.96A.04.04 0 0 1-.025-3" style="fill:#292924" transform="translate(50.45 22.838)"/><path fill="#292924" d="M50.965 23.338a.224.224 0 1 1 .447 0 .224.224 0 0 1-.447 0M35.54 6.09h-.064v-1h.064Zm0 0v-1c.388-.235.896-.591.896-1.035 0-.228-.06-.448-.16-.652-.012-.064.04-.108.092-.108.028 0 .06.012.08.044.1.224.16.468.16.716 0 .812-1.068 1.224-1.068 2.036M50.965 3.13a.224.224 0 1 1 .447 0 .224.224 0 0 1-.447 0M50.083 41.001c.264 0 .432.144.432.356 0 .356-.452.732-.872.732-.264 0-.432-.144-.432-.356 0-.356.452-.732.872-.732"/><path d="M.366-.758A.18.18 0 0 1 .55-.934c.215 0 .271.208.271.413 0 .202-.086.41-.279.41-.091 0-.177-.04-.177-.131zM.16.398c0 .061-.013.12-.045.13C.05.549.007.569.007.594c0 .024.023.05.087.05.23 0 .378.031.462.031C.62.674.64.65.64.624.64.6.6.58.533.562.4.524.366.504.366.417V.02c0-.022.002-.035.024-.035.01 0 .047.03.097.03.328 0 .563-.314.563-.65 0-.207-.166-.427-.37-.427a.5.5 0 0 0-.28.099c-.02.02-.032.007-.034-.005v-.045c0-.047 0-.069-.03-.069-.025 0-.23.082-.257.097-.032.014-.072.034-.072.061s.025.042.052.052c.06.022.102.084.102.126zM1.413-.778c0-.05.1-.17.25-.17.07 0 .145.049.145.12 0 .035-.013.077-.037.077h-.326c-.03 0-.032-.01-.032-.027m.61-.027c0-.126-.158-.257-.326-.257a.526.526 0 0 0-.534.536c0 .279.153.546.427.546.243 0 .386-.119.386-.19q0-.036-.037-.035c-.025 0-.134.057-.257.057-.195 0-.311-.203-.311-.39 0-.042 0-.047.01-.074.007-.02.012-.025.046-.025h.522c.064 0 .074-.101.074-.168" aria-label="pe" style="font-size:2.4697px;font-family:&quot;EB Garamond&quot;;white-space:pre" transform="translate(49.21 28.338)"/><path fill="#292924" d="M50.083 22.794c.264 0 .432.144.432.356 0 .356-.452.732-.872.732-.264 0-.432-.144-.432-.356 0-.356.452-.732.872-.732"/><path d="M.501.02C.743.02.887-.1.887-.17q0-.036-.037-.035c-.025 0-.146.057-.26.057-.21 0-.306-.232-.306-.45 0-.163.104-.348.252-.348.052 0 .084.045.126.087.054.054.116.088.16.088.057 0 .104-.037.104-.096C.926-.899.892-.94.845-.98c-.04-.033-.116-.082-.29-.082-.283 0-.498.282-.498.58C.057-.22.237.02.5.02m.768-.605c0-.178.094-.373.272-.373.215 0 .329.237.329.457 0 .182-.077.405-.26.405-.23 0-.34-.257-.34-.49m.29-.477a.55.55 0 0 0-.537.531c0 .294.223.55.524.55a.58.58 0 0 0 .568-.587c0-.287-.27-.494-.556-.494m1.684.163q-.007.002-.018-.012a.31.31 0 0 0-.254-.151.46.46 0 0 0-.306.096c-.02.018-.05.052-.05.015v-.062c0-.047 0-.069-.03-.069-.024 0-.229.082-.256.097-.032.014-.072.034-.072.061s.025.042.052.052c.06.022.101.084.101.126v.48c0 .061-.027.138-.093.157q-.099.029-.097.065c0 .024.01.049.074.049.055 0 .17-.015.22-.015.04 0 .126.015.18.015.065 0 .072-.025.072-.05 0-.024-.027-.044-.094-.064-.047-.014-.057-.096-.057-.158l.003-.395c0-.188.099-.272.242-.272.128 0 .215.144.215.29v.377c0 .062-.013.146-.057.158-.067.02-.096.04-.096.065 0 .024.01.049.074.049.054 0 .136-.015.182-.015.04 0 .126.015.18.015.065 0 .072-.025.072-.05 0-.024-.027-.044-.093-.064-.047-.014-.057-.096-.057-.158v-.395c0-.175.099-.272.244-.272.129 0 .215.144.215.29v.377c0 .062-.012.146-.057.158q-.098.029-.096.065c0 .024.01.049.074.049.054 0 .133-.015.183-.015.04 0 .163.015.217.015.064 0 .067-.025.067-.05 0-.024-.022-.044-.089-.064s-.094-.098-.094-.163v-.447c0-.18-.136-.343-.309-.343a.46.46 0 0 0-.306.096c-.047.04-.074.067-.086.067" aria-label="com" style="font-size:2.4697px;font-family:&quot;EB Garamond&quot;;white-space:pre" transform="translate(47.78 10.188)"/><path fill="#292924" d="M50.083 2.587c.264 0 .432.144.432.356 0 .356-.452.732-.872.732-.264 0-.432-.144-.432-.356 0-.356.452-.732.872-.732"/><path d="M.343-.01c.04 0 .186.015.24.015.064 0 .084-.025.084-.05Q.666-.08.566-.108a.18.18 0 0 1-.121-.158l.004-.481c0-.065.072-.116.129-.116.05 0 .123.069.16.069.013 0 .033-.015.04-.022.04-.04.074-.104.074-.141 0-.057-.04-.104-.14-.104a.37.37 0 0 0-.218.096c-.012.015-.05.052-.05.015v-.062c0-.047 0-.069-.03-.069-.024 0-.229.082-.256.097-.032.014-.072.034-.072.061s.025.042.052.052c.06.022.102.084.102.126v.48c0 .061-.028.138-.094.157Q.047-.08.049-.044c0 .024.01.049.074.049.055 0 .173-.015.22-.015m.86-1.583a.136.136 0 1 0 0 .271.136.136 0 0 0 0-.271m-.09.847v.48c0 .061-.026.138-.093.157-.067.02-.109.04-.109.065 0 .024.023.049.087.049.054 0 .17-.015.22-.015.04 0 .163.015.217.015.064 0 .084-.025.084-.05 0-.024-.04-.044-.106-.064-.067-.02-.094-.096-.094-.158v-.743c0-.05 0-.072-.03-.072-.025 0-.23.082-.257.097C1-.971.961-.951.961-.924s.024.042.052.052c.059.022.1.084.1.126" aria-label="ri" style="font-size:2.4697px;font-family:&quot;EB Garamond&quot;;white-space:pre" transform="translate(64.699 28.338)"/><path d="M.343-.01c.04 0 .186.015.24.015.064 0 .084-.025.084-.05Q.666-.08.566-.108a.18.18 0 0 1-.121-.158l.004-.481c0-.065.072-.116.129-.116.05 0 .123.069.16.069.013 0 .033-.015.04-.022.04-.04.074-.104.074-.141 0-.057-.04-.104-.14-.104a.37.37 0 0 0-.218.096c-.012.015-.05.052-.05.015v-.062c0-.047 0-.069-.03-.069-.024 0-.229.082-.256.097-.032.014-.072.034-.072.061s.025.042.052.052c.06.022.102.084.102.126v.48c0 .061-.028.138-.094.157Q.047-.08.049-.044c0 .024.01.049.074.049.055 0 .173-.015.22-.015m.86-1.583a.136.136 0 1 0 0 .271.136.136 0 0 0 0-.271m-.09.847v.48c0 .061-.026.138-.093.157-.067.02-.109.04-.109.065 0 .024.023.049.087.049.054 0 .17-.015.22-.015.04 0 .163.015.217.015.064 0 .084-.025.084-.05 0-.024-.04-.044-.106-.064-.067-.02-.094-.096-.094-.158v-.743c0-.05 0-.072-.03-.072-.025 0-.23.082-.257.097C1-.971.961-.951.961-.924s.024.042.052.052c.059.022.1.084.1.126" aria-label="ri" style="font-size:2.4697px;font-family:&quot;EB Garamond&quot;;white-space:pre" transform="translate(64.699 10.188)"/><path fill="#292924" d="M65.704 3.587c.264 0 .432.144.432.356 0 .356-.452.732-.872.732-.264 0-.432-.144-.432-.356 0-.356.452-.732.872-.732M61.487 26.173h-.064v-1h.064Zm0 0v-1c.388-.236.896-.592.896-1.036 0-.228-.06-.448-.16-.652-.012-.064.04-.108.092-.108.028 0 .06.012.08.044.1.224.16.468.16.716 0 .812-1.068 1.224-1.068 2.036"/><path d="M-.025.186h.05a.04.04 0 0 1 .04.04v3.109a.04.04 0 0 1-.04.04h-.05a.04.04 0 0 1-.04-.04V.226a.04.04 0 0 1 .04-.04" style="fill:#292924" transform="translate(61.422 22.838)"/><path d="M-.025-.814h.05a.04.04 0 0 1 .04.04v2.538a.04.04 0 0 1-.04.04h-.05a.04.04 0 0 1-.04-.04V-.774a.04.04 0 0 1 .04-.04" style="fill:#292924" transform="translate(61.422 4.63)"/><path fill="#292924" d="M62.229 22.294c.264 0 .432.144.432.356 0 .356-.452.732-.872.732-.264 0-.432-.144-.432-.356 0-.356.452-.732.872-.732M62.229 3.087c.264 0 .432.144.432.356 0 .356-.452.732-.872.732-.264 0-.432-.144-.432-.356 0-.356.452-.732.872-.732"/><path d="M-.025-1.314h.05a.04.04 0 0 1 .04.04V1.96a.04.04 0 0 1-.04.04h-.05a.04.04 0 0 1-.04-.04v-3.234a.04.04 0 0 1 .04-.04" style="fill:#292924" transform="translate(49.276 4.63)"/><path d="M-.025-1.314h.05a.04.04 0 0 1 .04.04V1.46a.04.04 0 0 1-.04.04h-.05a.04.04 0 0 1-.04-.04v-2.734a.04.04 0 0 1 .04-.04" style="fill:#292924" transform="translate(57.947 4.63)"/><path fill="#292924" d="M58.754 2.587c.264 0 .432.144.432.356 0 .356-.452.732-.872.732-.264 0-.432-.144-.432-.356 0-.356.452-.732.872-.732"/><path d="M-.025-3h.05a.04.04 0 0 1 .04.04V.274a.04.04 0 0 1-.04.04h-.05a.04.04 0 0 1-.04-.04V-2.96A.04.04 0 0 1-.025-3" style="fill:#292924" transform="translate(55.646 41.045)"/><path fill="#292924" d="M56.16 41.545a.224.224 0 1 1 .448 0 .224.224 0 0 1-.447 0"/><path d="M-.025-3h.05a.04.04 0 0 1 .04.04V.274a.04.04 0 0 1-.04.04h-.05a.04.04 0 0 1-.04-.04V-2.96A.04.04 0 0 1-.025-3" style="fill:#292924" transform="translate(55.646 22.838)"/><path d="M-.025-1.314h.05a.04.04 0 0 1 .04.04v3.33a.04.04 0 0 1-.04.04h-.05a.04.04 0 0 1-.04-.04v-3.33a.04.04 0 0 1 .04-.04" style="fill:#292924" transform="translate(42.425 22.838)"/><path d="M.46.02c.148 0 .28-.121.28-.178q0-.036-.036-.035c-.025 0-.087.045-.178.045-.086 0-.128-.055-.128-.227v-.462c0-.035.01-.047.04-.047h.244c.034 0 .059-.064.059-.09 0-.024-.01-.056-.05-.056H.453c-.032 0-.054-.012-.054-.037v-.07c0-.041-.005-.06-.035-.06-.032 0-.126.093-.16.123-.062.052-.166.12-.166.155 0 .025.057.035.08.035.09 0 .076.012.076.034v.588c0 .21.12.282.266.282m.649-.798c0-.05.101-.17.25-.17.071 0 .145.049.145.12 0 .035-.012.077-.037.077h-.326c-.03 0-.032-.01-.032-.027m.61-.027c0-.126-.158-.257-.326-.257a.526.526 0 0 0-.534.536c0 .279.154.546.428.546.242 0 .385-.119.385-.19q0-.036-.037-.035c-.025 0-.133.057-.257.057-.195 0-.311-.203-.311-.39 0-.042 0-.047.01-.074.007-.02.012-.025.047-.025h.52c.065 0 .075-.101.075-.168" aria-label="te" style="font-size:2.4697px;font-family:&quot;EB Garamond&quot;;white-space:pre" transform="translate(42.124 28.338)"/><path fill="#292924" d="M43.232 20.794c.264 0 .432.144.432.356 0 .356-.452.732-.872.732-.264 0-.432-.144-.432-.356 0-.356.452-.732.872-.732M40.285 40.545a.224.224 0 1 1 .447 0 .224.224 0 0 1-.447 0"/><path d="M-.025-.814h.05a.04.04 0 0 1 .04.04v2.736a.04.04 0 0 1-.04.04h-.05a.04.04 0 0 1-.04-.04V-.774a.04.04 0 0 1 .04-.04" style="fill:#292924" transform="translate(38.95 22.838)"/><path d="M-.025-1.314h.05a.04.04 0 0 1 .04.04V1.96a.04.04 0 0 1-.04.04h-.05a.04.04 0 0 1-.04-.04v-3.234a.04.04 0 0 1 .04-.04" style="fill:#292924" transform="translate(38.95 4.63)"/><path fill="#292924" d="M38.861 40.733c0-.236.496-.332.496-.728a.43.43 0 0 0-.1-.276l-.14-.168a.06.06 0 0 1-.016-.04c0-.036.036-.06.068-.06.016 0 .032.004.044.02l.604.72a.16.16 0 0 1 .04.1c0 .236-.496.332-.496.728 0 .096.028.196.096.276l.336.396a.06.06 0 0 1 .016.04.066.066 0 0 1-.064.064c-.032 0-.18-.176-.436-.176-.064 0-.212 0-.212.268 0 .14.044.296.112.376.028.032-.02.076-.048.044-.18-.216-.368-.592-.368-.808 0-.164.108-.168.16-.168.132 0 .312.052.476.124l-.528-.632a.16.16 0 0 1-.04-.1"/><path d="M.46.02c.148 0 .28-.121.28-.178q0-.036-.036-.035c-.025 0-.087.045-.178.045-.086 0-.128-.055-.128-.227v-.462c0-.035.01-.047.04-.047h.244c.034 0 .059-.064.059-.09 0-.024-.01-.056-.05-.056H.453c-.032 0-.054-.012-.054-.037v-.07c0-.041-.005-.06-.035-.06-.032 0-.126.093-.16.123-.062.052-.166.12-.166.155 0 .025.057.035.08.035.09 0 .076.012.076.034v.588c0 .21.12.282.266.282m.617-.344c0-.042.037-.09.123-.118L1.32-.49c.027-.01.057-.01.057.017v.232c0 .06-.084.094-.154.094-.088 0-.145-.057-.145-.178m.183-.738c-.092 0-.186.057-.272.116a.24.24 0 0 0-.094.168c0 .02.005.084.02.084a.6.6 0 0 0 .138-.052c.022-.015.025-.034.025-.096 0-.052.062-.072.113-.072.087 0 .18.064.18.15v.122c0 .025-.012.037-.056.057L.99-.45c-.074.032-.133.108-.133.232 0 .123.123.237.244.237a.38.38 0 0 0 .252-.106c.018-.018.02-.02.037.004.033.045.09.102.17.102.1 0 .223-.064.223-.153 0-.028-.007-.055-.022-.055-.017 0-.054.032-.089.032-.042 0-.089-.03-.089-.069V-.81c0-.131-.114-.252-.323-.252" aria-label="ta" style="font-size:2.4697px;font-family:&quot;EB Garamond&quot;;white-space:pre" transform="translate(38.615 28.338)"/><path fill="#292924" d="M39.757 21.294c.264 0 .432.144.432.356 0 .356-.452.732-.872.732-.264 0-.432-.144-.432-.356 0-.356.452-.732.872-.732"/><path d="M.46.02c.148 0 .28-.121.28-.178q0-.036-.036-.035c-.025 0-.087.045-.178.045-.086 0-.128-.055-.128-.227v-.462c0-.035.01-.047.04-.047h.244c.034 0 .059-.064.059-.09 0-.024-.01-.056-.05-.056H.453c-.032 0-.054-.012-.054-.037v-.07c0-.041-.005-.06-.035-.06-.032 0-.126.093-.16.123-.062.052-.166.12-.166.155 0 .025.057.035.08.035.09 0 .076.012.076.034v.588c0 .21.12.282.266.282m.617-.344c0-.042.037-.09.123-.118L1.32-.49c.027-.01.057-.01.057.017v.232c0 .06-.084.094-.154.094-.088 0-.145-.057-.145-.178m.183-.738c-.092 0-.186.057-.272.116a.24.24 0 0 0-.094.168c0 .02.005.084.02.084a.6.6 0 0 0 .138-.052c.022-.015.025-.034.025-.096 0-.052.062-.072.113-.072.087 0 .18.064.18.15v.122c0 .025-.012.037-.056.057L.99-.45c-.074.032-.133.108-.133.232 0 .123.123.237.244.237a.38.38 0 0 0 .252-.106c.018-.018.02-.02.037.004.033.045.09.102.17.102.1 0 .223-.064.223-.153 0-.028-.007-.055-.022-.055-.017 0-.054.032-.089.032-.042 0-.089-.03-.089-.069V-.81c0-.131-.114-.252-.323-.252" aria-label="ta" style="font-size:2.4697px;font-family:&quot;EB Garamond&quot;;white-space:pre" transform="translate(38.615 10.188)"/><path fill="#292924" d="M39.757 2.587c.264 0 .432.144.432.356 0 .356-.452.732-.872.732-.264 0-.432-.144-.432-.356 0-.356.452-.732.872-.732M35.54 25.798h-.064v-1h.064Zm0 0v-1c.388-.236.896-.592.896-1.036 0-.228-.06-.448-.16-.652-.012-.064.04-.108.092-.108.028 0 .06.012.08.044.1.224.16.468.16.716 0 .812-1.068 1.224-1.068 2.036"/><path d="M-.025-.314h.05a.04.04 0 0 1 .04.04V2.96a.04.04 0 0 1-.04.04h-.05a.04.04 0 0 1-.04-.04V-.274a.04.04 0 0 1 .04-.04" style="fill:#292924" transform="translate(35.475 22.838)"/><path d="M-.025-2.314h.05a.04.04 0 0 1 .04.04V.96a.04.04 0 0 1-.04.04h-.05a.04.04 0 0 1-.04-.04v-3.234a.04.04 0 0 1 .04-.04" style="fill:#292924" transform="translate(45.846 4.63)"/><path d="M.501.02C.743.02.887-.1.887-.17q0-.036-.037-.035c-.025 0-.146.057-.26.057-.21 0-.306-.232-.306-.45 0-.163.104-.348.252-.348.052 0 .084.045.126.087.054.054.116.088.16.088.057 0 .104-.037.104-.096C.926-.899.892-.94.845-.98c-.04-.033-.116-.082-.29-.082-.283 0-.498.282-.498.58C.057-.22.237.02.5.02m.768-.605c0-.178.094-.373.272-.373.215 0 .329.237.329.457 0 .182-.077.405-.26.405-.23 0-.34-.257-.34-.49m.29-.477a.55.55 0 0 0-.537.531c0 .294.223.55.524.55a.58.58 0 0 0 .568-.587c0-.287-.27-.494-.556-.494m1.684.163q-.007.002-.018-.012a.31.31 0 0 0-.254-.151.46.46 0 0 0-.306.096c-.02.018-.05.052-.05.015v-.062c0-.047 0-.069-.03-.069-.024 0-.229.082-.256.097-.032.014-.072.034-.072.061s.025.042.052.052c.06.022.101.084.101.126v.48c0 .061-.027.138-.093.157q-.099.029-.097.065c0 .024.01.049.074.049.055 0 .17-.015.22-.015.04 0 .126.015.18.015.065 0 .072-.025.072-.05 0-.024-.027-.044-.094-.064-.047-.014-.057-.096-.057-.158l.003-.395c0-.188.099-.272.242-.272.128 0 .215.144.215.29v.377c0 .062-.013.146-.057.158-.067.02-.096.04-.096.065 0 .024.01.049.074.049.054 0 .136-.015.182-.015.04 0 .126.015.18.015.065 0 .072-.025.072-.05 0-.024-.027-.044-.093-.064-.047-.014-.057-.096-.057-.158v-.395c0-.175.099-.272.244-.272.129 0 .215.144.215.29v.377c0 .062-.012.146-.057.158q-.098.029-.096.065c0 .024.01.049.074.049.054 0 .133-.015.183-.015.04 0 .163.015.217.015.064 0 .067-.025.067-.05 0-.024-.022-.044-.089-.064s-.094-.098-.094-.163v-.447c0-.18-.136-.343-.309-.343a.46.46 0 0 0-.306.096c-.047.04-.074.067-.086.067" aria-label="com" style="font-size:2.4697px;font-family:&quot;EB Garamond&quot;;white-space:pre" transform="translate(44.35 28.338)"/><path fill="#292924" d="M46.653 21.794c.264 0 .432.144.432.356 0 .356-.452.732-.872.732-.264 0-.432-.144-.432-.356 0-.356.452-.732.872-.732"/><path d="M.46.02c.148 0 .28-.121.28-.178q0-.036-.036-.035c-.025 0-.087.045-.178.045-.086 0-.128-.055-.128-.227v-.462c0-.035.01-.047.04-.047h.244c.034 0 .059-.064.059-.09 0-.024-.01-.056-.05-.056H.453c-.032 0-.054-.012-.054-.037v-.07c0-.041-.005-.06-.035-.06-.032 0-.126.093-.16.123-.062.052-.166.12-.166.155 0 .025.057.035.08.035.09 0 .076.012.076.034v.588c0 .21.12.282.266.282m.649-.798c0-.05.101-.17.25-.17.071 0 .145.049.145.12 0 .035-.012.077-.037.077h-.326c-.03 0-.032-.01-.032-.027m.61-.027c0-.126-.158-.257-.326-.257a.526.526 0 0 0-.534.536c0 .279.154.546.428.546.242 0 .385-.119.385-.19q0-.036-.037-.035c-.025 0-.133.057-.257.057-.195 0-.311-.203-.311-.39 0-.042 0-.047.01-.074.007-.02.012-.025.047-.025h.52c.065 0 .075-.101.075-.168" aria-label="te" style="font-size:2.4697px;font-family:&quot;EB Garamond&quot;;white-space:pre" transform="translate(45.545 10.188)"/><path fill="#292924" d="M45.91 5.59h-.063v-1h.064Zm0 0v-1c.389-.235.897-.591.897-1.035 0-.228-.06-.448-.16-.652-.012-.064.04-.108.092-.108.028 0 .06.012.08.044.1.224.16.468.16.716 0 .812-1.068 1.224-1.068 2.036"/><path d="M-.025-.314h.05a.04.04 0 0 1 .04.04v2.422a.04.04 0 0 1-.04.04h-.05a.04.04 0 0 1-.04-.04V-.274a.04.04 0 0 1 .04-.04" style="fill:#292924" transform="translate(45.846 22.838)"/><path fill="#292924" d="M46.653 1.587c.264 0 .432.144.432.356 0 .356-.452.732-.872.732-.264 0-.432-.144-.432-.356 0-.356.452-.732.872-.732"/></svg>