<svg xmlns="http://www.w3.org/2000/svg" xmlns:xlink="http://www.w3.org/1999/xlink" version="1.2" width="210.82mm" height="177.80mm" viewBox="0.0000 -0.0000 119.9682 101.1780">
  <link
    xmlns="http://www.w3.org/1999/xhtml"
    rel="stylesheet"
    href="/assets/css/philip-music-fonts.css"
    type="text/css" />
<style type="text/css">
<![CDATA[
tspan { white-space: pre; }
]]>
</style>
<g transform="translate(9.9812, 9.0775)">
<line stroke-linejoin="round" stroke-linecap="round" stroke-width="0.1000" stroke="currentColor" x1="0.0500" y1="0" x2="108.4916" y2="0"/>
</g>
<g transform="translate(9.9812, 8.0775)">
<line stroke-linejoin="round" stroke-linecap="round" stroke-width="0.1000" stroke="currentColor" x1="0.0500" y1="0" x2="108.4916" y2="0"/>
</g>
<g transform="translate(9.9812, 7.0775)">
<line stroke-linejoin="round" stroke-linecap="round" stroke-width="0.1000" stroke="currentColor" x1="0.0500" y1="0" x2="108.4916" y2="0"/>
</g>
<g transform="translate(9.9812, 6.0775)">
<line stroke-linejoin="round" stroke-linecap="round" stroke-width="0.1000" stroke="currentColor" x1="0.0500" y1="0" x2="108.4916" y2="0"/>
</g>
<g transform="translate(9.9812, 5.0775)">
<line stroke-linejoin="round" stroke-linecap="round" stroke-width="0.1000" stroke="currentColor" x1="0.0500" y1="0" x2="108.4916" y2="0"/>
</g>
<g transform="translate(9.9812, 45.4912)">
<line stroke-linejoin="round" stroke-linecap="round" stroke-width="0.1000" stroke="currentColor" x1="0.0500" y1="0" x2="108.4916" y2="0"/>
</g>
<g transform="translate(9.9812, 44.4912)">
<line stroke-linejoin="round" stroke-linecap="round" stroke-width="0.1000" stroke="currentColor" x1="0.0500" y1="0" x2="108.4916" y2="0"/>
</g>
<g transform="translate(9.9812, 43.4912)">
<line stroke-linejoin="round" stroke-linecap="round" stroke-width="0.1000" stroke="currentColor" x1="0.0500" y1="0" x2="108.4916" y2="0"/>
</g>
<g transform="translate(9.9812, 42.4912)">
<line stroke-linejoin="round" stroke-linecap="round" stroke-width="0.1000" stroke="currentColor" x1="0.0500" y1="0" x2="108.4916" y2="0"/>
</g>
<g transform="translate(9.9812, 41.4912)">
<line stroke-linejoin="round" stroke-linecap="round" stroke-width="0.1000" stroke="currentColor" x1="0.0500" y1="0" x2="108.4916" y2="0"/>
</g>
<g transform="translate(9.9812, 27.2844)">
<line stroke-linejoin="round" stroke-linecap="round" stroke-width="0.1000" stroke="currentColor" x1="0.0500" y1="0" x2="108.4916" y2="0"/>
</g>
<g transform="translate(9.9812, 26.2844)">
<line stroke-linejoin="round" stroke-linecap="round" stroke-width="0.1000" stroke="currentColor" x1="0.0500" y1="0" x2="108.4916" y2="0"/>
</g>
<g transform="translate(9.9812, 25.2844)">
<line stroke-linejoin="round" stroke-linecap="round" stroke-width="0.1000" stroke="currentColor" x1="0.0500" y1="0" x2="108.4916" y2="0"/>
</g>
<g transform="translate(9.9812, 24.2844)">
<line stroke-linejoin="round" stroke-linecap="round" stroke-width="0.1000" stroke="currentColor" x1="0.0500" y1="0" x2="108.4916" y2="0"/>
</g>
<g transform="translate(9.9812, 23.2844)">
<line stroke-linejoin="round" stroke-linecap="round" stroke-width="0.1000" stroke="currentColor" x1="0.0500" y1="0" x2="108.4916" y2="0"/>
</g>
<g transform="translate(73.7532, 7.0775)">
<rect x="-0.0650" y="-0.8139" width="0.1300" height="3.3139" ry="0.0400" fill="currentColor"/>
</g>
<g transform="translate(73.6882, 6.0775)">
<path transform="scale(0.0040, -0.0040)" d="M218 136c66 0 108 -36 108 -89c0 -89 -113 -183 -218 -183c-66 0 -108 36 -108 89c0 89 113 183 218 183z" fill="currentColor"/>
</g>
<g transform="translate(73.5550, 12.6343)">
<text font-family="EB Garamond" font-size="2.4697" text-anchor="start" fill="currentColor">
<tspan>ri</tspan>
</text>
</g>
<g transform="translate(73.6882, 24.2844)">
<path transform="scale(0.0040, -0.0040)" d="M218 136c66 0 108 -36 108 -89c0 -89 -113 -183 -218 -183c-66 0 -108 36 -108 89c0 89 113 183 218 183z" fill="currentColor"/>
</g>
<g transform="translate(73.5550, 30.7844)">
<text font-family="EB Garamond" font-size="2.4697" text-anchor="start" fill="currentColor">
<tspan>ri</tspan>
</text>
</g>
<g transform="translate(73.6882, 44.4912)">
<path transform="scale(0.0040, -0.0040)" d="M218 136c66 0 108 -36 108 -89c0 -89 -113 -183 -218 -183c-66 0 -108 36 -108 89c0 89 113 183 218 183z" fill="currentColor"/>
</g>
<g transform="translate(75.4424, 5.5775)">
<path transform="scale(0.0040, -0.0040)" d="M0 0c0 31 25 56 56 56s56 -25 56 -56s-25 -56 -56 -56s-56 25 -56 56z" fill="currentColor"/>
</g>
<g transform="translate(75.4424, 23.7844)">
<path transform="scale(0.0040, -0.0040)" d="M0 0c0 31 25 56 56 56s56 -25 56 -56s-25 -56 -56 -56s-56 25 -56 56z" fill="currentColor"/>
</g>
<g transform="translate(73.7532, 25.2844)">
<rect x="-0.0650" y="-0.8139" width="0.1300" height="3.3139" ry="0.0400" fill="currentColor"/>
</g>
<g transform="translate(70.8119, 25.2844)">
<rect x="-0.0650" y="0.1861" width="0.1300" height="2.8047" ry="0.0400" fill="currentColor"/>
</g>
<g transform="translate(70.8119, 7.0775)">
<rect x="-0.0650" y="-1.3139" width="0.1300" height="3.5096" ry="0.0400" fill="currentColor"/>
</g>
<g transform="translate(70.5796, 30.7844)">
<text font-family="EB Garamond" font-size="2.4697" text-anchor="start" fill="currentColor">
<tspan>le</tspan>
</text>
</g>
<g transform="translate(70.7469, 25.2844)">
<path transform="scale(0.0040, -0.0040)" d="M218 136c66 0 108 -36 108 -89c0 -89 -113 -183 -218 -183c-66 0 -108 36 -108 89c0 89 113 183 218 183z" fill="currentColor"/>
</g>
<g transform="translate(70.5796, 12.6343)">
<text font-family="EB Garamond" font-size="2.4697" text-anchor="start" fill="currentColor">
<tspan>le</tspan>
</text>
</g>
<g transform="translate(70.7469, 5.5775)">
<path transform="scale(0.0040, -0.0040)" d="M218 136c66 0 108 -36 108 -89c0 -89 -113 -183 -218 -183c-66 0 -108 36 -108 89c0 89 113 183 218 183z" fill="currentColor"/>
</g>
<g transform="translate(81.4812, 5.5775)">
<path transform="scale(0.0040, -0.0040)" d="M218 136c66 0 108 -36 108 -89c0 -89 -113 -183 -218 -183c-66 0 -108 36 -108 89c0 89 113 183 218 183z" fill="currentColor"/>
</g>
<g transform="translate(56.6927, 44.9912)">
<path transform="scale(0.0040, -0.0040)" d="M218 136c66 0 108 -36 108 -89c0 -89 -113 -183 -218 -183c-66 0 -108 36 -108 89c0 89 113 183 218 183z" fill="currentColor"/>
</g>
<g transform="translate(78.9420, 43.4912)">
<rect x="-0.0650" y="-2.0000" width="0.1300" height="3.3139" ry="0.0400" fill="currentColor"/>
</g>
<g transform="translate(79.4570, 44.9912)">
<path transform="scale(0.0040, -0.0040)" d="M0 0c0 31 25 56 56 56s56 -25 56 -56s-25 -56 -56 -56s-56 25 -56 56z" fill="currentColor"/>
</g>
<g transform="translate(79.1027, 24.7844)">
<path transform="scale(0.0040, -0.0040)" d="M0 0c0 31 25 56 56 56s56 -25 56 -56s-25 -56 -56 -56s-56 25 -56 56z" fill="currentColor"/>
</g>
<g transform="translate(79.1027, 6.5775)">
<path transform="scale(0.0040, -0.0040)" d="M0 0c0 31 25 56 56 56s56 -25 56 -56s-25 -56 -56 -56s-56 25 -56 56z" fill="currentColor"/>
</g>
<g transform="translate(77.7028, 44.9912)">
<path transform="scale(0.0040, -0.0040)" d="M218 136c66 0 108 -36 108 -89c0 -89 -113 -183 -218 -183c-66 0 -108 36 -108 89c0 89 113 183 218 183z" fill="currentColor"/>
</g>
<g transform="translate(77.7028, 25.2844)">
<path transform="scale(0.0040, -0.0040)" d="M-6 78c0 59 124 83 124 182c0 24 -8 49 -25 69l-35 42c-3 3 -4 7 -4 10c0 9 9 15 17 15c4 0 8 -1 11 -5l151 -180c7 -9 10 -17 10 -25c0 -59 -124 -83 -124 -182c0 -24 7 -49 24 -69l84 -99c3 -3 4 -7 4 -10c0 -9 -8 -16 -16 -16s-45 44 -109 44c-16 0 -53 0 -53 -67
c0 -35 11 -74 28 -94c7 -8 -5 -19 -12 -11c-45 54 -92 148 -92 202c0 41 27 42 40 42c33 0 78 -13 119 -31l-132 158c-7 9 -10 17 -10 25z" fill="currentColor"/>
</g>
<g transform="translate(77.7028, 7.0775)">
<path transform="scale(0.0040, -0.0040)" d="M-6 78c0 59 124 83 124 182c0 24 -8 49 -25 69l-35 42c-3 3 -4 7 -4 10c0 9 9 15 17 15c4 0 8 -1 11 -5l151 -180c7 -9 10 -17 10 -25c0 -59 -124 -83 -124 -182c0 -24 7 -49 24 -69l84 -99c3 -3 4 -7 4 -10c0 -9 -8 -16 -16 -16s-45 44 -109 44c-16 0 -53 0 -53 -67
c0 -35 11 -74 28 -94c7 -8 -5 -19 -12 -11c-45 54 -92 148 -92 202c0 41 27 42 40 42c33 0 78 -13 119 -31l-132 158c-7 9 -10 17 -10 25z" fill="currentColor"/>
</g>
<g transform="translate(74.9274, 43.4912)">
<rect x="-0.0650" y="-2.5000" width="0.1300" height="3.3139" ry="0.0400" fill="currentColor"/>
</g>
<g transform="translate(75.4424, 43.9912)">
<path transform="scale(0.0040, -0.0040)" d="M0 0c0 31 25 56 56 56s56 -25 56 -56s-25 -56 -56 -56s-56 25 -56 56z" fill="currentColor"/>
</g>
<g transform="translate(60.3181, 7.0775)">
<path transform="scale(0.0040, -0.0040)" d="M218 136c66 0 108 -36 108 -89c0 -89 -113 -183 -218 -183c-66 0 -108 36 -108 89c0 89 113 183 218 183z" fill="currentColor"/>
</g>
<g transform="translate(63.8102, 12.6343)">
<text font-family="EB Garamond" font-size="2.4697" text-anchor="start" fill="currentColor">
<tspan>sce</tspan>
</text>
</g>
<g transform="translate(63.8102, 6.5775)">
<path transform="scale(0.0040, -0.0040)" d="M218 136c66 0 108 -36 108 -89c0 -89 -113 -183 -218 -183c-66 0 -108 36 -108 89c0 89 113 183 218 183z" fill="currentColor"/>
</g>
<g transform="translate(60.4481, 27.7444)">
<path transform="scale(0.0040, -0.0040)" d="M0 0h-16v250h16v-250zM0 0v250c97 59 224 148 224 259c0 57 -15 112 -40 163c-3 16 10 27 23 27c7 0 15 -3 20 -11c25 -56 40 -117 40 -179c0 -203 -267 -306 -267 -509z" fill="currentColor"/>
</g>
<g transform="translate(60.3831, 25.2844)">
<rect x="-0.0650" y="-0.8139" width="0.1300" height="3.3139" ry="0.0400" fill="currentColor"/>
</g>
<g transform="translate(60.4481, 10.4125)">
<path transform="scale(0.0040, -0.0040)" d="M0 0h-16v250h16v-250zM0 0v250c97 59 224 148 224 259c0 57 -15 112 -40 163c-3 16 10 27 23 27c7 0 15 -3 20 -11c25 -56 40 -117 40 -179c0 -203 -267 -306 -267 -509z" fill="currentColor"/>
</g>
<g transform="translate(60.3831, 7.0775)">
<rect x="-0.0650" y="0.1861" width="0.1300" height="3.1889" ry="0.0400" fill="currentColor"/>
</g>
<g transform="translate(58.5801, 30.7844)">
<text font-family="EB Garamond" font-size="2.4697" text-anchor="start" fill="currentColor">
<tspan>quod</tspan>
</text>
</g>
<g transform="translate(60.3181, 24.2844)">
<path transform="scale(0.0040, -0.0040)" d="M218 136c66 0 108 -36 108 -89c0 -89 -113 -183 -218 -183c-66 0 -108 36 -108 89c0 89 113 183 218 183z" fill="currentColor"/>
</g>
<g transform="translate(58.5801, 12.6343)">
<text font-family="EB Garamond" font-size="2.4697" text-anchor="start" fill="currentColor">
<tspan>quod</tspan>
</text>
</g>
<g transform="translate(63.8102, 23.7844)">
<path transform="scale(0.0040, -0.0040)" d="M218 136c66 0 108 -36 108 -89c0 -89 -113 -183 -218 -183c-66 0 -108 36 -108 89c0 89 113 183 218 183z" fill="currentColor"/>
</g>
<g transform="translate(57.9320, 43.4912)">
<rect x="-0.0650" y="-2.0000" width="0.1300" height="3.3139" ry="0.0400" fill="currentColor"/>
</g>
<g transform="translate(58.4469, 44.9912)">
<path transform="scale(0.0040, -0.0040)" d="M0 0c0 31 25 56 56 56s56 -25 56 -56s-25 -56 -56 -56s-56 25 -56 56z" fill="currentColor"/>
</g>
<g transform="translate(56.7577, 25.2844)">
<rect x="-0.0650" y="-0.3139" width="0.1300" height="3.3139" ry="0.0400" fill="currentColor"/>
</g>
<g transform="translate(56.7577, 7.0775)">
<rect x="-0.0650" y="-0.3139" width="0.1300" height="3.3139" ry="0.0400" fill="currentColor"/>
</g>
<g transform="translate(89.9576, 30.7844)">
<rect x="0.0000" y="-0.5500" width="0.5643" height="0.1300" ry="0.0400" fill="currentColor"/>
</g>
<g transform="translate(67.9957, 7.0775)">
<rect x="-0.0650" y="-0.8139" width="0.1300" height="3.2567" ry="0.0400" fill="currentColor"/>
</g>
<g transform="translate(67.9307, 24.7844)">
<path transform="scale(0.0040, -0.0040)" d="M218 136c66 0 108 -36 108 -89c0 -89 -113 -183 -218 -183c-66 0 -108 36 -108 89c0 89 113 183 218 183z" fill="currentColor"/>
</g>
<g transform="translate(67.9307, 6.0775)">
<path transform="scale(0.0040, -0.0040)" d="M218 136c66 0 108 -36 108 -89c0 -89 -113 -183 -218 -183c-66 0 -108 36 -108 89c0 89 113 183 218 183z" fill="currentColor"/>
</g>
<g transform="translate(65.9354, 25.2844)">
<rect x="-0.0650" y="-0.8139" width="0.1300" height="3.1146" ry="0.0400" fill="currentColor"/>
</g>
<g transform="translate(65.8704, 24.2844)">
<path transform="scale(0.0040, -0.0040)" d="M218 136c66 0 108 -36 108 -89c0 -89 -113 -183 -218 -183c-66 0 -108 36 -108 89c0 89 113 183 218 183z" fill="currentColor"/>
</g>
<g transform="translate(67.9957, 25.2844)">
<rect x="-0.0650" y="-0.3139" width="0.1300" height="2.9062" ry="0.0400" fill="currentColor"/>
</g>
<g transform="translate(65.2102, 42.9912)">
<path transform="scale(0.0040, -0.0040)" d="M0 0c0 31 25 56 56 56s56 -25 56 -56s-25 -56 -56 -56s-56 25 -56 56z" fill="currentColor"/>
</g>
<g transform="translate(63.8752, 25.2844)">
<rect x="-0.0650" y="-1.3139" width="0.1300" height="3.3231" ry="0.0400" fill="currentColor"/>
</g>
<g transform="translate(63.8752, 7.0775)">
<rect x="-0.0650" y="-0.3139" width="0.1300" height="3.1182" ry="0.0400" fill="currentColor"/>
</g>
<g transform="translate(63.8102, 43.4912)">
<path transform="scale(0.0040, -0.0040)" d="M-6 78c0 59 124 83 124 182c0 24 -8 49 -25 69l-35 42c-3 3 -4 7 -4 10c0 9 9 15 17 15c4 0 8 -1 11 -5l151 -180c7 -9 10 -17 10 -25c0 -59 -124 -83 -124 -182c0 -24 7 -49 24 -69l84 -99c3 -3 4 -7 4 -10c0 -9 -8 -16 -16 -16s-45 44 -109 44c-16 0 -53 0 -53 -67
c0 -35 11 -74 28 -94c7 -8 -5 -19 -12 -11c-45 54 -92 148 -92 202c0 41 27 42 40 42c33 0 78 -13 119 -31l-132 158c-7 9 -10 17 -10 25z" fill="currentColor"/>
</g>
<g transform="translate(63.8102, 30.7844)">
<text font-family="EB Garamond" font-size="2.4697" text-anchor="start" fill="currentColor">
<tspan>sce</tspan>
</text>
</g>
<g transform="translate(38.0297, 12.6343)">
<rect x="0.0000" y="-0.5500" width="0.6600" height="0.1300" ry="0.0400" fill="currentColor"/>
</g>
<g transform="translate(33.4179, 30.7844)">
<rect x="0.0000" y="-0.5500" width="0.6600" height="0.1300" ry="0.0400" fill="currentColor"/>
</g>
<g transform="translate(33.4179, 12.6343)">
<rect x="0.0000" y="-0.5500" width="0.6600" height="0.1300" ry="0.0400" fill="currentColor"/>
</g>
<g transform="translate(30.3318, 30.7844)">
<rect x="0.0000" y="-0.5500" width="0.6600" height="0.1300" ry="0.0400" fill="currentColor"/>
</g>
<g transform="translate(30.3318, 12.6343)">
<rect x="0.0000" y="-0.5500" width="0.6600" height="0.1300" ry="0.0400" fill="currentColor"/>
</g>
<g transform="translate(22.6978, 7.0775)">
<path stroke-width="0.1000" stroke-linejoin="round" stroke-linecap="round" stroke="currentColor" fill="currentColor" d="M0.6107 -1.1619C1.2164 -1.9035 2.4047 -2.0169 3.1638 -1.4055L3.1638 -1.4055C2.4151 -1.9074 1.2269 -1.7940 0.6107 -1.1619z"/>
</g>
<g transform="translate(21.1808, 39.1594)">
<line stroke-linejoin="round" stroke-linecap="round" stroke-width="0.1600" stroke="currentColor" x1="8.3820" y1="-0.2049" x2="8.3820" y2="0.4951"/>
</g>
<g transform="translate(21.1808, 39.1594)">
<line stroke-linejoin="round" stroke-linecap="round" stroke-width="0.1600" stroke="currentColor" x1="-0.1999" y1="0.0049" x2="-0.1999" y2="0.7049"/>
</g>
<g transform="translate(21.1808, 39.1594)">
<line stroke-linejoin="round" stroke-linecap="round" stroke-width="0.1600" stroke="currentColor" x1="8.3820" y1="-0.2049" x2="4.1910" y2="-0.1024"/>
</g>
<g transform="translate(21.1808, 39.1594)">
<line stroke-linejoin="round" stroke-linecap="round" stroke-width="0.1600" stroke="currentColor" x1="-0.1999" y1="0.0049" x2="4.1910" y2="-0.1024"/>
</g>
<g transform="translate(20.0066, 25.2844)">
<path stroke-width="0.0800" stroke-linejoin="round" stroke-linecap="round" stroke="currentColor" fill="currentColor" d="M0.8045 -3.0450C1.7142 -3.4279 2.9007 -2.9783 3.3281 -2.0887L3.3281 -2.0887C2.8582 -2.8661 1.6716 -3.3157 0.8045 -3.0450z"/>
</g>
<g transform="translate(20.0066, 27.0944)">
<polygon stroke-linejoin="round" stroke-linecap="round" stroke-width="0.0800" fill="currentColor" stroke="currentColor" points="5.4617 -0.2000 5.4617 0.2000 0.0400 0.2000 0.0400 -0.2000"/>
</g>
<g transform="translate(20.0066, 9.8875)">
<polygon stroke-linejoin="round" stroke-linecap="round" stroke-width="0.0800" fill="currentColor" stroke="currentColor" points="5.4617 -0.2000 5.4617 0.2000 0.0400 0.2000 0.0400 -0.2000"/>
</g>
<g transform="translate(20.0066, 2.7775)">
<line stroke-linejoin="round" stroke-linecap="round" stroke-width="0.1600" stroke="currentColor" x1="4.1955" y1="-0.0000" x2="4.1955" y2="0.7000"/>
</g>
<g transform="translate(20.0066, 2.7775)">
<line stroke-linejoin="round" stroke-linecap="round" stroke-width="0.1600" stroke="currentColor" x1="-0.2000" y1="-0.0000" x2="-0.2000" y2="0.7000"/>
</g>
<g transform="translate(20.0066, 2.7775)">
<line stroke-linejoin="round" stroke-linecap="round" stroke-width="0.1600" stroke="currentColor" x1="4.1955" y1="-0.0000" x2="2.0977" y2="-0.0000"/>
</g>
<g transform="translate(20.0066, 2.7775)">
<line stroke-linejoin="round" stroke-linecap="round" stroke-width="0.1600" stroke="currentColor" x1="-0.2000" y1="-0.0000" x2="2.0977" y2="-0.0000"/>
</g>
<g transform="translate(18.0464, 30.7844)">
<rect x="0.0000" y="-0.0800" width="8.6360" height="0.0800" ry="0.0320" fill="currentColor"/>
</g>
<g transform="translate(18.6951, 12.6343)">
<rect x="0.0000" y="-0.0800" width="7.7156" height="0.0800" ry="0.0320" fill="currentColor"/>
</g>
<g transform="translate(34.5722, 27.0944)">
<polygon stroke-linejoin="round" stroke-linecap="round" stroke-width="0.0800" fill="currentColor" stroke="currentColor" points="6.3267 0.1800 6.3267 0.5800 0.0400 0.2000 0.0400 -0.2000"/>
</g>
<g transform="scale(4.0000, 4.0000)">
<g transform="translate(28.0607, 10.7228)">
<path transform="scale(0.0040, -0.0040)" d="M319 46c4 6 10 9 17 9c11 0 20 -9 20 -20c0 -4 -2 -8 -4 -11l-23 -35l-33 22zM129 1l-8 -12l-33 22l70 105c4 6 9 9 16 9c6 0 12 -2 16 -7l98 -119l8 12l33 -22l-70 -105c-4 -6 -9 -9 -16 -9c-6 0 -12 2 -16 7zM-80 1l-8 -12l-33 22l70 105c4 6 10 9 17 9
c6 0 11 -2 15 -7l99 -119l8 12l33 -22l-70 -105c-4 -6 -10 -9 -17 -9c-6 0 -11 2 -15 7zM-336 -55c-11 0 -20 9 -20 20c0 6 1 6 97 151c4 6 10 9 17 9c6 0 11 -2 15 -7l98 -119l8 12l33 -22l-70 -105c-4 -6 -9 -9 -16 -9c-6 0 -12 2 -16 7l-98 119c-37 -56 -37 -56 -48 -56z
" fill="currentColor"/>
</g>
</g>
<g transform="scale(4.0000, 4.0000)">
<g transform="translate(28.0607, 6.1711)">
<path transform="scale(0.0040, -0.0040)" d="M319 46c4 6 10 9 17 9c11 0 20 -9 20 -20c0 -4 -2 -8 -4 -11l-23 -35l-33 22zM129 1l-8 -12l-33 22l70 105c4 6 9 9 16 9c6 0 12 -2 16 -7l98 -119l8 12l33 -22l-70 -105c-4 -6 -9 -9 -16 -9c-6 0 -12 2 -16 7zM-80 1l-8 -12l-33 22l70 105c4 6 10 9 17 9
c6 0 11 -2 15 -7l99 -119l8 12l33 -22l-70 -105c-4 -6 -10 -9 -17 -9c-6 0 -11 2 -15 7zM-336 -55c-11 0 -20 9 -20 20c0 6 1 6 97 151c4 6 10 9 17 9c6 0 11 -2 15 -7l98 -119l8 12l33 -22l-70 -105c-4 -6 -9 -9 -16 -9c-6 0 -12 2 -16 7l-98 119c-37 -56 -37 -56 -48 -56z
" fill="currentColor"/>
</g>
</g>
<g transform="scale(4.0000, 4.0000)">
<g transform="translate(28.0607, 1.6194)">
<path transform="scale(0.0040, -0.0040)" d="M319 46c4 6 10 9 17 9c11 0 20 -9 20 -20c0 -4 -2 -8 -4 -11l-23 -35l-33 22zM129 1l-8 -12l-33 22l70 105c4 6 9 9 16 9c6 0 12 -2 16 -7l98 -119l8 12l33 -22l-70 -105c-4 -6 -9 -9 -16 -9c-6 0 -12 2 -16 7zM-80 1l-8 -12l-33 22l70 105c4 6 10 9 17 9
c6 0 11 -2 15 -7l99 -119l8 12l33 -22l-70 -105c-4 -6 -10 -9 -17 -9c-6 0 -11 2 -15 7zM-336 -55c-11 0 -20 9 -20 20c0 6 1 6 97 151c4 6 10 9 17 9c6 0 11 -2 15 -7l98 -119l8 12l33 -22l-70 -105c-4 -6 -9 -9 -16 -9c-6 0 -12 2 -16 7l-98 119c-37 -56 -37 -56 -48 -56z
" fill="currentColor"/>
</g>
</g>
<g transform="translate(63.8102, 2.7775)">
<line stroke-linejoin="round" stroke-linecap="round" stroke-width="0.1600" stroke="currentColor" x1="5.6247" y1="-0.0000" x2="5.6247" y2="0.7000"/>
</g>
<g transform="translate(63.8102, 2.7775)">
<line stroke-linejoin="round" stroke-linecap="round" stroke-width="0.1600" stroke="currentColor" x1="-0.2000" y1="-0.0000" x2="-0.2000" y2="0.7000"/>
</g>
<g transform="translate(63.8102, 2.7775)">
<line stroke-linejoin="round" stroke-linecap="round" stroke-width="0.1600" stroke="currentColor" x1="5.6247" y1="-0.0000" x2="2.8123" y2="-0.0000"/>
</g>
<g transform="translate(63.8102, 2.7775)">
<line stroke-linejoin="round" stroke-linecap="round" stroke-width="0.1600" stroke="currentColor" x1="-0.2000" y1="-0.0000" x2="2.8123" y2="-0.0000"/>
</g>
<g transform="translate(89.9576, 12.6343)">
<rect x="0.0000" y="-0.5500" width="0.5643" height="0.1300" ry="0.0400" fill="currentColor"/>
</g>
<g transform="translate(83.8455, 30.7844)">
<rect x="0.0000" y="-0.5500" width="0.6600" height="0.1300" ry="0.0400" fill="currentColor"/>
</g>
<g transform="translate(83.8455, 12.6343)">
<rect x="0.0000" y="-0.5500" width="0.6600" height="0.1300" ry="0.0400" fill="currentColor"/>
</g>
<g transform="translate(74.8624, 38.9912)">
<line stroke-linejoin="round" stroke-linecap="round" stroke-width="0.1600" stroke="currentColor" x1="8.1229" y1="0.2050" x2="8.1229" y2="0.9050"/>
</g>
<g transform="translate(74.8624, 38.9912)">
<line stroke-linejoin="round" stroke-linecap="round" stroke-width="0.1600" stroke="currentColor" x1="-0.1999" y1="-0.0050" x2="-0.1999" y2="0.6950"/>
</g>
<g transform="translate(74.8624, 38.9912)">
<line stroke-linejoin="round" stroke-linecap="round" stroke-width="0.1600" stroke="currentColor" x1="8.1229" y1="0.2050" x2="4.0614" y2="0.1025"/>
</g>
<g transform="translate(74.8624, 38.9912)">
<line stroke-linejoin="round" stroke-linecap="round" stroke-width="0.1600" stroke="currentColor" x1="-0.1999" y1="-0.0050" x2="4.0614" y2="0.1025"/>
</g>
<g transform="translate(72.5568, 30.7844)">
<rect x="0.0000" y="-0.5500" width="0.6600" height="0.1300" ry="0.0400" fill="currentColor"/>
</g>
<g transform="translate(72.5568, 12.6343)">
<rect x="0.0000" y="-0.5500" width="0.6600" height="0.1300" ry="0.0400" fill="currentColor"/>
</g>
<g transform="translate(68.1965, 30.7844)">
<rect x="0.0000" y="-0.5500" width="0.6600" height="0.1300" ry="0.0400" fill="currentColor"/>
</g>
<g transform="translate(68.1965, 12.6343)">
<rect x="0.0000" y="-0.5500" width="0.6600" height="0.1300" ry="0.0400" fill="currentColor"/>
</g>
<g transform="translate(63.8102, 25.2844)">
<path stroke-width="0.1000" stroke-linejoin="round" stroke-linecap="round" stroke="currentColor" fill="currentColor" d="M4.6914 -1.8269C4.7598 -1.7375 4.8213 -1.6435 4.8751 -1.5450L4.8751 -1.5450C4.8194 -1.6356 4.7561 -1.7223 4.6861 -1.8049z"/>
</g>
<g transform="translate(63.8102, 25.2844)">
<path stroke-width="0.1000" stroke-linejoin="round" stroke-linecap="round" stroke="currentColor" fill="currentColor" d="M4.0654 -2.4059C4.1620 -2.3414 4.2541 -2.2715 4.3409 -2.1967L4.3291 -2.1483C4.2412 -2.2182 4.1480 -2.2836 4.0504 -2.3444z"/>
</g>
<g transform="translate(63.8102, 25.2844)">
<path stroke-width="0.1000" stroke-linejoin="round" stroke-linecap="round" stroke="currentColor" fill="currentColor" d="M3.2711 -2.7885C3.3843 -2.7516 3.4954 -2.7088 3.6034 -2.6604L3.5852 -2.5857C3.4768 -2.6320 3.3653 -2.6733 3.2519 -2.7094z"/>
</g>
<g transform="translate(63.8102, 25.2844)">
<path stroke-width="0.1000" stroke-linejoin="round" stroke-linecap="round" stroke="currentColor" fill="currentColor" d="M2.3962 -2.9534C2.5143 -2.9469 2.6327 -2.9340 2.7502 -2.9150L2.7310 -2.8358C2.6136 -2.8557 2.4957 -2.8701 2.3780 -2.8786z"/>
</g>
<g transform="translate(63.8102, 25.2844)">
<path stroke-width="0.1000" stroke-linejoin="round" stroke-linecap="round" stroke="currentColor" fill="currentColor" d="M1.5282 -2.8793C1.6396 -2.9061 1.7535 -2.9259 1.8689 -2.9390L1.8540 -2.8774C1.7394 -2.8681 1.6266 -2.8527 1.5164 -2.8309z"/>
</g>
<g transform="translate(63.8102, 25.2844)">
<path stroke-width="0.1000" stroke-linejoin="round" stroke-linecap="round" stroke="currentColor" fill="currentColor" d="M0.7546 -2.5450C0.8476 -2.6079 0.9454 -2.6632 1.0471 -2.7113L1.0418 -2.6893C0.9417 -2.6480 0.8457 -2.6000 0.7546 -2.5450z"/>
</g>
<g transform="translate(63.8102, 26.4744)">
<polygon stroke-linejoin="round" stroke-linecap="round" stroke-width="0.0800" fill="currentColor" stroke="currentColor" points="2.1502 0.1099 2.1502 0.5099 0.0400 0.2000 0.0400 -0.2000"/>
</g>
<g transform="translate(63.8102, 27.2844)">
<polygon stroke-linejoin="round" stroke-linecap="round" stroke-width="0.0800" fill="currentColor" stroke="currentColor" points="7.0267 0.8000 7.0267 1.2000 0.0400 0.2000 0.0400 -0.2000"/>
</g>
<g transform="translate(63.8102, 9.8875)">
<polygon stroke-linejoin="round" stroke-linecap="round" stroke-width="0.0800" fill="currentColor" stroke="currentColor" points="7.0267 -0.8200 7.0267 -0.4200 0.0400 0.2000 0.0400 -0.2000"/>
</g>
<g transform="translate(51.0888, 30.7844)">
<rect x="0.0000" y="-0.5500" width="0.6600" height="0.1300" ry="0.0400" fill="currentColor"/>
</g>
<g transform="translate(53.0960, 12.6343)">
<rect x="0.0000" y="-0.5500" width="0.6600" height="0.1300" ry="0.0400" fill="currentColor"/>
</g>
<g transform="translate(49.4181, 38.4912)">
<line stroke-linejoin="round" stroke-linecap="round" stroke-width="0.1600" stroke="currentColor" x1="8.7781" y1="0.7163" x2="8.7781" y2="1.4163"/>
</g>
<g transform="translate(49.4181, 38.4912)">
<line stroke-linejoin="round" stroke-linecap="round" stroke-width="0.1600" stroke="currentColor" x1="-0.1993" y1="-0.0163" x2="-0.1993" y2="0.6837"/>
</g>
<g transform="translate(49.4181, 38.4912)">
<line stroke-linejoin="round" stroke-linecap="round" stroke-width="0.1600" stroke="currentColor" x1="8.7781" y1="0.7163" x2="4.3891" y2="0.3581"/>
</g>
<g transform="translate(49.4181, 38.4912)">
<line stroke-linejoin="round" stroke-linecap="round" stroke-width="0.1600" stroke="currentColor" x1="-0.1993" y1="-0.0163" x2="4.3891" y2="0.3581"/>
</g>
<g transform="translate(49.4181, 20.2844)">
<line stroke-linejoin="round" stroke-linecap="round" stroke-width="0.1600" stroke="currentColor" x1="5.9625" y1="-0.0000" x2="5.9625" y2="0.7000"/>
</g>
<g transform="translate(49.4181, 20.2844)">
<line stroke-linejoin="round" stroke-linecap="round" stroke-width="0.1600" stroke="currentColor" x1="-0.2000" y1="-0.0000" x2="-0.2000" y2="0.7000"/>
</g>
<g transform="translate(49.4181, 20.2844)">
<line stroke-linejoin="round" stroke-linecap="round" stroke-width="0.1600" stroke="currentColor" x1="5.9625" y1="-0.0000" x2="2.9813" y2="-0.0000"/>
</g>
<g transform="translate(49.4181, 20.2844)">
<line stroke-linejoin="round" stroke-linecap="round" stroke-width="0.1600" stroke="currentColor" x1="-0.2000" y1="-0.0000" x2="2.9813" y2="-0.0000"/>
</g>
<g transform="translate(48.2439, 8.2675)">
<polygon stroke-linejoin="round" stroke-linecap="round" stroke-width="0.0800" fill="currentColor" stroke="currentColor" points="5.7225 0.4200 5.7225 0.8200 0.0400 0.2000 0.0400 -0.2000"/>
</g>
<g transform="translate(48.2439, 2.5325)">
<line stroke-linejoin="round" stroke-linecap="round" stroke-width="0.1600" stroke="currentColor" x1="7.1366" y1="0.2521" x2="7.1366" y2="0.9521"/>
</g>
<g transform="translate(48.2439, 2.5325)">
<line stroke-linejoin="round" stroke-linecap="round" stroke-width="0.1600" stroke="currentColor" x1="-0.1999" y1="-0.0071" x2="-0.1999" y2="0.6929"/>
</g>
<g transform="translate(48.2439, 2.5325)">
<line stroke-linejoin="round" stroke-linecap="round" stroke-width="0.1600" stroke="currentColor" x1="7.1366" y1="0.2521" x2="3.5683" y2="0.1260"/>
</g>
<g transform="translate(48.2439, 2.5325)">
<line stroke-linejoin="round" stroke-linecap="round" stroke-width="0.1600" stroke="currentColor" x1="-0.1999" y1="-0.0071" x2="3.5683" y2="0.1260"/>
</g>
<g transform="translate(47.2741, 12.6343)">
<rect x="0.0000" y="-0.5500" width="0.6600" height="0.1300" ry="0.0400" fill="currentColor"/>
</g>
<g transform="translate(43.6138, 30.7844)">
<rect x="0.0000" y="-0.5500" width="0.5456" height="0.1300" ry="0.0400" fill="currentColor"/>
</g>
<g transform="translate(36.3195, 30.7844)">
<rect x="0.0000" y="-0.5500" width="0.6600" height="0.1300" ry="0.0400" fill="currentColor"/>
</g>
<g transform="translate(85.1835, 26.7444)">
<path transform="scale(0.0040, -0.0040)" d="M0 0h-16v250h16v-250zM0 0v250c97 59 224 148 224 259c0 57 -15 112 -40 163c-3 16 10 27 23 27c7 0 15 -3 20 -11c25 -56 40 -117 40 -179c0 -203 -267 -306 -267 -509z" fill="currentColor"/>
</g>
<g transform="translate(85.1185, 25.2844)">
<rect x="-0.0650" y="-1.8139" width="0.1300" height="3.3139" ry="0.0400" fill="currentColor"/>
</g>
<g transform="translate(85.1835, 9.5375)">
<path transform="scale(0.0040, -0.0040)" d="M0 0h-16v250h16v-250zM0 0v250c97 59 224 148 224 259c0 57 -15 112 -40 163c-3 16 10 27 23 27c7 0 15 -3 20 -11c25 -56 40 -117 40 -179c0 -203 -267 -306 -267 -509z" fill="currentColor"/>
</g>
<g transform="translate(85.1185, 7.0775)">
<rect x="-0.0650" y="-0.8139" width="0.1300" height="3.3139" ry="0.0400" fill="currentColor"/>
</g>
<g transform="translate(84.9203, 30.7844)">
<text font-family="EB Garamond" font-size="2.4697" text-anchor="start" fill="currentColor">
<tspan>ri</tspan>
</text>
</g>
<g transform="translate(85.0535, 23.2844)">
<path transform="scale(0.0040, -0.0040)" d="M218 136c66 0 108 -36 108 -89c0 -89 -113 -183 -218 -183c-66 0 -108 36 -108 89c0 89 113 183 218 183z" fill="currentColor"/>
</g>
<g transform="translate(84.9203, 12.6343)">
<text font-family="EB Garamond" font-size="2.4697" text-anchor="start" fill="currentColor">
<tspan>ri</tspan>
</text>
</g>
<g transform="translate(85.0535, 6.0775)">
<path transform="scale(0.0040, -0.0040)" d="M218 136c66 0 108 -36 108 -89c0 -89 -113 -183 -218 -183c-66 0 -108 36 -108 89c0 89 113 183 218 183z" fill="currentColor"/>
</g>
<g transform="translate(87.8697, 6.5775)">
<path transform="scale(0.0040, -0.0040)" d="M218 136c66 0 108 -36 108 -89c0 -89 -113 -183 -218 -183c-66 0 -108 36 -108 89c0 89 113 183 218 183z" fill="currentColor"/>
</g>
<g transform="translate(82.7204, 43.4912)">
<rect x="-0.0650" y="-1.5000" width="0.1300" height="3.3139" ry="0.0400" fill="currentColor"/>
</g>
<g transform="translate(83.2354, 44.9912)">
<path transform="scale(0.0040, -0.0040)" d="M0 0c0 31 25 56 56 56s56 -25 56 -56s-25 -56 -56 -56s-56 25 -56 56z" fill="currentColor"/>
</g>
<g transform="translate(81.5462, 25.2844)">
<rect x="-0.0650" y="-1.3139" width="0.1300" height="3.3139" ry="0.0400" fill="currentColor"/>
</g>
<g transform="translate(81.5462, 7.0775)">
<rect x="-0.0650" y="-1.3139" width="0.1300" height="3.3139" ry="0.0400" fill="currentColor"/>
</g>
<g transform="translate(81.4812, 45.4912)">
<path transform="scale(0.0040, -0.0040)" d="M218 136c66 0 108 -36 108 -89c0 -89 -113 -183 -218 -183c-66 0 -108 36 -108 89c0 89 113 183 218 183z" fill="currentColor"/>
</g>
<g transform="translate(80.8358, 30.7844)">
<text font-family="EB Garamond" font-size="2.4697" text-anchor="start" fill="currentColor">
<tspan>cle</tspan>
</text>
</g>
<g transform="translate(81.4812, 23.7844)">
<path transform="scale(0.0040, -0.0040)" d="M218 136c66 0 108 -36 108 -89c0 -89 -113 -183 -218 -183c-66 0 -108 36 -108 89c0 89 113 183 218 183z" fill="currentColor"/>
</g>
<g transform="translate(91.5720, 26.7444)">
<path transform="scale(0.0040, -0.0040)" d="M0 0h-16v250h16v-250zM0 0v250c97 59 224 148 224 259c0 57 -15 112 -40 163c-3 16 10 27 23 27c7 0 15 -3 20 -11c25 -56 40 -117 40 -179c0 -203 -267 -306 -267 -509z" fill="currentColor"/>
</g>
<g transform="translate(91.5070, 25.2844)">
<rect x="-0.0650" y="-1.8139" width="0.1300" height="3.3139" ry="0.0400" fill="currentColor"/>
</g>
<g transform="translate(91.5720, 10.4125)">
<path transform="scale(0.0040, -0.0040)" d="M0 0h-16v250h16v-250zM0 0v250c97 59 224 148 224 259c0 57 -15 112 -40 163c-3 16 10 27 23 27c7 0 15 -3 20 -11c25 -56 40 -117 40 -179c0 -203 -267 -306 -267 -509z" fill="currentColor"/>
</g>
<g transform="translate(91.5070, 7.0775)">
<rect x="-0.0650" y="0.1861" width="0.1300" height="3.1889" ry="0.0400" fill="currentColor"/>
</g>
<g transform="translate(90.5918, 30.7844)">
<text font-family="EB Garamond" font-size="2.4697" text-anchor="start" fill="currentColor">
<tspan>det</tspan>
</text>
</g>
<g transform="translate(91.4420, 23.2844)">
<path transform="scale(0.0040, -0.0040)" d="M218 136c66 0 108 -36 108 -89c0 -89 -113 -183 -218 -183c-66 0 -108 36 -108 89c0 89 113 183 218 183z" fill="currentColor"/>
</g>
<g transform="translate(90.5918, 12.6343)">
<text font-family="EB Garamond" font-size="2.4697" text-anchor="start" fill="currentColor">
<tspan>det</tspan>
</text>
</g>
<g transform="translate(91.4420, 7.0775)">
<path transform="scale(0.0040, -0.0040)" d="M218 136c66 0 108 -36 108 -89c0 -89 -113 -183 -218 -183c-66 0 -108 36 -108 89c0 89 113 183 218 183z" fill="currentColor"/>
</g>
<g transform="translate(80.8358, 12.6343)">
<text font-family="EB Garamond" font-size="2.4697" text-anchor="start" fill="currentColor">
<tspan>cle</tspan>
</text>
</g>
<g transform="translate(89.2697, 42.9912)">
<path transform="scale(0.0040, -0.0040)" d="M0 0c0 31 25 56 56 56s56 -25 56 -56s-25 -56 -56 -56s-56 25 -56 56z" fill="currentColor"/>
</g>
<g transform="translate(87.9347, 25.2844)">
<rect x="-0.0650" y="-2.3139" width="0.1300" height="3.3139" ry="0.0400" fill="currentColor"/>
</g>
<g transform="translate(87.9347, 7.0775)">
<rect x="-0.0650" y="-0.3139" width="0.1300" height="3.3139" ry="0.0400" fill="currentColor"/>
</g>
<g transform="translate(87.8697, 43.4912)">
<path transform="scale(0.0040, -0.0040)" d="M-6 78c0 59 124 83 124 182c0 24 -8 49 -25 69l-35 42c-3 3 -4 7 -4 10c0 9 9 15 17 15c4 0 8 -1 11 -5l151 -180c7 -9 10 -17 10 -25c0 -59 -124 -83 -124 -182c0 -24 7 -49 24 -69l84 -99c3 -3 4 -7 4 -10c0 -9 -8 -16 -16 -16s-45 44 -109 44c-16 0 -53 0 -53 -67
c0 -35 11 -74 28 -94c7 -8 -5 -19 -12 -11c-45 54 -92 148 -92 202c0 41 27 42 40 42c33 0 78 -13 119 -31l-132 158c-7 9 -10 17 -10 25z" fill="currentColor"/>
</g>
<g transform="translate(87.1561, 30.7844)">
<text font-family="EB Garamond" font-size="2.4697" text-anchor="start" fill="currentColor">
<tspan>stu</tspan>
</text>
</g>
<g transform="translate(87.8697, 22.7844)">
<path transform="scale(0.0040, -0.0040)" d="M218 136c66 0 108 -36 108 -89c0 -89 -113 -183 -218 -183c-66 0 -108 36 -108 89c0 89 113 183 218 183z" fill="currentColor"/>
</g>
<g transform="translate(87.1561, 12.6343)">
<text font-family="EB Garamond" font-size="2.4697" text-anchor="start" fill="currentColor">
<tspan>stu</tspan>
</text>
</g>
<g transform="translate(22.6978, 24.2844)">
<path transform="scale(0.0032, -0.0032)" d="M212 138c68 0 113 -38 113 -95c0 -90 -109 -181 -212 -181c-68 0 -113 38 -113 95c0 90 109 181 212 181z" fill="currentColor"/>
</g>
<g transform="translate(25.4432, 7.0775)">
<rect x="-0.0650" y="-0.3640" width="0.1300" height="3.1740" ry="0.0400" fill="currentColor"/>
</g>
<g transform="translate(25.3782, 23.7844)">
<path transform="scale(0.0040, -0.0040)" d="M218 136c66 0 108 -36 108 -89c0 -89 -113 -183 -218 -183c-66 0 -108 36 -108 89c0 89 113 183 218 183z" fill="currentColor"/>
</g>
<g transform="translate(25.3782, 6.5775)">
<path transform="scale(0.0032, -0.0032)" d="M212 138c68 0 113 -38 113 -95c0 -90 -109 -181 -212 -181c-68 0 -113 38 -113 95c0 90 109 181 212 181z" fill="currentColor"/>
</g>
<g transform="translate(22.7628, 25.2844)">
<rect x="-0.0650" y="-0.8640" width="0.1300" height="2.6740" ry="0.0400" fill="currentColor"/>
</g>
<g transform="translate(22.7628, 7.0775)">
<rect x="-0.0650" y="0.1861" width="0.1300" height="2.6239" ry="0.0400" fill="currentColor"/>
</g>
<g transform="translate(22.6978, 7.0775)">
<path transform="scale(0.0040, -0.0040)" d="M218 136c66 0 108 -36 108 -89c0 -89 -113 -183 -218 -183c-66 0 -108 36 -108 89c0 89 113 183 218 183z" fill="currentColor"/>
</g>
<g transform="translate(21.2458, 43.4912)">
<rect x="-0.0650" y="-2.0000" width="0.1300" height="3.3139" ry="0.0400" fill="currentColor"/>
</g>
<g transform="translate(21.7608, 44.9912)">
<path transform="scale(0.0040, -0.0040)" d="M0 0c0 31 25 56 56 56s56 -25 56 -56s-25 -56 -56 -56s-56 25 -56 56z" fill="currentColor"/>
</g>
<g transform="translate(20.0716, 25.2844)">
<rect x="-0.0650" y="-1.8139" width="0.1300" height="3.6239" ry="0.0400" fill="currentColor"/>
</g>
<g transform="translate(28.1236, 25.2844)">
<rect x="-0.0650" y="-0.8139" width="0.1300" height="3.3139" ry="0.0400" fill="currentColor"/>
</g>
<g transform="translate(31.8209, 7.0775)">
<rect x="-0.0650" y="-1.8139" width="0.1300" height="3.3139" ry="0.0400" fill="currentColor"/>
</g>
<g transform="translate(31.6227, 30.7844)">
<text font-family="EB Garamond" font-size="2.4697" text-anchor="start" fill="currentColor">
<tspan>ri</tspan>
</text>
</g>
<g transform="translate(31.7559, 24.7844)">
<path transform="scale(0.0040, -0.0040)" d="M218 136c66 0 108 -36 108 -89c0 -89 -113 -183 -218 -183c-66 0 -108 36 -108 89c0 89 113 183 218 183z" fill="currentColor"/>
</g>
<g transform="translate(31.6227, 12.6343)">
<text font-family="EB Garamond" font-size="2.4697" text-anchor="start" fill="currentColor">
<tspan>ri</tspan>
</text>
</g>
<g transform="translate(31.7559, 5.0775)">
<path transform="scale(0.0040, -0.0040)" d="M218 136c66 0 108 -36 108 -89c0 -89 -113 -183 -218 -183c-66 0 -108 36 -108 89c0 89 113 183 218 183z" fill="currentColor"/>
</g>
<g transform="translate(29.2978, 43.4912)">
<rect x="-0.0650" y="-2.5000" width="0.1300" height="3.3139" ry="0.0400" fill="currentColor"/>
</g>
<g transform="translate(29.8128, 43.9912)">
<path transform="scale(0.0040, -0.0040)" d="M0 0c0 31 25 56 56 56s56 -25 56 -56s-25 -56 -56 -56s-56 25 -56 56z" fill="currentColor"/>
</g>
<g transform="translate(28.1236, 7.0775)">
<rect x="-0.0650" y="-0.8139" width="0.1300" height="3.3139" ry="0.0400" fill="currentColor"/>
</g>
<g transform="translate(28.0586, 44.4912)">
<path transform="scale(0.0040, -0.0040)" d="M218 136c66 0 108 -36 108 -89c0 -89 -113 -183 -218 -183c-66 0 -108 36 -108 89c0 89 113 183 218 183z" fill="currentColor"/>
</g>
<g transform="translate(27.7206, 30.7844)">
<text font-family="EB Garamond" font-size="2.4697" text-anchor="start" fill="currentColor">
<tspan>ve</tspan>
</text>
</g>
<g transform="translate(28.0586, 24.2844)">
<path transform="scale(0.0040, -0.0040)" d="M218 136c66 0 108 -36 108 -89c0 -89 -113 -183 -218 -183c-66 0 -108 36 -108 89c0 89 113 183 218 183z" fill="currentColor"/>
</g>
<g transform="translate(27.7206, 12.6343)">
<text font-family="EB Garamond" font-size="2.4697" text-anchor="start" fill="currentColor">
<tspan>ve</tspan>
</text>
</g>
<g transform="translate(28.0586, 6.0775)">
<path transform="scale(0.0040, -0.0040)" d="M218 136c66 0 108 -36 108 -89c0 -89 -113 -183 -218 -183c-66 0 -108 36 -108 89c0 89 113 183 218 183z" fill="currentColor"/>
</g>
<g transform="translate(25.4432, 25.2844)">
<rect x="-0.0650" y="-1.3139" width="0.1300" height="3.1239" ry="0.0400" fill="currentColor"/>
</g>
<g transform="translate(10.7812, 8.0775)">
<path transform="scale(0.0040, -0.0040)" d="M266 -635h-6c-108 0 -195 88 -195 197c0 58 53 103 112 103c54 0 95 -47 95 -103c0 -52 -43 -95 -95 -95c-11 0 -21 2 -31 6c26 -39 68 -65 117 -65h4zM461 -203c68 24 113 90 113 164c0 90 -66 179 -173 190c19 -89 48 -242 60 -354zM74 28c0 -145 141 -247 264 -247
c1 0 47 0 82 6c-7 64 -29 203 -63 364c-79 -8 -124 -61 -124 -119c0 -44 25 -91 81 -123c5 -5 7 -10 7 -15c0 -11 -10 -22 -22 -22c-15 0 -126 62 -126 187c0 88 58 174 160 197c-14 58 -29 117 -46 175c-107 -121 -213 -243 -213 -403zM250 553c-29 96 -52 170 -52 346
c0 115 55 224 149 292c6 5 14 5 20 0c68 -80 133 -245 133 -358c0 -143 -86 -255 -180 -364c21 -68 39 -138 56 -207c2 0 7 1 13 1c155 0 256 -128 256 -261c0 -113 -74 -212 -180 -246c3 -35 5 -70 5 -105c0 -19 -1 -39 -2 -58c-7 -119 -88 -225 -202 -228l1 43
c93 2 153 92 159 191c1 18 2 37 2 55c0 31 -1 61 -4 92c-5 -1 -44 -8 -89 -8c-193 0 -333 180 -333 374c0 177 131 306 248 441zM428 916c0 34 1 66 -20 129c-99 -48 -162 -149 -162 -259c0 -52 12 -115 36 -194c80 97 146 198 146 324z" fill="currentColor"/>
</g>
<g transform="translate(11.4829, 47.8159)">
<text font-family="EB Garamond" font-style="italic" font-size="1.3862" text-anchor="start" fill="currentColor">
<tspan>8</tspan>
</text>
</g>
<g transform="translate(10.7812, 44.4912)">
<path transform="scale(0.0040, -0.0040)" d="M266 -635h-6c-108 0 -195 88 -195 197c0 58 53 103 112 103c54 0 95 -47 95 -103c0 -52 -43 -95 -95 -95c-11 0 -21 2 -31 6c26 -39 68 -65 117 -65h4zM461 -203c68 24 113 90 113 164c0 90 -66 179 -173 190c19 -89 48 -242 60 -354zM74 28c0 -145 141 -247 264 -247
c1 0 47 0 82 6c-7 64 -29 203 -63 364c-79 -8 -124 -61 -124 -119c0 -44 25 -91 81 -123c5 -5 7 -10 7 -15c0 -11 -10 -22 -22 -22c-15 0 -126 62 -126 187c0 88 58 174 160 197c-14 58 -29 117 -46 175c-107 -121 -213 -243 -213 -403zM250 553c-29 96 -52 170 -52 346
c0 115 55 224 149 292c6 5 14 5 20 0c68 -80 133 -245 133 -358c0 -143 -86 -255 -180 -364c21 -68 39 -138 56 -207c2 0 7 1 13 1c155 0 256 -128 256 -261c0 -113 -74 -212 -180 -246c3 -35 5 -70 5 -105c0 -19 -1 -39 -2 -58c-7 -119 -88 -225 -202 -228l1 43
c93 2 153 92 159 191c1 18 2 37 2 55c0 31 -1 61 -4 92c-5 -1 -44 -8 -89 -8c-193 0 -333 180 -333 374c0 177 131 306 248 441zM428 916c0 34 1 66 -20 129c-99 -48 -162 -149 -162 -259c0 -52 12 -115 36 -194c80 97 146 198 146 324z" fill="currentColor"/>
</g>
<g transform="translate(15.7812, 44.9912)">
<path transform="scale(0.0040, -0.0040)" d="M218 136c66 0 108 -36 108 -89c0 -89 -113 -183 -218 -183c-66 0 -108 36 -108 89c0 89 113 183 218 183z" fill="currentColor"/>
</g>
<g transform="translate(15.7812, 30.7844)">
<text font-family="EB Garamond" font-size="2.4697" text-anchor="start" fill="currentColor">
<tspan>In</tspan>
</text>
</g>
<g transform="translate(11.4829, 29.6090)">
<text font-family="EB Garamond" font-style="italic" font-size="1.3862" text-anchor="start" fill="currentColor">
<tspan>8</tspan>
</text>
</g>
<g transform="translate(10.7812, 26.2844)">
<path transform="scale(0.0040, -0.0040)" d="M266 -635h-6c-108 0 -195 88 -195 197c0 58 53 103 112 103c54 0 95 -47 95 -103c0 -52 -43 -95 -95 -95c-11 0 -21 2 -31 6c26 -39 68 -65 117 -65h4zM461 -203c68 24 113 90 113 164c0 90 -66 179 -173 190c19 -89 48 -242 60 -354zM74 28c0 -145 141 -247 264 -247
c1 0 47 0 82 6c-7 64 -29 203 -63 364c-79 -8 -124 -61 -124 -119c0 -44 25 -91 81 -123c5 -5 7 -10 7 -15c0 -11 -10 -22 -22 -22c-15 0 -126 62 -126 187c0 88 58 174 160 197c-14 58 -29 117 -46 175c-107 -121 -213 -243 -213 -403zM250 553c-29 96 -52 170 -52 346
c0 115 55 224 149 292c6 5 14 5 20 0c68 -80 133 -245 133 -358c0 -143 -86 -255 -180 -364c21 -68 39 -138 56 -207c2 0 7 1 13 1c155 0 256 -128 256 -261c0 -113 -74 -212 -180 -246c3 -35 5 -70 5 -105c0 -19 -1 -39 -2 -58c-7 -119 -88 -225 -202 -228l1 43
c93 2 153 92 159 191c1 18 2 37 2 55c0 31 -1 61 -4 92c-5 -1 -44 -8 -89 -8c-193 0 -333 180 -333 374c0 177 131 306 248 441zM428 916c0 34 1 66 -20 129c-99 -48 -162 -149 -162 -259c0 -52 12 -115 36 -194c80 97 146 198 146 324z" fill="currentColor"/>
</g>
<g transform="translate(15.7812, 23.2844)">
<path transform="scale(0.0040, -0.0040)" d="M218 136c66 0 108 -36 108 -89c0 -89 -113 -183 -218 -183c-66 0 -108 36 -108 89c0 89 113 183 218 183z" fill="currentColor"/>
</g>
<g transform="translate(15.7812, 12.6343)">
<text font-family="EB Garamond" font-size="2.4697" text-anchor="start" fill="currentColor">
<tspan>[In</tspan>
</text>
</g>
<g transform="translate(11.4829, 11.4022)">
<text font-family="EB Garamond" font-style="italic" font-size="1.3862" text-anchor="start" fill="currentColor">
<tspan>8</tspan>
</text>
</g>
<g transform="translate(15.7812, 48.9912)">
<text font-family="EB Garamond" font-size="2.4697" text-anchor="start" fill="currentColor">
<tspan>Veritatem</tspan>
</text>
</g>
<g transform="translate(15.7812, 6.5775)">
<path transform="scale(0.0040, -0.0040)" d="M218 136c66 0 108 -36 108 -89c0 -89 -113 -183 -218 -183c-66 0 -108 36 -108 89c0 89 113 183 218 183z" fill="currentColor"/>
</g>
<g transform="translate(9.9212, 25.2844)">
<rect x="0.0000" y="-20.2569" width="0.1600" height="40.5138" ry="0.0500" fill="currentColor"/>
</g>
<g transform="translate(8.6712, 4.8025)">
<path transform="scale(0.0040, -0.0040)" d="M0 -56v87c0 14 11 25 25 25h50c159 0 271 136 362 270c12 17 38 -1 26 -18c-99 -144 -215 -364 -388 -364h-75z" fill="currentColor"/>
</g>
<g transform="translate(8.6712, 45.7662)">
<path transform="scale(0.0040, -0.0040)" d="M0 56h75c173 0 289 -220 388 -364c12 -17 -14 -35 -26 -18c-91 134 -203 270 -362 270h-50c-14 0 -25 11 -25 25v87z" fill="currentColor"/>
</g>
<g transform="translate(8.6712, 25.2844)">
<rect x="0.0000" y="-20.3019" width="0.4500" height="40.6038" ry="0.0000" fill="currentColor"/>
</g>
<g transform="translate(1.5426, 44.1601)">
<text font-family="EB Garamond" font-size="2.2000" text-anchor="start" fill="currentColor">
<tspan>Tenor</tspan>
</text>
</g>
<g transform="translate(0.6890, 25.9268)">
<text font-family="EB Garamond" font-size="2.2000" text-anchor="start" fill="currentColor">
<tspan>Motetus</tspan>
</text>
</g>
<g transform="translate(0.5524, 7.5263)">
<text font-family="EB Garamond" font-size="2.2000" text-anchor="start" fill="currentColor">
<tspan>Triplum</tspan>
</text>
</g>
<g transform="translate(17.0204, 43.4912)">
<rect x="-0.0650" y="-2.0000" width="0.1300" height="3.3139" ry="0.0400" fill="currentColor"/>
</g>
<g transform="translate(20.0716, 7.0775)">
<rect x="-0.0650" y="-0.3139" width="0.1300" height="3.1239" ry="0.0400" fill="currentColor"/>
</g>
<g transform="translate(20.0066, 44.9912)">
<path transform="scale(0.0040, -0.0040)" d="M218 136c66 0 108 -36 108 -89c0 -89 -113 -183 -218 -183c-66 0 -108 36 -108 89c0 89 113 183 218 183z" fill="currentColor"/>
</g>
<g transform="translate(20.0066, 23.2844)">
<path transform="scale(0.0040, -0.0040)" d="M218 136c66 0 108 -36 108 -89c0 -89 -113 -183 -218 -183c-66 0 -108 36 -108 89c0 89 113 183 218 183z" fill="currentColor"/>
</g>
<g transform="translate(20.0066, 6.5775)">
<path transform="scale(0.0040, -0.0040)" d="M218 136c66 0 108 -36 108 -89c0 -89 -113 -183 -218 -183c-66 0 -108 36 -108 89c0 89 113 183 218 183z" fill="currentColor"/>
</g>
<g transform="translate(56.6927, 24.7844)">
<path transform="scale(0.0040, -0.0040)" d="M218 136c66 0 108 -36 108 -89c0 -89 -113 -183 -218 -183c-66 0 -108 36 -108 89c0 89 113 183 218 183z" fill="currentColor"/>
</g>
<g transform="translate(17.5354, 44.9912)">
<path transform="scale(0.0040, -0.0040)" d="M0 0c0 31 25 56 56 56s56 -25 56 -56s-25 -56 -56 -56s-56 25 -56 56z" fill="currentColor"/>
</g>
<g transform="translate(15.8462, 25.2844)">
<rect x="-0.0650" y="-1.8139" width="0.1300" height="3.3139" ry="0.0400" fill="currentColor"/>
</g>
<g transform="translate(17.5354, 22.7844)">
<path transform="scale(0.0040, -0.0040)" d="M0 0c0 31 25 56 56 56s56 -25 56 -56s-25 -56 -56 -56s-56 25 -56 56z" fill="currentColor"/>
</g>
<g transform="translate(15.8462, 7.0775)">
<rect x="-0.0650" y="-0.3139" width="0.1300" height="3.3139" ry="0.0400" fill="currentColor"/>
</g>
<g transform="translate(17.5354, 6.5775)">
<path transform="scale(0.0040, -0.0040)" d="M0 0c0 31 25 56 56 56s56 -25 56 -56s-25 -56 -56 -56s-56 25 -56 56z" fill="currentColor"/>
</g>
<g transform="translate(48.3089, 7.0775)">
<rect x="-0.0650" y="-1.8139" width="0.1300" height="3.0109" ry="0.0400" fill="currentColor"/>
</g>
<g transform="translate(48.2439, 43.9912)">
<path transform="scale(0.0040, -0.0040)" d="M218 136c66 0 108 -36 108 -89c0 -89 -113 -183 -218 -183c-66 0 -108 36 -108 89c0 89 113 183 218 183z" fill="currentColor"/>
</g>
<g transform="translate(48.2439, 25.7844)">
<path transform="scale(0.0040, -0.0040)" d="M218 136c66 0 108 -36 108 -89c0 -89 -113 -183 -218 -183c-66 0 -108 36 -108 89c0 89 113 183 218 183z" fill="currentColor"/>
</g>
<g transform="translate(48.2439, 12.6343)">
<text font-family="EB Garamond" font-size="2.4697" text-anchor="start" fill="currentColor">
<tspan>pe</tspan>
</text>
</g>
<g transform="translate(48.2439, 5.0775)">
<path transform="scale(0.0040, -0.0040)" d="M218 136c66 0 108 -36 108 -89c0 -89 -113 -183 -218 -183c-66 0 -108 36 -108 89c0 89 113 183 218 183z" fill="currentColor"/>
</g>
<g transform="translate(45.4686, 43.4912)">
<rect x="-0.0650" y="-3.0000" width="0.1300" height="3.3139" ry="0.0400" fill="currentColor"/>
</g>
<g transform="translate(45.9836, 43.9912)">
<path transform="scale(0.0040, -0.0040)" d="M0 0c0 31 25 56 56 56s56 -25 56 -56s-25 -56 -56 -56s-56 25 -56 56z" fill="currentColor"/>
</g>
<g transform="translate(45.4686, 25.2844)">
<rect x="-0.0650" y="-3.0000" width="0.1300" height="3.3139" ry="0.0400" fill="currentColor"/>
</g>
<g transform="translate(45.9836, 25.7844)">
<path transform="scale(0.0040, -0.0040)" d="M0 0c0 31 25 56 56 56s56 -25 56 -56s-25 -56 -56 -56s-56 25 -56 56z" fill="currentColor"/>
</g>
<g transform="translate(31.8859, 8.5375)">
<path transform="scale(0.0040, -0.0040)" d="M0 0h-16v250h16v-250zM0 0v250c97 59 224 148 224 259c0 57 -15 112 -40 163c-3 16 10 27 23 27c7 0 15 -3 20 -11c25 -56 40 -117 40 -179c0 -203 -267 -306 -267 -509z" fill="currentColor"/>
</g>
<g transform="translate(45.9836, 5.5775)">
<path transform="scale(0.0040, -0.0040)" d="M0 0c0 31 25 56 56 56s56 -25 56 -56s-25 -56 -56 -56s-56 25 -56 56z" fill="currentColor"/>
</g>
<g transform="translate(44.2294, 43.9912)">
<path transform="scale(0.0040, -0.0040)" d="M218 136c66 0 108 -36 108 -89c0 -89 -113 -183 -218 -183c-66 0 -108 36 -108 89c0 89 113 183 218 183z" fill="currentColor"/>
</g>
<g transform="translate(44.2294, 30.7844)">
<text font-family="EB Garamond" font-size="2.4697" text-anchor="start" fill="currentColor">
<tspan>pe</tspan>
</text>
</g>
<g transform="translate(44.2294, 25.7844)">
<path transform="scale(0.0040, -0.0040)" d="M218 136c66 0 108 -36 108 -89c0 -89 -113 -183 -218 -183c-66 0 -108 36 -108 89c0 89 113 183 218 183z" fill="currentColor"/>
</g>
<g transform="translate(42.7988, 12.6343)">
<text font-family="EB Garamond" font-size="2.4697" text-anchor="start" fill="currentColor">
<tspan>com</tspan>
</text>
</g>
<g transform="translate(44.2294, 5.5775)">
<path transform="scale(0.0040, -0.0040)" d="M218 136c66 0 108 -36 108 -89c0 -89 -113 -183 -218 -183c-66 0 -108 36 -108 89c0 89 113 183 218 183z" fill="currentColor"/>
</g>
<g transform="translate(56.5595, 30.7844)">
<text font-family="EB Garamond" font-size="2.4697" text-anchor="start" fill="currentColor">
<tspan>ri</tspan>
</text>
</g>
<g transform="translate(56.5595, 12.6343)">
<text font-family="EB Garamond" font-size="2.4697" text-anchor="start" fill="currentColor">
<tspan>ri</tspan>
</text>
</g>
<g transform="translate(56.6927, 6.5775)">
<path transform="scale(0.0040, -0.0040)" d="M218 136c66 0 108 -36 108 -89c0 -89 -113 -183 -218 -183c-66 0 -108 36 -108 89c0 89 113 183 218 183z" fill="currentColor"/>
</g>
<g transform="translate(54.0065, 28.6194)">
<path transform="scale(0.0040, -0.0040)" d="M0 0h-16v250h16v-250zM0 0v250c97 59 224 148 224 259c0 57 -15 112 -40 163c-3 16 10 27 23 27c7 0 15 -3 20 -11c25 -56 40 -117 40 -179c0 -203 -267 -306 -267 -509z" fill="currentColor"/>
</g>
<g transform="translate(53.9415, 25.2844)">
<rect x="-0.0650" y="0.1861" width="0.1300" height="3.1889" ry="0.0400" fill="currentColor"/>
</g>
<g transform="translate(53.9415, 7.0775)">
<rect x="-0.0650" y="-0.8139" width="0.1300" height="2.6169" ry="0.0400" fill="currentColor"/>
</g>
<g transform="translate(53.8765, 25.2844)">
<path transform="scale(0.0040, -0.0040)" d="M218 136c66 0 108 -36 108 -89c0 -89 -113 -183 -218 -183c-66 0 -108 36 -108 89c0 89 113 183 218 183z" fill="currentColor"/>
</g>
<g transform="translate(53.8765, 6.0775)">
<path transform="scale(0.0040, -0.0040)" d="M218 136c66 0 108 -36 108 -89c0 -89 -113 -183 -218 -183c-66 0 -108 36 -108 89c0 89 113 183 218 183z" fill="currentColor"/>
</g>
<g transform="translate(44.2944, 7.0775)">
<rect x="-0.0650" y="-1.3139" width="0.1300" height="3.3139" ry="0.0400" fill="currentColor"/>
</g>
<g transform="translate(51.1252, 7.0775)">
<rect x="-0.0650" y="-1.3139" width="0.1300" height="2.8139" ry="0.0400" fill="currentColor"/>
</g>
<g transform="translate(51.0602, 5.5775)">
<path transform="scale(0.0040, -0.0040)" d="M218 136c66 0 108 -36 108 -89c0 -89 -113 -183 -218 -183c-66 0 -108 36 -108 89c0 89 113 183 218 183z" fill="currentColor"/>
</g>
<g transform="translate(49.4831, 43.4912)">
<rect x="-0.0650" y="-3.0000" width="0.1300" height="3.3139" ry="0.0400" fill="currentColor"/>
</g>
<g transform="translate(49.9981, 43.9912)">
<path transform="scale(0.0040, -0.0040)" d="M0 0c0 31 25 56 56 56s56 -25 56 -56s-25 -56 -56 -56s-56 25 -56 56z" fill="currentColor"/>
</g>
<g transform="translate(49.4831, 25.2844)">
<rect x="-0.0650" y="-3.0000" width="0.1300" height="3.3139" ry="0.0400" fill="currentColor"/>
</g>
<g transform="translate(37.4535, 25.2844)">
<rect x="-0.0650" y="-1.3139" width="0.1300" height="3.2959" ry="0.0400" fill="currentColor"/>
</g>
<g transform="translate(37.1528, 30.7844)">
<text font-family="EB Garamond" font-size="2.4697" text-anchor="start" fill="currentColor">
<tspan>te</tspan>
</text>
</g>
<g transform="translate(37.3885, 23.7844)">
<path transform="scale(0.0040, -0.0040)" d="M218 136c66 0 108 -36 108 -89c0 -89 -113 -183 -218 -183c-66 0 -108 36 -108 89c0 89 113 183 218 183z" fill="currentColor"/>
</g>
<g transform="translate(35.9722, 42.9912)">
<path transform="scale(0.0040, -0.0040)" d="M0 0c0 31 25 56 56 56s56 -25 56 -56s-25 -56 -56 -56s-56 25 -56 56z" fill="currentColor"/>
</g>
<g transform="translate(34.6372, 25.2844)">
<rect x="-0.0650" y="-0.8139" width="0.1300" height="2.6278" ry="0.0400" fill="currentColor"/>
</g>
<g transform="translate(34.6372, 7.0775)">
<rect x="-0.0650" y="-1.3139" width="0.1300" height="3.3139" ry="0.0400" fill="currentColor"/>
</g>
<g transform="translate(34.5722, 43.4912)">
<path transform="scale(0.0040, -0.0040)" d="M-6 78c0 59 124 83 124 182c0 24 -8 49 -25 69l-35 42c-3 3 -4 7 -4 10c0 9 9 15 17 15c4 0 8 -1 11 -5l151 -180c7 -9 10 -17 10 -25c0 -59 -124 -83 -124 -182c0 -24 7 -49 24 -69l84 -99c3 -3 4 -7 4 -10c0 -9 -8 -16 -16 -16s-45 44 -109 44c-16 0 -53 0 -53 -67
c0 -35 11 -74 28 -94c7 -8 -5 -19 -12 -11c-45 54 -92 148 -92 202c0 41 27 42 40 42c33 0 78 -13 119 -31l-132 158c-7 9 -10 17 -10 25z" fill="currentColor"/>
</g>
<g transform="translate(34.3024, 30.7844)">
<text font-family="EB Garamond" font-size="2.4697" text-anchor="start" fill="currentColor">
<tspan>ta</tspan>
</text>
</g>
<g transform="translate(34.5722, 24.2844)">
<path transform="scale(0.0040, -0.0040)" d="M218 136c66 0 108 -36 108 -89c0 -89 -113 -183 -218 -183c-66 0 -108 36 -108 89c0 89 113 183 218 183z" fill="currentColor"/>
</g>
<g transform="translate(34.3024, 12.6343)">
<text font-family="EB Garamond" font-size="2.4697" text-anchor="start" fill="currentColor">
<tspan>ta</tspan>
</text>
</g>
<g transform="translate(34.5722, 5.5775)">
<path transform="scale(0.0040, -0.0040)" d="M218 136c66 0 108 -36 108 -89c0 -89 -113 -183 -218 -183c-66 0 -108 36 -108 89c0 89 113 183 218 183z" fill="currentColor"/>
</g>
<g transform="translate(31.8859, 28.2444)">
<path transform="scale(0.0040, -0.0040)" d="M0 0h-16v250h16v-250zM0 0v250c97 59 224 148 224 259c0 57 -15 112 -40 163c-3 16 10 27 23 27c7 0 15 -3 20 -11c25 -56 40 -117 40 -179c0 -203 -267 -306 -267 -509z" fill="currentColor"/>
</g>
<g transform="translate(31.8209, 25.2844)">
<rect x="-0.0650" y="-0.3139" width="0.1300" height="3.3139" ry="0.0400" fill="currentColor"/>
</g>
<g transform="translate(40.8739, 7.0775)">
<rect x="-0.0650" y="-2.3139" width="0.1300" height="3.3139" ry="0.0400" fill="currentColor"/>
</g>
<g transform="translate(39.3783, 30.7844)">
<text font-family="EB Garamond" font-size="2.4697" text-anchor="start" fill="currentColor">
<tspan>com</tspan>
</text>
</g>
<g transform="translate(40.8089, 24.7844)">
<path transform="scale(0.0040, -0.0040)" d="M218 136c66 0 108 -36 108 -89c0 -89 -113 -183 -218 -183c-66 0 -108 36 -108 89c0 89 113 183 218 183z" fill="currentColor"/>
</g>
<g transform="translate(40.5733, 12.6343)">
<text font-family="EB Garamond" font-size="2.4697" text-anchor="start" fill="currentColor">
<tspan>te</tspan>
</text>
</g>
<g transform="translate(40.9389, 8.0375)">
<path transform="scale(0.0040, -0.0040)" d="M0 0h-16v250h16v-250zM0 0v250c97 59 224 148 224 259c0 57 -15 112 -40 163c-3 16 10 27 23 27c7 0 15 -3 20 -11c25 -56 40 -117 40 -179c0 -203 -267 -306 -267 -509z" fill="currentColor"/>
</g>
<g transform="translate(40.8739, 25.2844)">
<rect x="-0.0650" y="-0.3139" width="0.1300" height="2.5000" ry="0.0400" fill="currentColor"/>
</g>
<g transform="translate(40.8089, 4.5775)">
<path transform="scale(0.0040, -0.0040)" d="M218 136c66 0 108 -36 108 -89c0 -89 -113 -183 -218 -183c-66 0 -108 36 -108 89c0 89 113 183 218 183z" fill="currentColor"/>
</g>
</svg>
