<?xml version="1.0" encoding="UTF-8" standalone="no"?>
<svg
   xmlns:dc="http://purl.org/dc/elements/1.1/"
   xmlns:cc="http://creativecommons.org/ns#"
   xmlns:rdf="http://www.w3.org/1999/02/22-rdf-syntax-ns#"
   xmlns:svg="http://www.w3.org/2000/svg"
   xmlns="http://www.w3.org/2000/svg"
   xmlns:sodipodi="http://sodipodi.sourceforge.net/DTD/sodipodi-0.dtd"
   xmlns:inkscape="http://www.inkscape.org/namespaces/inkscape"
   width="16.0px"
   height="16.0px"
   viewBox="0 0 16.0 16.0"
   version="1.1"
   id="SVGRoot"
   sodipodi:docname="favicon.svg"
   inkscape:version="1.0.2 (e86c870879, 2021-01-15, custom)">
  <defs
     id="defs18" />
  <sodipodi:namedview
     id="base"
     pagecolor="#ffffff"
     bordercolor="#666666"
     borderopacity="1.0"
     inkscape:pageopacity="0.0"
     inkscape:pageshadow="2"
     inkscape:zoom="47.320011"
     inkscape:cx="11.833107"
     inkscape:cy="14.617644"
     inkscape:document-units="px"
     inkscape:current-layer="layer1"
     inkscape:document-rotation="0"
     showgrid="true"
     inkscape:window-width="1920"
     inkscape:window-height="1001"
     inkscape:window-x="-9"
     inkscape:window-y="-9"
     inkscape:window-maximized="1">
    <inkscape:grid
       type="xygrid"
       id="grid27" />
  </sodipodi:namedview>
  <metadata
     id="metadata21">
    <rdf:RDF>
      <cc:Work
         rdf:about="">
        <dc:format>image/svg+xml</dc:format>
        <dc:type
           rdf:resource="http://purl.org/dc/dcmitype/StillImage" />
        <dc:title />
      </cc:Work>
    </rdf:RDF>
  </metadata>
  <g
     inkscape:label="Layer 1"
     inkscape:groupmode="layer"
     id="layer1">
    <rect
       style="fill:#ffffff;fill-opacity:1;stroke:none;stroke-width:0.0821428"
       id="rect845"
       width="14.76"
       height="16"
       x="0.66399997"
       y="0.028999999" />
    <g
       aria-label="T"
       id="text40"
       style="font-style:normal;font-weight:normal;font-size:75.0001px;line-height:1.25;font-family:sans-serif;fill:#000000;fill-opacity:1;stroke:none;stroke-width:1.875">
      <path
         d="m 14.9845,0.62634811 q -0.04,2.47999999 -0.04,7.39999999 0,4.9199999 0.04,7.3999999 0,0.16 -0.2,0.16 H 1.2644997 q -0.16,0 -0.16,-0.16 V 0.62634811 q 0,-0.16 0.16,-0.16 H 14.7845 q 0.2,0 0.2,0.16 z m -2.16,8.83999999 q 0.32,-0.32 0.4,-0.36 -0.12,0.36 -0.32,0.48 -0.08,0.04 -0.28,0.36 -0.08,0.1599999 -0.04,0.1999999 0.04,0.04 0.2,0.04 0.24,-0.08 0.44,-0.3599999 0.08,-0.2 0.44,-0.28 0.12,0 0.28,0.08 0.12,0.08 0.12,-0.08 -0.04,-0.32 -0.32,-0.44 -0.28,-0.12 -0.52,0.04 0,-0.08 0.12,-0.32 0.12,-0.08 0.16,-0.28 l 0.08,-0.16 v 0.2 q 0,0.16 0.04,0.2 0.12,0.08 0.2,-0.08 0.2,-0.2 0.28,-0.56 0.04,-0.24 -0.04,-0.28 -0.08,-0.08 -0.32,-0.08 h -0.08 -0.16 q -0.12,-0.04 0.04,-0.2 0.12,-0.08 0.32,-0.48 0.04,-0.08 0.08,-0.28 0.08,-0.24 0.12,-0.36 0.12,-0.12 0.04,-0.16 -0.08,-0.08 -0.16,0 -0.08,0.04 -0.24,0.12 -0.12,0.04 -0.16,0.04 -0.36,0.2 -0.44,0.44 l -0.24,0.48 q -0.16,0.16 -0.28,-0.04 -0.08,-0.24 -0.12,-0.32 -0.12,-0.12 -0.16,-0.08 v 0.16 q 0.12,0.12 0.12,0.32 v 0.12 q 0,0.12 0,0.24 0,0.08 0,0.12 v 0.04 q -0.08,0.2 -0.08,0.6 0,0.08 -0.04,0.08 -0.04,0 -0.04,-0.08 0,-0.04 0,-0.04 l -0.04,-0.08 q -0.08,-0.36 -0.4,-1 -0.08,-0.12 -0.24,-0.08 -0.12,0.04 -0.04,0.2 0.16,0.32 0.32,0.96 l 0.24,0.96 q 0,0.04 0,0.12 0,0.08 0,0.16 0,0.08 0,0.12 0,0.1999999 -0.12,0.08 -0.08,-0.04 -0.16,-0.2 -0.56,-1 -0.76,-1.24 -0.16,-0.24 -0.52,-0.48 -0.2,-0.12 -0.36,-0.12 -0.2000003,0 -0.2800003,-0.24 -0.12,-0.24 -0.28,-0.32 -0.28,-0.08 -0.48,0.12 -0.2,0.2 -0.04,0.52 0.16,0.32 0.48,0.2 0.16,-0.08 0.24,-0.16 0.04,-0.08 0.16,-0.04 0.7200003,0.36 0.9600003,0.64 0.32,0.44 0.68,1.12 0.28,0.3599999 0.4,0.4399999 0.12,0.08 0.12,0.32 0,0.16 -0.04,0.52 0,0.32 0,0.48 0,0.12 -0.08,0.28 v 0.04 l -0.04,0.04 -0.04,-0.08 q -0.04,-0.12 -0.08,-0.4 0,-0.28 -0.08,-0.4 l -0.12,-0.24 q -0.4,-0.72 -0.4,-1.0799999 0,-0.08 -0.08,-0.24 -0.08,-0.04 -0.12,0 -0.28,0.44 -0.2,0.6799999 0,0.16 -0.04,0.2 -0.12,0 -0.2,-0.08 -0.08,-0.04 -0.16,-0.2399999 0,-0.04 -0.04,-0.16 0,-0.16 0,-0.24 0.04,-0.32 -0.16,-0.72 -0.04,-0.04 -0.08,-0.04 -0.08,0 -0.08,0.08 0.04,0.16 -0.08,0.48 -0.08,0.28 -0.08,0.4 -0.04,0.2799999 -0.32,0.12 -0.44,-0.24 -0.6,-1 -0.04,-0.04 -0.04,-0.16 0,-0.04 -0.04,-0.04 -0.04,0 -0.04,0.04 v 0.08 q -0.04,0.08 -0.04,0.12 0,0.64 0.12,0.92 0.16,0.5199999 0.4,0.6799999 0.2,0.12 0.04,0.28 -0.04,0.04 -0.16,0.12 l -0.04,0.04 q -0.08,0.04 -0.08,0.08 0.08,0.12 0.16,0.12 0.36,0 0.56,-0.16 0.04,0 0.12,-0.08 H 10.1045 q 0.08,0.04 0,0.12 l -0.04,0.04 q -0.04,0.04 -0.04,0.08 -0.1200003,0.12 -0.1200003,0.28 0,0.24 0.2400003,0.2 0.12,-0.04 0.2,-0.2 0.28,-0.32 0.68,-0.16 0.4,0.2 0.56,0.52 0.04,0.04 0.08,0.12 0.04,0.04 0.08,0.08 0,0.12 0.04,0.2 v 0.24 q 0,0.12 -0.08,0.12 v -0.04 q 0,-0.04 -0.04,-0.04 v -0.16 q -0.04,-0.48 -0.4,-0.76 -0.36,-0.32 -0.72,-0.04 -0.24,0.24 -0.12,0.36 h 0.28 v -0.04 q 0.28,-0.08 0.52,0.08 0.24,0.16 0.28,0.44 0.08,0.32 -0.04,0.6 -0.24,0.64 -0.48,0.88 -0.32,0.32 -0.52,0.4 l -0.08,0.08 q -0.08,0.16 0.08,0.2 0.2,0.08 0.36,-0.08 0.48,-0.4 0.92,-1.12 0.48,-0.8 0.56,-1.2 0.04,-0.24 0.28,-0.56 0.32,-0.4 0.68,-0.08 0.48,0.36 0.96,0 0.12,-0.12 -0.04,-0.2 l -0.24,-0.24 q -0.24,-0.32 -0.52,-0.16 -0.64,0.24 -0.84,0.52 -0.08,0.08 -0.12,0.04 v -0.08 q 0.08,-0.72 0.04,-1.08 -0.08,-0.5199999 0.32,-0.8399999 z m -4.2000003,-1.28 q -0.04,-1.24 0,-2.56 v -0.2 -1.2 q 0,-0.12 0.04,-0.16 0.04,-0.08 0.16,-0.04 0.2,0.04 0.6,0.04 0.24,0 0.6800003,0.08 0.48,0.04 0.56,0.04 1,0.04 2.04,0.64 0.16,0.08 0.4,0.32 0.12,0.12 0.08,0.36 0,0.28 -0.28,0.2 -0.04,0 -0.04,-0.04 0,-0.04 0.04,-0.04 0.16,-0.04 0.12,-0.24 0,-0.2 -0.24,-0.2 -0.2,0.04 -0.32,0.24 -0.12,0.2 0,0.36 0.12,0.16 0.44,0.24 0.32,0.08 0.48,0 0.32,-0.2 0.36,-0.6 0.08,-0.4 -0.2,-0.64 -0.24,-0.16 -0.4,-0.24 -0.08,0 -0.08,-0.08 0,-0.04 0.12,-0.04 0.28,-0.08 0.36,-0.24 0.04,-0.16 -0.08,-0.36 -0.12,-0.08 -0.28,0 -0.32,0.12 -0.6,0.08 -0.24,-0.04 -0.68,-0.2 -0.44,-0.16 -0.68,-0.2 -0.12,0 -0.04,-0.08 l 0.04,-0.04 q 0.28,-0.12 0.84,-0.28 0.44,-0.16 0.92,0.08 0.08,0.08 0.16,0.08 0.12,0.12 0.12,-0.04 0.08,-0.32 -0.2,-0.52 l -0.08,-0.04 q -0.08,-0.04 -0.08,-0.08 0.04,-0.04 0.08,-0.04 l 0.08,-0.04 q 0.12,0 0.16,-0.04 0.52,-0.28 0.36,-0.8 -0.08,-0.28 -0.28,-0.32 -0.08,0 -0.12,0.04 l 0.08,0.08 q 0.24,0.24 0,0.48 -0.08,0.04 -0.16,0.12 -0.08,0.04 -0.12,0.04 -0.44,0.2 -0.8,0.24 -0.56,0.2 -1.48,0.4 -0.7600003,0.2 -2.3200003,0.28 0,0.04 -1.12,0.04 l -1.12,-0.04 q -1.4,-0.04 -3,-0.44 -0.28,-0.12 -0.56,-0.32 -0.08,-0.08 -0.04,-0.2 0.04,-0.04 0.16,0.04 h 0.08 q 0.12,0.04 0.16,-0.04 0.08,-0.08 0.04,-0.2 -0.08,-0.32 -0.36,-0.24 -0.28,0 -0.48,0.28 -0.2,0.24 -0.12,0.56 0.04,0.2 0.36,0.52 0.12,0.12 0.12,0.2 -0.04,0.12 0,0.16 0.04,0.04 0.2,0 0.36,-0.12 1.52,0.16 0.24,0 0,0.16 -0.32,0.16 -0.52,0.2 -0.16,0 -0.36,0.12 -0.24,0.2 -0.64,0.12 -0.16,-0.08 -0.12,-0.2 l 0.04,-0.04 q 0.04,-0.04 0,-0.08 -0.04,-0.04 -0.2,0.04 -0.16,0.04 -0.2,0.24 -0.04,0.2 0.12,0.32 0.16,0.08 0.04,0.24 -0.2,0.24 -0.12,0.6 0.04,0.28 0.32,0.4 0.28,0.12 0.52,0 0.28,-0.16 0.12,-0.4 -0.12,-0.28 -0.4,-0.08 l -0.04,0.04 q -0.04,0.04 -0.08,0 v -0.16 q 0.12,-0.16 0.28,-0.28 0.16,-0.12 0.56,-0.28 0.08,-0.04 1.16,-0.24 l 2.28,-0.12 q 0.2,0 0.16,0.2 0,0.04 -0.04,0.16 0,0.12 0,0.16 0.04,0.28 0.04,0.88 0,0.56 0,0.84 0,0.48 0,1.36 0.04,0.88 0.04,1.36 l -0.12,2.1599999 q -0.04,0.84 -0.48,1.64 -0.24,0.44 -0.64,0.6 -0.24,0.12 -0.4,-0.08 -0.08,-0.08 -0.04,-0.12 h 0.12 q 0.16,0.16 0.28,-0.04 0.04,-0.16 -0.04,-0.32 -0.2,-0.12 -0.36,-0.08 -0.24,0.04 -0.36,0.32 -0.08,0.24 0.04,0.44 0.08,0.2 0.36,0.32 0.6,0.2 1.16,-0.16 l 0.52,-0.2 q 0.16,0.04 0.24,-0.04 0.12,-0.12 0.08,-0.28 -0.12,-0.32 0.04,-0.92 0.24,-0.56 0.24,-0.92 0,-0.2 0.08,-0.2 0.04,0 0.04,0.08 0.04,0.08 0.04,0.12 v 0.04 q 0.12,0.88 0.4,1.52 0.12,0.2 -0.08,0.32 -0.04,0.04 -0.08,0.08 -0.04,0.04 -0.04,0.08 -0.12,0.12 -0.04,0.24 0.12,0.24 0.36,0.16 0.2,0 0.32,-0.16 0.08,-0.2 0.24,-0.04 0.08,0.08 0.24,0.16 0.7200003,0.48 1.4000003,-0.12 0.28,-0.28 0.2,-0.6 -0.08,-0.32 -0.4,-0.4 -0.2,-0.08 -0.36,0.08 -0.1600003,0.12 -0.12,0.32 0,0.2 0.2,0.2 0.2,0 0.2,-0.16 0,-0.12 0.08,-0.12 l 0.08,0.08 q 0,0.16 -0.04,0.2 -0.16,0.32 -0.48,0.16 -0.7600003,-0.2 -1.0000003,-0.92 -0.04,-0.08 -0.16,-0.4 -0.08,-0.32 -0.12,-0.52 -0.16,-0.8 -0.16,-2.4399999 z m -5.68,6.0799999 q 0.08,-0.16 0.08,-0.44 0,-0.04 -0.04,-0.12 0,-0.32 0.2,-0.4 0.16,-0.12 0.48,0.04 0.12,0 0.12,0.08 0.08,0.16 0.2,0.28 0.16,0.12 0.36,0.28 0.2,0.12 0.28,0.2 0.04,0.04 0.12,0.08 l 0.08,0.08 q 0.16,0.04 0.28,-0.12 0.08,-0.16 -0.08,-0.2 -0.16,-0.04 -0.36,-0.24 -0.6,-0.56 -0.96,-1.24 -0.08,-0.16 -0.24,-0.56 -0.08,-0.08 0.04,-0.16 0.04,-0.04 0.16,0.04 0.2,0.16 0.52,0.16 0.4,0 0.56,0.28 l 0.08,0.08 q 0.04,-0.04 0.04,-0.12 0.04,-0.12 -0.24,-0.6 -0.12,-0.12 -0.12,-0.16 0.04,-0.08 0.24,-0.08 0.08,0 0.12,0.04 0.24,0.04 0.52,0.32 0,0.08 0.08,0.08 l 0.04,-0.04 q 0.04,-0.04 0.04,-0.08 0,-0.24 -0.04,-0.36 -0.16,-0.24 0.04,-0.28 0.12,-0.04 0.04,-0.12 0,-0.08 -0.08,-0.08 -0.04,0 -0.12,0.08 -0.04,0.16 -0.24,0.04 l -0.04,-0.04 q -0.04,0 -0.08,0 -0.12,0 -0.12,-0.08 0,-0.08 0.12,-0.08 0.24,-0.08 0.4,-0.08 0.32,-0.04 0.56,0.24 0.04,0 0.04,0.04 0,0.04 0.04,0.08 0.04,0.04 0.12,0 0.12,-0.04 0.12,-0.2 0.08,-0.44 -0.44,-0.6 -0.04,0 -0.16,0 -0.08,-0.04 -0.16,-0.04 -0.08,-0.08 -0.08,-0.12 0,-0.04 0.08,-0.04 0.16,-0.08 0.2,-0.08 0.2,0 0.28,-0.04 0.32,-0.12 0.48,-0.48 0.16,-0.4 0.08,-0.72 0,-0.16 -0.08,-0.16 -0.04,-0.04 -0.12,0.12 -0.16,0.28 -0.36,0.4 l -0.48,0.24 q -0.08,0.08 -0.12,0 -0.04,-0.08 0,-0.12 0,-0.04 0.04,-0.12 0.08,-0.48 -0.2,-0.8 -0.08,-0.08 -0.08,0.04 -0.04,0.08 -0.04,0.2 -0.08,0.4 -0.36,0.56 l -0.08,0.08 q -0.16,0.16 -0.2,0.12 -0.08,-0.04 0,-0.24 0,-0.4 -0.16,-0.68 h -0.04 l -0.04,-0.04 -0.08,0.08 q 0,0.32 -0.28,0.6 -0.44,0.44 -0.56,1.0399999 0,0.08 -0.04,0.08 0,0.08 -0.04,0.08 -0.04,0 -0.04,-0.08 0,-0.1999999 0.04,-0.2799999 0,-0.92 0.28,-1.64 0.04,-0.08 0.12,-0.28 0.12,-0.2 0.16,-0.32 0.08,-0.08 0,-0.08 -0.04,-0.04 -0.12,0 l -0.2,0.2 q -0.2,0.24 -0.36,0.88 0,0.24 -0.16,0.36 -0.16,-0.24 -0.16,-0.4 0,-0.68 0.04,-0.76 0,-0.08 -0.04,-0.12 h -0.12 q -0.24,0.08 -0.36,0.4 0,0.08 -0.08,0.08 -0.12,0 -0.12,-0.08 -0.04,-0.08 -0.12,-0.24 -0.08,-0.16 -0.08,-0.2 -0.16,-0.32 -0.12,-0.6 0,-0.32 0.16,-0.52 0.04,-0.08 0,-0.12 -0.04,-0.04 -0.12,0.04 -0.12,0.12 -0.12,0.16 -0.08,0.12 -0.16,0.28 -0.2,0.56 -0.16,1 0.16,0.52 0.44,0.68 0.12,0.04 -0.04,0.2 -0.08,0 -0.16,0.08 -0.12,0.08 -0.12,0.2 0.04,0.08 0.2,0.08 0.44,0 0.6,0.4 0.08,0.08 0.08,0.12 0.08,0.16 0.24,0.16 0.2,0 0.2,0.2799999 0.04,0.16 0.04,0.48 0,0.32 0,0.52 v 0.08 h -0.04 q -0.04,-0.04 -0.08,-0.04 -0.4,-0.4 -0.96,-0.16 -0.12,0.12 -0.12,0.08 -0.04,-0.04 0.08,-0.16 l 0.04,-0.04 q 0.04,0 0.08,0 0.24,-0.2 0.6,0.04 l 0.08,0.04 q 0.08,-0.08 0,-0.12 -0.08,-0.24 -0.44,-0.28 -0.32,-0.08 -0.48,0.16 -0.16,0.24 -0.24,0.52 -0.08,0.24 0,0.32 0.04,0.04 0.28,-0.08 0.28,-0.24 0.8,-0.08 0.4,0.12 0.52,0.44 0.04,0.12 0.12,0.44 0.12,0.32 0.2,0.48 0.08,0.2 -0.12,0.2 -0.68,-0.12 -1,0.52 -0.16,0.24 -0.2,0.28 l -0.08,0.08 v -0.12 q 0.04,-0.08 0.12,-0.2 0.08,-0.16 0.12,-0.2 0.36,-0.52 0.8,-0.48 0.16,0 0.08,-0.16 l -0.12,-0.12 q -0.16,-0.16 -0.48,-0.16 -0.28,0 -0.44,0.12 -0.24,0.08 -0.24,0.32 -0.08,0.2 0.12,0.12 0.04,0 0.12,0 0.08,-0.04 0.12,-0.04 0.08,0 0.08,0.04 v 0.08 q -0.04,0.04 -0.12,0.08 -0.08,0.04 -0.12,0.08 l -0.12,0.08 q -0.12,0.08 -0.16,0.16 -0.16,0.48 -0.08,0.8 0.04,0.16 0.2,0.12 0.48,-0.2 0.6,-0.6 0,-0.04 0.04,-0.12 0.04,-0.08 0.04,-0.12 0.04,-0.04 0.08,-0.04 0.04,0 0.04,0.08 -0.08,0.16 0.08,0.68 0,0.12 0.12,0.12 z m 5.12,-11.6399999 q -0.64,-0.48 -1.24,-0.44 -0.08,0.04 -0.28,0 -0.2,-0.08 -0.28,-0.08 l -0.08,-0.08 q 0,-0.04 0.08,-0.04 0.16,-0.04 0.48,-0.04 0.6,0 0.92,-0.04 0.64,-0.12 1.12,0.36 0.16,0.16 0.8,0.44 0.08,0.04 0.12,-0.04 0.08,-0.08 0.04,-0.16 0,-0.08 -0.08,-0.16 -0.32,-0.32 -0.56,-0.36 -0.16,0 -0.12,-0.12 l 0.16,-0.08 h 0.32 q 0.2,0.08 0.7600003,0.16 0.72,0.16 1.24,-0.24 0.28,-0.16 0.4,-0.48 0.08,-0.39999999 -0.32,-0.39999999 -0.16,0 -0.36,0.12 -0.6,0.51999999 -1.5200003,0.43999999 -0.56,0 -1.04,0.12 -0.6,0.16 -1.36,0.16 -0.8,0 -1.32,0.24 -0.04,0.04 -0.28,0.12 -0.2,0.04 -0.28,0.12 l -0.04,0.04 q -0.04,0.04 0,0.08 0.08,0 0.08,-0.04 0.92,-0.2 1.6,0.32 0.48,0.32 0.96,0.28 l 0.16,-0.08 q 0.04,-0.04 0,-0.08 -0.04,-0.04 -0.08,-0.04 z M 13.1045,14.226348 q -0.04,-0.16 -0.04,-0.48 v -0.28 q -0.08,-0.36 -0.44,-0.28 -0.16,0.04 -0.04,0.2 0.08,0.08 0.12,0.16 0.08,0.08 0,0.08 h -0.08 l -0.04,-0.04 q -0.56,-0.44 -0.92,0.2 l -0.12,0.24 h 0.28 q 0.36,-0.12 0.48,0.24 0.04,0.04 0.04,0.12 0,0.08 0.04,0.12 0,0.12 0.08,0.12 0.08,0 0.08,-0.12 0.08,-0.36 -0.08,-0.56 0,-0.16 0.04,-0.16 0.04,-0.04 0.12,0.08 0.04,0 0.04,0.04 0,0.04 0.04,0.08 0.04,0.16 0.28,0.48 0.32,0.32 0.72,0.28 0.08,0 0.08,-0.04 0.04,-0.04 -0.04,-0.12 -0.12,-0.04 -0.28,-0.28 v -0.2 h 0.16 l 0.48,0.12 q 0.08,0 0.08,-0.04 0.08,-0.08 -0.04,-0.08 -0.48,-0.32 -0.52,-0.64 -0.04,-0.28 -0.4,-0.44 -0.12,-0.04 -0.2,0.04 -0.04,0.08 0.04,0.16 0.32,0.48 0.52,0.64 0,0.04 0.04,0.04 v 0.04 l -0.04,0.04 q -0.08,-0.08 -0.24,-0.16 -0.16,-0.12 -0.16,0.08 0,0.2 0.04,0.28 0,0.08 -0.08,0.04 z M 5.1844997,5.1863481 q -0.24,0.24 -0.24,0.4 0.12,0.64 0.72,0.48 0.2,-0.08 0.24,-0.2 0.16,-0.2 0.44,-0.12 0.08,0.08 0.16,0.08 0.08,0.12 0.16,0.04 v -0.16 l -0.16,-0.16 q -0.24,-0.08 -0.36,-0.08 -0.16,0 -0.16,-0.08 0,-0.04 0.08,-0.08 l 0.08,-0.04 h 0.04 q 0.4,-0.08 0.64,-0.68 0.12,-0.2 -0.08,-0.2 -0.04,0 -0.08,0 l -0.04,0.04 q -0.04,0 -0.08,0 -0.52,0.24 -0.6,0.6 -0.04,0 -0.04,0.04 -0.08,0.08 -0.12,0.08 -0.04,0 -0.04,-0.16 0.04,-0.08 0.04,-0.24 0,-0.16 -0.12,-0.28 -0.16,-0.08 -0.24,-0.04 -0.04,0.08 0.04,0.16 0.16,0.24 -0.08,0.48 -0.04,0 -0.12,0.04 -0.04,0.04 -0.08,0.08 z m 4.48,0.4 q -0.24,-0.08 -0.32,-0.08 -0.16,0 -0.24,0.04 -0.16,0.08 -0.12,0.24 0.04,0.08 0.2,0.08 0.28,-0.04 0.52,0.12 0.3200003,0.2 0.6000003,0 0.44,-0.36 0.24,-0.8 l -0.12,-0.36 q 0,-0.24 -0.08,-0.24 -0.08,0 -0.16,0.2 -0.04,0 -0.04,0.04 -0.04,0.2 -0.2000003,0.04 l -0.16,-0.16 q -0.08,-0.12 -0.28,-0.12 -0.16,-0.04 -0.24,0.12 -0.08,0.52 0.44,0.72 l 0.08,0.08 q 0,0.04 -0.04,0.08 -0.04,0.04 -0.08,0 z m -5.24,0.24 q -1.04,0 -1.08,0.96 0,0.44 0.32,0.56 0.2,0.08 0.24,-0.08 0.12,-0.2 0.68,-0.88 0.08,-0.08 0.04,-0.28 0,-0.2 -0.12,-0.24 0,-0.04 -0.08,-0.04 z m -0.12,1.84 q 0.32,0.08 0.64,-0.12 0.32,-0.24 0.32,-0.64 0,-0.16 -0.04,-0.28 -0.08,-0.16 -0.32,-0.2 -0.2,-0.04 -0.28,0.08 -0.16,0.28 -0.48,0.76 -0.16,0.28 0.16,0.4 z m 6.6400003,-0.2 q 0.32,-0.08 0.32,-0.36 0,-0.48 -0.4,-0.72 -0.12,-0.04 -0.28,0 -0.16,0.08 -0.28,0.08 -0.24,0.08 -0.2,0.32 0,0.04 0,0.12 0.04,0.08 0.04,0.12 0.2,0.56 0.8,0.44 z m 0.6,-0.44 q 0.36,-0.12 0.36,-0.56 0,-0.56 -0.48,-0.72 -0.24,-0.08 -0.36,0.04 -0.12,0.08 -0.12,0.28 0,0.2 0.12,0.32 0.32,0.32 0.36,0.56 0,0.04 0.04,0.08 0.04,0.04 0.08,0 z m -4.8800003,0.6 q 0,-0.36 -0.48,-0.48 -0.36,0 -0.44,0.44 0,0.4 0.44,0.48 0.48,0 0.48,-0.44 z m 0.8,-6.04 h 0.2 q 0.4,-0.08 0.64,-0.2 0.2,-0.12 0.2,-0.32 0,-0.11999999 -0.04,-0.15999999 -0.04,0 -0.12,0.08 -0.08,0.08 -0.24,0.15999999 -0.4,0.24 -0.64,0.32 -0.08,0 -0.08,0.04 z m 5.1600003,0.08 q 0,0.28 0.28,0.28 0.32,0 0.32,-0.28 0,-0.08 -0.12,-0.2 -0.08,-0.16 -0.12,-0.16 -0.36,0.12 -0.36,0.36 z m -1.92,4.48 q 0.2,-0.2 0.2,-0.4 v -0.04 l -0.08,-0.16 q -0.08,0 -0.08,0.12 -0.32,0.56 -0.64,0.56 -0.1200003,0 -0.08,0.08 0,0.08 0.08,0.08 0.32,0.04 0.6,-0.24 z m -6.0000003,-0.52 q 0,0.08 -0.04,0.08 0,0.48 0.52,0.64 0.08,0 0.12,-0.04 0,-0.08 -0.08,-0.08 -0.4,-0.2 -0.36,-0.56 0,-0.08 -0.08,-0.08 -0.04,0 -0.08,0.04 z m -1.36,5.6799999 q 0.04,0 0.08,-0.08 l 0.04,-0.08 q 0.28,-0.4 0.76,-0.64 0.16,-0.08 0.6,-0.24 0.44,-0.2 0.68,-0.3199999 0.16,-0.08 0.24,-0.16 l 0.04,-0.08 q 0,-0.04 -0.04,-0.04 -0.04,0 -0.04,0.04 -0.2,0.12 -0.4,0.2 -0.64,0.2399999 -0.96,0.3999999 -0.28,0.12 -0.56,0.32 -0.16,0.08 -0.52,0.52 v 0.12 q 0,0.04 0.08,0.04 z m 0.96,-0.32 q -0.72,0 -0.96,0.56 v 0.16 q 0.04,0 0.12,-0.08 l 0.24,-0.24 q 0.28,-0.36 0.8,-0.28 0.24,0 0.24,-0.04 0,-0.04 -0.12,-0.04 -0.04,0 -0.08,0 0,-0.04 -0.04,-0.04 z m -0.04,-1.5599999 -0.04,-0.04 -0.04,0.04 v 0.04 q -0.08,0.24 -0.48,0.6399999 -0.04,0.04 -0.16,0.16 -0.08,0.12 -0.12,0.2 -0.04,0.04 -0.12,0.2 -0.08,0.08 0,0.12 0.04,-0.04 0.08,-0.04 0.16,-0.32 0.52,-0.56 l 0.12,-0.12 q 0.08,-0.08 0.16,-0.3599999 z m -2.2,-1.04 0.12,0.24 q 0.52,0.68 0.64,0.96 0,0.08 0.08,0.08 v -0.12 q -0.08,-0.32 -0.76,-1.2 h -0.08 z M 11.7445,12.026348 q 0.12,0 0.08,-0.12 -0.04,-0.24 -0.28,-0.64 -0.24,-0.36 -0.64,-0.48 -0.52,-0.12 -0.9200003,-0.36 0,-0.04 -0.04,-0.04 -0.04,0 -0.04,0.04 0,0.08 0.04,0.08 0.3200003,0.28 0.7600003,0.4 0.92,0.28 1.04,1.12 z m 0.84,-2.5999999 q 0,-0.04 0,-0.04 0.04,0 0.04,-0.04 0.36,-0.44 0.68,-1.48 0,-0.04 -0.04,-0.08 -0.04,0 -0.04,0.08 -0.16,0.48 -0.64,1.36 v 0.04 q -0.04,0.04 -0.04,0.08 0,0.08 0.04,0.08 z m -2.4,-7.76 h 0.32 q 0.16,0 0.64,-0.2 0.12,0 0.04,-0.08 h -0.08 q -0.44,0.2 -1.1600003,0.2 h -0.12 q -0.08,0 -0.08,0.04 0,0.08 0.08,0.08 0.04,0 0.16,0 0.1200003,-0.04 0.2000003,-0.04 z M 7.0244997,14.866348 q 0,0.08 0.12,0.08 0.12,0 0.12,-0.12 0,-0.16 -0.08,-0.12 -0.16,0 -0.16,0.16 z m -4.92,-2.76 q 0.08,-0.2 -0.16,-0.2 -0.08,0 -0.08,0.12 0,0.16 0.12,0.16 0.12,0 0.12,-0.08 z m 6.08,2.96 q 0.2,0 0.2,-0.16 0,-0.08 -0.12,-0.08 -0.24,0 -0.16,0.16 0,0.08 0,0.12 0.04,0 0.08,-0.04 z m -2.96,-2.96 q 0.12,0 0.12,-0.12 0,-0.12 -0.16,-0.12 -0.08,0 -0.08,0.08 0,0.16 0.12,0.16 z m -3.88,1.12 q 0,0.08 0.12,0.08 0.12,0 0.16,-0.12 0,-0.04 -0.12,-0.12 -0.16,0 -0.16,0.16 z m 8.48,-4.2399999 q -0.12,0 -0.12,0.12 0,0.12 0.16,0.12 0.08,-0.04 0.08,-0.16 0,-0.16 -0.12,-0.08 z m -8.08,6.1199999 q 0,0.16 0.08,0.16 0.08,0 0.16,-0.16 -0.04,-0.12 -0.12,-0.12 -0.16,0 -0.12,0.12 z m -0.04,-13.5199999 q 0,-0.12 -0.08,-0.12 -0.16,0.08 -0.16,0.16 0.08,0.16 0.12,0.12 0.12,0 0.12,-0.16 z m 5,4.88 q 0,0.12 0.12,0.12 0.12,0 0.12,-0.12 0,-0.12 -0.08,-0.16 -0.08,0 -0.16,0.16 z m -1.08,0.44 q -0.12,0 -0.12,0.12 0,0.12 0.12,0.12 0.12,0 0.12,-0.12 0,-0.12 -0.12,-0.12 z m 2.12,6.9199999 q 0.12,0 0.2,-0.16 l -0.04,-0.04 q -0.04,-0.08 -0.08,-0.08 -0.12,0 -0.16,0.16 0,0.04 0.08,0.12 z m 6.0000003,-3.4 q -0.08,0 -0.08,0.08 0,0.08 0.12,0.16 0.12,-0.08 0.12,-0.12 0,-0.12 -0.16,-0.12 z m -8.8400003,4.64 q 0.12,0 0.12,-0.16 0,-0.16 -0.12,-0.08 -0.12,0 -0.12,0.12 0,0.04 0.12,0.12 z m 2,-4.48 q 0,-0.16 -0.08,-0.16 -0.12,0 -0.12,0.12 0.08,0.08 0.12,0.12 0.16,0 0.08,-0.08 z m -0.24,-0.9999999 q 0,0.08 0.12,0.08 0.12,0 0.12,-0.08 0,-0.12 -0.12,-0.12 -0.12,0 -0.12,0.12 z m 3.24,-0.96 q 0.1200003,-0.12 0.1200003,-0.16 h -0.04 q 0,-0.12 -0.08,-0.04 -0.08,0 -0.12,0.12 -0.04,0.08 -0.08,0.08 v 0.04 q 0.12,0 0.2,-0.04 z m -8.36,4.1199999 q 0,-0.12 -0.16,-0.12 -0.12,0 -0.12,0.08 0,0.16 0.12,0.16 0.16,0.08 0.16,-0.12 z m 4.52,-11.87999989 q 0.04,0.04 0.08,0 0.08,-0.08 0.08,-0.16 0,-0.08 -0.12,-0.08 -0.12,0 -0.12,0.16 0,0.08 0.08,0.08 z m -3.64,5.51999999 q 0,-0.08 -0.16,-0.08 -0.08,0 -0.08,0.12 0,0.16 0.12,0.08 0.12,0 0.12,-0.12 z m 0.76,8.8799999 q 0.04,0.08 0.12,0.08 0.08,0 0.08,-0.12 0,-0.12 -0.04,-0.12 -0.16,0 -0.16,0.16 z m 1.96,-0.32 q 0,0.12 0.12,0.12 0.12,0 0.16,-0.08 0,-0.12 -0.08,-0.12 -0.16,0 -0.2,0.08 z m -1.16,-9.8799999 q 0,0.12 0.12,0.12 0.12,0 0.12,-0.08 -0.04,-0.16 -0.16,-0.16 -0.08,0.04 -0.08,0.12 z m 3.72,9.9199999 q 0,-0.16 -0.12,-0.16 -0.12,0 -0.12,0.08 0,0.16 0.16,0.16 0.08,0 0.08,-0.08 z M 12.8245,6.4663481 q 0.08,0.12 0.16,0.12 0.08,-0.04 0.08,-0.16 0,-0.16 -0.12,-0.08 -0.12,0 -0.12,0.12 z M 4.4244997,12.706348 q 0.16,0 0.16,-0.2 0,-0.08 -0.04,-0.08 -0.08,-0.04 -0.2,0.16 0,0.12 0.08,0.12 z m 0.28,0.36 q 0.04,0.04 0.08,0 0.08,-0.08 0.08,-0.16 0,-0.08 -0.08,-0.12 -0.16,0 -0.16,0.2 0,0.08 0.08,0.08 z m -2.2,1.48 q 0.12,0 0.12,-0.16 0,-0.12 -0.12,-0.12 -0.08,0 -0.08,0.12 -0.08,0.16 0.08,0.16 z M 14.2245,0.66634811 q 0,-0.08 -0.08,-0.08 -0.2,0 -0.12,0.16 0,0.12 0.08,0.08 0.12,0 0.12,-0.16 z M 1.5444997,12.266348 q 0,0.12 0.12,0.12 0.12,0 0.12,-0.16 0,-0.16 -0.16,-0.08 -0.08,0 -0.08,0.12 z m 13.2800003,-1.6 q 0,-0.08 -0.12,-0.08 -0.12,0 -0.12,0.08 0,0.16 0.16,0.16 0.08,0 0.08,-0.16 z M 4.3844997,1.8263481 q 0,-0.04 -0.12,-0.04 -0.12,0 -0.12,0.16 0,0.12 0.08,0.04 0.16,0 0.16,-0.16 z m 9.9200003,-0.12 q 0.12,0 0.12,-0.12 0,-0.12 -0.12,-0.12 -0.12,0 -0.12,0.12 0,0.12 0.12,0.12 z m -11.2400003,2 q 0.08,0 0.08,-0.12 -0.08,-0.12 -0.16,-0.12 -0.08,0 -0.08,0.08 0,0.16 0.16,0.16 z m -1.72,9.9599999 q 0.12,-0.04 0.12,-0.16 0,-0.12 -0.08,-0.12 -0.2,0 -0.12,0.2 0,0.08 0.08,0.08 z m 3.52,-9.0799999 q 0.12,0.08 0.12,-0.08 0,-0.12 -0.12,-0.12 -0.12,-0.04 -0.12,0.04 0,0.16 0.12,0.16 z M 14.2645,12.226348 q 0.12,0.04 0.12,-0.12 0,-0.12 -0.12,-0.12 -0.08,0 -0.08,0.08 0,0.16 0.08,0.16 z M 5.7044997,1.5063481 q -0.16,0.08 -0.16,0.16 0,0.08 0.08,0.08 0.16,0 0.16,-0.16 0,-0.08 -0.08,-0.08 z m -1.04,12.0799999 q 0,0.12 0.12,0.12 0.12,0 0.12,-0.16 -0.08,-0.08 -0.12,-0.08 -0.12,0 -0.12,0.12 z m -1.84,-1.64 q 0,-0.08 -0.08,-0.08 -0.12,0 -0.12,0.12 0,0.08 0.08,0.08 0.12,0.04 0.12,-0.12 z m 10.9200003,1.12 q 0.08,0 0.08,-0.12 0,-0.12 -0.12,-0.12 l -0.08,0.04 q -0.04,0.04 -0.04,0.08 0.04,0.12 0.16,0.12 z m -11.3600003,-0.8 q 0.12,-0.04 0.12,-0.12 0,-0.12 -0.12,-0.12 -0.12,0 -0.12,0.12 0,0.12 0.12,0.12 z m 9.0000003,3.2 q 0.12,0 0.12,-0.12 0,-0.12 -0.12,-0.16 -0.08,0 -0.08,0.12 -0.04,0.08 0.08,0.16 z m -5.4800003,-3.6 q 0,-0.12 -0.12,-0.12 -0.12,0 -0.12,0.12 0,0.08 0.12,0.08 0.12,0 0.12,-0.08 z M 13.3845,0.70634811 q 0,0.08 0.08,0.08 0.16,-0.04 0.12,-0.16 0,-0.04 -0.04,-0.08 0,-0.04 -0.04,0 -0.12,0 -0.12,0.16 z m -3.12,14.63999989 q 0,0.12 0.12,0.12 0.12,0 0.12,-0.12 0,-0.12 -0.12,-0.12 -0.12,0 -0.12,0.12 z m 3.52,-2.92 q 0,0.12 0.12,0.12 0.08,-0.08 0.08,-0.2 0,-0.08 -0.08,-0.08 -0.12,0 -0.12,0.16 z m -11.7200003,-2.04 q 0.12,0 0.16,-0.12 0,-0.08 -0.12,-0.08 -0.12,0 -0.12,0.08 0,0.12 0.08,0.12 z m -0.76,3.88 q -0.08,0 -0.08,0.12 0,0.12 0.12,0.12 0.12,-0.08 0.12,-0.12 0,-0.12 -0.16,-0.12 z M 11.7045,5.1463481 q 0.08,0.08 0.08,-0.04 0,-0.16 -0.16,-0.16 -0.08,0 -0.08,0.08 -0.04,0.12 0.16,0.12 z m 0.48,0.68 q 0.08,0.04 0.12,0 0.12,-0.08 0,-0.2 0,-0.04 -0.04,-0.04 -0.04,-0.04 -0.08,0 -0.08,0.08 0,0.24 z m -5.5200003,-0.56 q 0,0.12 0.08,0.12 0.08,0 0.16,-0.16 -0.08,-0.08 -0.16,-0.08 -0.08,0 -0.08,0.12 z m 0.32,9.3199999 q 0.08,0 0.08,-0.08 0.08,-0.12 -0.12,-0.12 -0.12,0 -0.12,0.04 0,0.16 0.16,0.16 z m -4.16,0.8 q 0.08,0 0.12,-0.12 -0.04,-0.12 -0.12,-0.12 -0.08,-0.04 -0.16,0.08 0,0.16 0.16,0.16 z m -0.76,-0.12 q 0,0.12 0.12,0.12 0.12,0 0.12,-0.12 0,-0.12 -0.12,-0.12 -0.12,0 -0.12,0.12 z m 9.2400003,-0.68 q 0.04,0.04 0.08,-0.04 0.04,-0.04 0.04,-0.08 0,-0.12 -0.08,-0.04 -0.2,0 -0.2,0.08 0,0.08 0.16,0.08 z m 1,-8.3599999 q 0,0.2 0.16,0.2 0.08,0 0.08,-0.12 0,-0.12 -0.12,-0.16 -0.08,0 -0.12,0.08 z m 0.88,-5.27999999 q -0.12,0 -0.12,0.11999999 0,0.12 0.08,0.12 0.12,0 0.12,-0.16 0,-0.08 -0.08,-0.08 z M 5.5444997,8.0263481 q 0,-0.08 -0.16,-0.08 -0.08,0 -0.08,0.08 0,0.12 0.12,0.12 0.12,0 0.12,-0.12 z m -1.04,-7.15999999 q 0.08,0 0.08,-0.16 0,-0.08 -0.08,-0.12 -0.12,0 -0.12,0.16 0,0.12 0.12,0.12 z m 1.32,5.59999999 q 0,-0.08 -0.12,-0.08 -0.12,0 -0.12,0.16 0,0.08 0.08,0.08 0.16,0 0.16,-0.16 z m 6.4000003,0.28 q 0.12,0 0.12,-0.12 0,-0.12 -0.12,-0.12 -0.16,0.08 -0.16,0.16 0,0.08 0.16,0.08 z m -1.36,8.5999999 q 0.12,0.04 0.12,-0.12 0,-0.08 -0.08,-0.08 -0.12,0.08 -0.16,0.16 0,0.04 0.12,0.04 z m -7.7200003,-0.6 q -0.12,0 -0.12,0.12 0,0.12 0.12,0.12 h 0.08 q 0.04,-0.04 0.04,-0.08 0,-0.08 -0.12,-0.16 z m -0.88,0.24 q 0,0.08 0.12,0.08 0.16,0 0.16,-0.08 0,-0.12 -0.12,-0.12 -0.08,0 -0.16,0.12 z M 12.1045,7.3463481 q 0.12,0 0.12,-0.08 -0.04,-0.12 -0.2,-0.12 -0.08,0 -0.08,0.08 0,0.12 0.16,0.12 z M 3.7044997,14.826348 q 0,-0.08 -0.12,-0.08 -0.12,0 -0.12,0.16 0,0.08 0.08,0.08 0.16,0 0.16,-0.16 z M 12.5045,6.7063481 q 0,0.12 0.12,0.12 0.12,0 0.12,-0.16 0,-0.08 -0.12,-0.08 -0.12,0 -0.12,0.12 z m -10.2800003,0.68 q 0,-0.16 -0.12,-0.08 -0.08,0 -0.08,0.08 0,0.08 0,0.12 0.04,0 0.08,-0.04 0.12,0 0.12,-0.08 z M 14.0245,14.986348 q 0.16,0 0.16,-0.16 0,-0.08 -0.04,-0.08 -0.2,0 -0.2,0.16 0,0.08 0.08,0.08 z m 0.2,-7.5599999 q 0.04,0.08 0.16,0.08 0.08,0 0.08,-0.08 0,-0.12 -0.12,-0.12 -0.12,0 -0.12,0.12 z m -10.0400003,0.6 q 0.08,0 0.08,-0.04 0,-0.16 -0.16,-0.16 -0.04,0 -0.08,0.04 0,0.16 0.16,0.16 z m 0.68,7.2399999 q -0.04,0.12 0.08,0.12 0.12,0 0.12,-0.08 0,-0.16 -0.08,-0.16 -0.12,0 -0.12,0.12 z M 13.5845,1.1063481 q 0,0.12 0.12,0.12 0.12,0 0.12,-0.12 0,-0.04 -0.12,-0.11999999 -0.12,0 -0.12,0.11999999 z m -7.0400003,-0.35999999 0.12,0.12 q 0.12,-0.04 0.12,-0.16 0,-0.08 -0.08,-0.08 -0.16,0 -0.16,0.12 z M 13.3045,12.786348 q 0.08,0 0.08,-0.12 0,-0.12 -0.12,-0.12 -0.08,0 -0.08,0.12 0,0.12 0.12,0.12 z M 2.0244997,5.9063481 q 0.08,0.12 0.12,0.12 0.12,0.08 0.12,-0.08 0,-0.12 -0.12,-0.12 -0.12,0 -0.12,0.08 z m -0.2,3.72 q 0.12,0 0.12,-0.12 0,-0.08 -0.08,-0.16 -0.12,0 -0.12,0.12 0,0.16 0.08,0.16 z m 0.04,-8.52 q 0,-0.08 -0.08,-0.08 -0.16,0 -0.16,0.16 0.08,0.08 0.12,0.08 0.12,0 0.12,-0.16 z M 11.4645,14.906348 l -0.12,-0.12 q -0.12,0 -0.12,0.08 -0.08,0.16 0.12,0.16 0.12,0 0.12,-0.12 z M 3.6644997,5.5063481 q 0.12,-0.04 0.12,-0.16 -0.08,-0.08 -0.12,-0.08 -0.08,0 -0.08,0.16 0,0.08 0.08,0.08 z m 11.0800003,4.2 q 0.08,0 0.08,-0.08 0,-0.12 -0.12,-0.12 -0.08,0 -0.08,0.08 0,0.12 0.12,0.12 z m -3,5.3999999 q 0.12,0 0.12,-0.12 0,-0.12 -0.08,-0.12 -0.12,-0.04 -0.12,0.12 0,0.12 0.08,0.12 z m -1.9200003,-2.72 q -0.12,0 -0.12,0.12 0,0.12 0.08,0.12 l 0.08,-0.04 q 0.04,-0.04 0.04,-0.08 0,-0.12 -0.08,-0.12 z M 10.4245,0.62634811 q -0.08,-0.04 -0.08,0.08 0,0.12 0.08,0.12 0.08,0 0.08,-0.08 0,-0.12 -0.08,-0.12 z M 5.2244997,4.9063481 q 0,-0.16 -0.16,-0.16 -0.08,0.08 -0.08,0.12 0,0.12 0.16,0.12 0.08,0 0.08,-0.08 z m -3.96,7.0399999 q 0,0.12 0.12,0.12 0.12,0 0.12,-0.12 0,-0.12 -0.16,-0.12 -0.08,0 -0.08,0.12 z M 13.8245,4.6263481 q 0.08,0 0.08,-0.12 0,-0.12 -0.12,-0.12 -0.12,0 -0.12,0.12 0.04,0.12 0.16,0.12 z m -11.9200003,-2.68 q 0,-0.12 -0.12,-0.12 -0.08,0 -0.08,0.12 0.04,0.08 0.16,0.08 0.12,0 0.04,-0.08 z m 4.08,10.0799999 q 0,0.12 0.12,0.12 0.04,0 0.12,-0.08 0,-0.12 -0.12,-0.12 -0.12,-0.08 -0.12,0.08 z M 13.7845,4.0263481 q 0,0.08 0.12,0.08 0.08,0 0.08,-0.16 0,-0.08 -0.08,-0.08 -0.12,0 -0.12,0.16 z m -2.28,4.32 q 0,0.12 0.12,0.12 0.16,0 0.08,-0.08 0,-0.12 -0.12,-0.12 -0.16,0 -0.08,0.08 z M 7.9044997,14.266348 q 0.12,0 0.12,-0.16 0,-0.12 -0.08,-0.12 -0.04,0 -0.12,0.16 0,0.12 0.08,0.12 z M 12.3845,1.1463481 q 0,0.08 0.12,0.08 0.08,0 0.08,-0.12 0.04,-0.04 0,-0.08 0,-0.04 -0.08,0 -0.08,0 -0.12,0.12 z M 6.6644997,15.026348 q 0.12,0 0.12,-0.12 0,-0.12 -0.12,-0.12 -0.08,0 -0.08,0.12 0,0.12 0.08,0.12 z m -5.32,-13.8799999 q -0.12,0 -0.12,0.12 0,0.12 0.12,0.12 0.08,0 0.08,-0.12 0.04,-0.04 -0.08,-0.12 z m 1.8,0.44 q 0.12,0 0.12,-0.12 0,-0.12 -0.08,-0.12 -0.12,0 -0.12,0.16 z m 2.76,11.0399999 q 0.12,0 0.12,-0.12 0,-0.08 -0.08,-0.08 -0.12,0 -0.12,0.12 0,0.08 0.08,0.08 z M 11.2245,2.5063481 q 0.08,-0.08 0.08,-0.16 0,-0.04 -0.04,-0.08 -0.04,-0.04 -0.08,0 -0.12,0 -0.12,0.12 0.08,0.12 0.16,0.12 z m -8.1600003,4.96 q 0,0.12 0.12,0.12 0.12,0 0.12,-0.12 0,-0.08 -0.12,-0.08 -0.12,0 -0.12,0.08 z m 0.84,-4.92 q 0.12,0 0.12,-0.12 0,-0.12 -0.12,-0.12 -0.12,0 -0.12,0.12 z m 10.4400003,4.16 q 0.08,0 0.12,-0.12 0,-0.12 -0.12,-0.12 -0.12,0.04 -0.12,0.16 0,0.08 0.12,0.08 z m -8.3200003,-4.16 q 0.16,0 0.16,-0.16 0,-0.04 -0.08,-0.04 -0.16,0 -0.16,0.16 0,0.04 0.08,0.04 z M 10.1045,12.386348 q 0.12,0.04 0.12,-0.08 0.04,-0.12 -0.04,-0.12 -0.12,0 -0.16,0.08 0,0.12 0.08,0.12 z m 2.72,2.76 q 0.12,0 0.12,-0.08 0,-0.12 -0.08,-0.12 -0.12,-0.04 -0.12,0.08 0,0.12 0.08,0.12 z m 0.64,-2.88 q 0,-0.12 -0.12,-0.12 -0.08,0 -0.08,0.08 0,0.12 0.12,0.12 0.08,0 0.08,-0.08 z M 1.6644997,4.1463481 q 0.16,0.08 0.16,-0.12 0,-0.08 -0.04,-0.08 0,-0.04 -0.04,0 -0.12,0 -0.12,0.16 -0.04,0.04 0.04,0.04 z m 4.92,4.16 q 0,-0.12 -0.12,-0.12 -0.12,0 -0.12,0.12 0,0.08 0.08,0.08 0.16,0 0.16,-0.08 z m -0.52,0.4 q 0.12,0 0.12,-0.12 0,-0.16 -0.12,-0.08 -0.08,0 -0.08,0.12 0,0.08 0.08,0.08 z m 0,-7.16 q 0,0.12 0.08,0.12 0.08,0 0.16,-0.16 0,-0.08 -0.08,-0.08 -0.16,0 -0.16,0.12 z m -1.4,7.4 q 0.08,0.04 0.16,-0.08 0,-0.08 -0.12,-0.08 -0.04,-0.04 -0.08,0 -0.04,0 -0.04,0.04 -0.08,0.12 0.08,0.12 z m 5.08,3.1199999 q 0,-0.08 -0.12,-0.08 -0.08,0 -0.08,0.12 0,0.08 0.08,0.08 0.12,0 0.12,-0.12 z m -3.52,2.52 q 0,0.08 0.12,0.08 0.08,0 0.08,-0.12 0,-0.08 -0.08,-0.08 -0.12,0 -0.12,0.12 z m -4.92,-5.1599999 q 0.12,0 0.12,-0.08 0,-0.12 -0.08,-0.12 -0.12,0 -0.12,0.12 -0.08,0.08 0.08,0.08 z m 4.72,4.9199999 q 0,-0.08 -0.12,-0.08 -0.08,0 -0.08,0.16 0,0.08 0.08,0.08 0.16,-0.08 0.12,-0.16 z m -3.56,-4.12 q 0.08,0 0.08,-0.12 0,-0.08 -0.12,-0.08 -0.08,0 -0.08,0.12 0,0.08 0.12,0.08 z m 0.96,3.56 q 0.16,0 0.16,-0.12 0,-0.08 -0.08,-0.08 -0.12,0 -0.16,0.12 0,0.08 0.08,0.08 z m -1.24,-2.12 q 0,0.12 0.12,0.12 0.12,0 0.12,-0.12 0,-0.08 -0.08,-0.08 -0.16,0 -0.16,0.08 z m -0.96,-1.48 q 0,0.08 0.12,0.08 0.12,-0.08 0.08,-0.16 0,-0.04 -0.08,-0.04 -0.12,0 -0.12,0.12 z m 7.76,5.24 q 0.12,-0.04 0.12,-0.16 0,-0.08 -0.12,-0.08 -0.08,0 -0.08,0.12 -0.08,0.12 0.08,0.12 z m -2.56,-4.88 q 0.08,0 0.08,-0.12 0,-0.08 -0.08,-0.08 -0.12,0 -0.12,0.08 0,0.12 0.12,0.12 z M 11.3445,4.5863481 q 0,-0.08 -0.12,-0.12 -0.08,0 -0.08,0.12 0,0.08 0.12,0.12 0.08,0 0.08,-0.12 z M 1.7844997,11.826348 q 0.12,0 0.12,-0.16 0,-0.12 -0.04,-0.12 -0.16,0.04 -0.16,0.16 0,0.12 0.08,0.12 z M 10.9045,5.3463481 q 0,0.08 0.12,0.08 0.12,0 0.12,-0.08 0,-0.12 -0.08,-0.12 -0.16,0 -0.16,0.12 z m 3.36,5.6799999 q 0.12,0 0.12,-0.12 -0.04,-0.08 -0.16,-0.08 -0.08,0 -0.08,0.08 0.04,0.12 0.12,0.12 z M 1.3844997,4.8263481 q 0,-0.08 -0.12,-0.12 -0.08,0 -0.08,0.12 0,0.12 0.08,0.12 0.04,0 0.12,-0.12 z M 10.9045,0.82634811 q 0.12,0 0.12,-0.16 0,-0.08 -0.12,-0.08 -0.12,0 -0.12,0.16 0.08,0.08 0.12,0.08 z m 3.24,4.19999999 q 0.08,0 0.08,-0.12 0,-0.12 -0.12,-0.12 -0.08,0 -0.08,0.08 0,0.12 0.12,0.16 z m -12.2000003,0 q 0.12,0 0.16,-0.16 0,-0.04 -0.12,-0.08 -0.08,0 -0.12,0.08 0,0.08 0.08,0.16 z m 5.4,9.0399999 q 0.08,0 0.08,-0.12 0,-0.08 -0.08,-0.08 -0.12,0 -0.12,0.08 0,0.12 0.12,0.12 z m -1.56,-2.72 q 0.12,0 0.12,-0.12 0,-0.08 -0.08,-0.08 -0.12,0 -0.12,0.16 0,0.12 0.08,0.04 z m -1.2,-6.3599999 q 0,0.04 0.08,0.04 0.12,0 0.12,-0.12 0,-0.08 -0.08,-0.08 -0.12,0.08 -0.12,0.16 z m -1.32,9.1999999 q 0.12,0 0.12,-0.12 0,-0.12 -0.08,-0.12 -0.12,0 -0.12,0.12 -0.04,0.08 0.08,0.12 z m 3.48,-0.08 q 0,0.08 0.12,0.08 0.16,0 0.16,-0.12 0,-0.08 -0.12,-0.08 -0.16,0.08 -0.16,0.12 z M 11.3045,5.0263481 q 0,-0.12 -0.12,-0.12 -0.08,0 -0.08,0.08 -0.04,0.12 0.08,0.12 0.12,0 0.12,-0.08 z m -9.7200003,-2.08 q 0,0.08 0.08,0.08 0.12,0.04 0.12,-0.08 0,-0.12 -0.08,-0.12 -0.12,0 -0.12,0.12 z m 12.2400003,-0.16 q 0,0.08 0.08,0.08 0.08,0 0.08,-0.12 0,-0.08 -0.08,-0.08 -0.08,0 -0.08,0.12 z m -10.2000003,-1.64 q 0,0.08 0.12,0.08 0.08,0 0.08,-0.12 0,-0.08 -0.08,-0.08 -0.12,0 -0.12,0.12 z m 11.2000003,3.92 q 0,-0.08 -0.08,-0.08 -0.12,0 -0.12,0.12 0.04,0.04 0.08,0.08 0.12,0 0.12,-0.12 z m -0.64,-2.08 q 0.08,0.12 0.16,0.12 0.08,0 0.08,-0.12 l -0.04,-0.04 q 0,-0.04 -0.04,-0.04 0,-0.04 -0.04,-0.04 -0.12,0 -0.12,0.12 z m -7.8400003,-0.2 q 0,0.08 0.04,0.08 0.12,0 0.16,-0.12 0,-0.08 -0.08,-0.08 -0.12,0 -0.12,0.12 z m -2.56,11.2399999 q 0,0.08 0.08,0.12 0.08,-0.08 0.08,-0.16 0,-0.12 -0.08,-0.12 -0.08,0 -0.08,0.16 z m -1.76,0.76 q 0,0.12 0.12,0.04 0.08,-0.08 0,-0.16 -0.08,-0.12 -0.12,-0.08 -0.08,0.04 0,0.2 z m -0.44,0 q 0,0.08 0.12,0.08 0.04,-0.12 0,-0.2 -0.08,-0.08 -0.12,-0.04 -0.12,0.04 0,0.16 z m 3.08,-9.4799999 q 0,-0.08 -0.12,-0.08 -0.08,0 -0.08,0.08 0,0.12 0.12,0.12 0.08,0 0.08,-0.12 z m 1.96,6.3599999 q 0.12,0 0.12,-0.12 0,-0.08 -0.08,-0.08 -0.12,0 -0.12,0.12 0,0.08 0.08,0.08 z m 5.9600003,3.8 q 0.12,0 0.12,-0.08 0,-0.12 -0.08,-0.12 -0.12,0 -0.12,0.12 0,0.08 0.08,0.08 z m -6.3200003,-2.52 q 0.04,-0.08 -0.08,-0.16 -0.12,0.12 -0.12,0.12 0,0.12 0.08,0.12 0.12,0.04 0.12,-0.08 z M 12.9445,0.78634811 q 0.08,0 0.08,-0.12 0,-0.08 -0.08,-0.08 -0.12,0 -0.12,0.12 0,0.08 0.12,0.08 z m -1.48,4.71999999 q 0.16,0 0.16,-0.08 0,-0.12 -0.12,-0.12 -0.12,0 -0.12,0.12 0,0.08 0.08,0.08 z M 8.5044997,14.106348 q 0,-0.08 -0.08,-0.08 -0.12,0.08 -0.12,0.12 0,0.12 0.12,0.12 0.08,-0.04 0.08,-0.16 z m -7.04,-3.44 q 0,-0.12 -0.12,-0.12 -0.08,0 -0.08,0.08 -0.04,0.12 0.08,0.12 0.04,0 0.12,-0.08 z m -0.12,0.48 q 0,-0.08 -0.12,-0.12 -0.08,0 -0.08,0.12 0,0.12 0.08,0.12 0.12,0 0.12,-0.12 z m 0.72,-8.1999999 q -0.08,0 -0.08,0.12 0,0.08 0.12,0.08 0.12,0 0.12,-0.12 -0.04,-0.08 -0.16,-0.08 z m -0.32,2.64 q 0,-0.08 -0.12,-0.08 -0.08,0 -0.08,0.08 0,0.12 0.08,0.12 0.12,0 0.12,-0.12 z m 4.32,6.0399999 q 0,0.08 0.12,0.08 0.12,0 0.12,-0.08 0,-0.08 -0.12,-0.08 -0.08,0 -0.12,0.08 z m 8.2400003,2.28 q 0.08,0 0.08,-0.08 0,-0.12 -0.08,-0.12 -0.2,0 -0.12,0.12 0,0.08 0.12,0.08 z m -4.8400003,1.4 q 0,0.12 0.08,0.12 0.08,0 0.08,-0.12 0,-0.08 -0.08,-0.12 -0.08,0 -0.08,0.12 z m -6.24,-9.4799999 q 0,0.08 0.08,0.08 0.16,0 0.16,-0.12 0,-0.08 -0.12,-0.08 -0.12,0 -0.12,0.12 z m 3.64,4.3199999 q 0.08,-0.04 0.08,-0.12 0,-0.08 -0.12,-0.08 -0.16,0 -0.08,0.1199999 0,0.08 0.12,0.08 z m 1.36,-9.35999989 q 0.12,0 0.12,-0.12 -0.08,-0.08 -0.12,-0.08 -0.12,0 -0.12,0.16 0.04,0.04 0.12,0.04 z m -6.44,9.07999999 q -0.12,0 -0.12,0.12 0.04,0.08 0.08,0.08 0.12,0 0.12,-0.1199999 0.08,-0.08 -0.08,-0.08 z m 1.12,-9.03999999 q 0.08,0 0.12,-0.12 -0.04,-0.08 -0.12,-0.08 -0.12,0 -0.12,0.12 0,0.08 0.12,0.08 z m -0.32,5.19999999 q 0.08,0 0.08,-0.12 0,-0.04 -0.12,-0.04 -0.08,0 -0.08,0.08 0,0.08 0.12,0.08 z m 4.96,8.5199999 q 0.08,0 0.08,-0.12 0,-0.08 -0.12,-0.08 -0.12,0 -0.12,0.12 0.04,0.08 0.16,0.08 z m -2.16,0.88 q 0.12,-0.04 0.12,-0.12 0,-0.08 -0.08,-0.08 -0.12,0 -0.12,0.12 0,0.08 0.08,0.08 z m -3.44,-13.8799999 0.12,0.12 q 0.12,0 0.12,-0.12 0,-0.08 -0.12,-0.08 -0.12,0 -0.12,0.08 z m 4.84,7.64 q 0,0.04 0.08,0.04 0.12,0 0.12,-0.16 0,-0.04 -0.08,-0.04 -0.12,0 -0.12,0.16 z m -4.72,-4.6 q 0.04,0 0.12,-0.08 0,-0.12 -0.12,-0.12 -0.12,0 -0.12,0.04 0,0.16 0.12,0.16 z m 12.7600003,-3.08 q 0,-0.08 -0.12,-0.08 -0.08,0 -0.08,0.08 0,0.12 0.12,0.12 0.08,0 0.08,-0.12 z m -5.5200003,4.72 q 0.12,-0.04 0.12,-0.16 0,-0.08 -0.08,-0.08 -0.12,0.04 -0.12,0.16 0,0.08 0.08,0.08 z m -2.84,0.04 q 0.04,0 0.12,-0.12 0,-0.08 -0.12,-0.08 -0.12,0 -0.12,0.12 0,0.08 0.12,0.08 z m -2.6,2.52 q 0,-0.08 -0.12,-0.08 -0.12,0 -0.08,0.12 0,0.08 0.08,0.08 0.12,0 0.12,-0.12 z m 2.88,-0.16 q 0,0.08 0.08,0.08 0.12,0 0.12,-0.08 0,-0.12 -0.08,-0.12 -0.12,0 -0.12,0.12 z m -2.24,-7.08 q 0.04,0.04 0.08,0 0.04,-0.04 0.04,-0.08 0,-0.08 -0.08,-0.08 -0.12,0 -0.12,0.08 -0.04,0.08 0.08,0.08 z m -3.08,6.96 q 0,-0.08 -0.12,-0.16 -0.08,0 -0.08,0.08 0,0.12 0.12,0.12 0.08,0 0.08,-0.04 z m 4.28,0 q 0.12,-0.08 0.12,-0.16 0,-0.08 -0.12,-0.08 -0.12,0 -0.12,0.12 0,0.12 0.12,0.12 z m -0.36,-7.28 q 0.04,0 0.12,-0.12 0,-0.11999999 -0.12,-0.11999999 -0.08,0 -0.08,0.11999999 -0.04,0.12 0.08,0.12 z M 10.6645,12.226348 q 0,-0.08 -0.08,-0.08 -0.12,0 -0.12,0.08 0,0.12 0.08,0.12 0.12,0 0.12,-0.12 z m 0.68,-3.9599999 q 0,-0.12 -0.16,-0.12 -0.12,0 -0.04,0.08 0,0.12 0.12,0.12 0.08,0 0.08,-0.08 z m -1.8000003,-1.84 q 0,0.12 0.08,0.12 0.08,0 0.12,-0.12 0,-0.04 -0.08,-0.12 -0.12,0 -0.12,0.12 z m 1.4400003,1.48 q 0,-0.12 -0.12,-0.12 -0.12,0.08 -0.12,0.12 0,0.08 0.12,0.08 0.12,0 0.12,-0.08 z m 2.76,7.4399999 q 0.12,0 0.12,-0.12 0,-0.08 -0.08,-0.08 -0.12,0.08 -0.12,0.12 0,0.04 0,0.08 0.04,0.04 0.08,0 z m 0.64,-7.5599999 q -0.12,0 -0.12,0.08 0,0.08 0.16,0.08 0.08,0 0.08,-0.08 0,-0.08 -0.12,-0.08 z m -2.24,-6.64 q 0.08,0 0.08,-0.12 0,-0.08 -0.08,-0.08 -0.12,0 -0.12,0.11999999 0,0.08 0.12,0.08 z m -1.36,1.28 q 0,-0.08 -0.08,-0.08 -0.12,0 -0.12,0.12 0,0.08 0.08,0.08 0.12,0 0.12,-0.12 z m 3.8,-1.55999999 q 0,0.08 0.12,0.08 0.08,0 0.08,-0.08 0,-0.12 -0.08,-0.12 -0.12,0 -0.12,0.12 z M 3.0244997,6.5863481 q 0.08,0.08 0.16,-0.04 0,-0.12 -0.08,-0.12 -0.16,0 -0.16,0.08 0,0.08 0.08,0.08 z m -1.84,-2.76 q 0,0.04 0.08,0.04 0.12,0 0.12,-0.12 0,-0.08 -0.08,-0.08 -0.12,0 -0.12,0.16 z M 14.5845,14.746348 q 0,0.12 0.08,0.12 0.12,0 0.12,-0.08 0,-0.12 -0.12,-0.12 -0.08,0 -0.08,0.08 z M 9.2644997,6.7063481 q 0.08,0 0.08,-0.12 0,-0.08 -0.12,-0.08 -0.08,0 -0.08,0.08 0,0.12 0.12,0.12 z m -3.8,-4.12 q 0.12,0 0.12,-0.12 0,-0.12 -0.08,-0.12 -0.12,0 -0.12,0.16 0,0.08 0.08,0.08 z M 12.7845,12.266348 q 0,0.12 0.16,0.12 0.08,0 0.08,-0.08 0,-0.12 -0.12,-0.12 -0.04,0 -0.12,0.08 z m 1.84,0.16 q 0,0.12 0.08,0.12 0.08,0 0.08,-0.16 0,-0.08 -0.08,-0.08 -0.08,0 -0.08,0.12 z m -2.16,-8.6799999 q 0.08,0 0.08,-0.12 0,-0.08 -0.08,-0.08 -0.12,0 -0.12,0.12 0,0.08 0.12,0.08 z m -8.0800003,-1.32 0.08,-0.08 q -0.04,-0.12 -0.16,-0.12 -0.08,0 -0.08,0.08 0.04,0.12 0.16,0.12 z m 1.6,-1.24 q 0,-0.12 -0.12,-0.12 -0.08,0 -0.08,0.12 0,0.12 0.12,0.12 0.08,-0.08 0.08,-0.12 z m 4,-0.16 q 0,0.12 0.1200003,0.12 0.16,0 0.08,-0.12 0,-0.04 -0.04,-0.08 0,-0.04 -0.04,0 -0.1200003,0 -0.1200003,0.08 z M 10.8245,14.946348 q 0.08,0 0.08,-0.08 0,-0.12 -0.12,-0.12 -0.08,0 -0.08,0.12 0,0.08 0.12,0.08 z m 1.6,-2 q 0,-0.08 -0.12,-0.08 -0.12,0 -0.12,0.08 0,0.12 0.12,0.12 0.04,0 0.12,-0.12 z m 1.68,-5.9199999 q 0,0.08 0.12,0.08 0.04,0 0.12,-0.08 0,-0.12 -0.08,-0.12 -0.16,0 -0.16,0.12 z m -12.4000003,-4.48 q 0.08,0 0.08,-0.08 -0.04,-0.12 -0.16,-0.16 -0.08,0 -0.08,0.08 0,0.16 0.16,0.16 z m 4.28,5.88 q 0.12,-0.08 0.12,-0.12 -0.08,-0.12 -0.16,-0.08 -0.08,0 -0.08,0.08 0,0.12 0.12,0.12 z m 3.88,-1.36 q 0.12,0 0.12,-0.08 0,-0.08 -0.12,-0.08 -0.08,0 -0.08,0.04 0,0.12 0.08,0.12 z M 10.0245,15.106348 q 0,-0.12 -0.1200003,-0.12 -0.08,0 -0.08,0.12 0,0.08 0.12,0.08 0.08,0 0.08,-0.08 z M 3.0644997,7.0263481 q 0,-0.12 -0.12,-0.12 -0.08,0.08 -0.08,0.12 0,0.08 0.12,0.08 0.08,0 0.08,-0.08 z m 5.88,0 q 0,0.04 0.08,0.04 0.12,0 0.12,-0.16 0,-0.08 -0.04,-0.08 -0.16,0 -0.16,0.2 z m 0.84,5.8399999 q 0,-0.08 -0.08,-0.08 -0.08,0 -0.08,0.08 -0.08,0.12 0.08,0.12 0.08,0 0.08,-0.12 z m -7.96,-9.3999999 q 0,-0.08 -0.08,-0.08 -0.12,0 -0.12,0.08 0,0.08 0.08,0.08 0.08,0 0.12,-0.08 z m 0.44,3.4 q 0,-0.08 -0.08,-0.08 -0.12,0 -0.12,0.08 0,0.12 0.04,0.12 0.16,0 0.16,-0.12 z m 12.3600003,0 q 0,0.08 0.08,0.08 0.12,0 0.12,-0.12 0,-0.08 -0.08,-0.08 -0.12,0 -0.12,0.12 z m -0.16,-3.36 q 0,-0.12 -0.08,-0.12 -0.12,0.08 -0.12,0.12 0,0.08 0.08,0.08 0.12,0 0.12,-0.08 z m -9.6400003,-1.12 q 0.08,0.04 0.16,-0.08 0,-0.08 -0.08,-0.08 -0.08,-0.04 -0.16,0.08 0,0.08 0.08,0.08 z m 9.9600003,5.08 q 0.08,0 0.08,-0.12 l -0.08,-0.08 q -0.16,0.08 -0.12,0.12 0,0.08 0.12,0.08 z M 7.6244997,12.826348 q 0,0.08 0.08,0.08 0.08,0 0.08,-0.12 0,-0.08 -0.08,-0.08 -0.16,0 -0.08,0.12 z m -0.88,-11.3999999 q 0,0.08 0.08,0.08 0.12,-0.04 0.12,-0.16 0,-0.04 -0.08,-0.04 -0.12,0 -0.12,0.12 z M 12.8645,12.706348 q 0,-0.08 -0.08,-0.12 -0.12,0.08 -0.12,0.12 -0.08,0.08 0.04,0.08 0.08,0.04 0.16,-0.08 z M 2.1044997,3.7063481 q 0.12,-0.08 0.12,-0.12 0,-0.08 -0.12,-0.08 -0.08,0 -0.08,0.12 0,0.08 0.08,0.08 z m 2.84,9.0399999 q 0.12,-0.04 0.12,-0.16 0,-0.08 -0.04,-0.08 -0.12,0.04 -0.16,0.16 0,0.08 0.08,0.08 z M 13.5045,3.5463481 q 0,0.12 0.08,0.12 0.08,0 0.08,-0.08 0,-0.08 -0.08,-0.12 -0.08,0 -0.08,0.08 z M 9.2644997,12.466348 q -0.08,0.08 0.08,0.08 0.08,0 0.08,-0.08 0,-0.12 -0.04,-0.12 -0.12,0 -0.12,0.12 z m -5.32,-10.9199999 q 0.04,0.04 0.12,0.04 0.12,0 0.12,-0.12 0,-0.04 -0.12,-0.04 -0.12,0 -0.12,0.12 z M 10.3045,14.746348 q 0,-0.08 -0.12,-0.12 -0.12,0 -0.12,0.12 0,0.08 0.08,0.08 0.08,0.04 0.16,-0.08 z m 2.24,-2.4 q 0.04,0.04 0.12,-0.08 -0.08,-0.08 -0.12,-0.08 -0.12,0 -0.12,0.08 0,0.08 0.12,0.08 z m 1.72,-8.3599999 q 0.12,0 0.12,-0.16 0,-0.04 -0.08,-0.04 -0.12,0 -0.12,0.12 0,0.08 0.08,0.08 z m -13.0000003,0.44 q 0.12,0 0.12,-0.12 0,-0.12 -0.12,-0.12 -0.08,0 -0.08,0.12 0,0.08 0.08,0.12 z m 1.52,2.04 q 0,-0.12 -0.12,-0.12 l -0.04,0.04 q -0.08,0.04 -0.08,0.08 0,0.08 0.12,0.08 0.12,0 0.12,-0.08 z m 1.08,5.6799999 q 0,-0.12 -0.12,-0.12 -0.08,0.08 -0.08,0.12 0,0.12 0.12,0.08 0.08,0 0.08,-0.08 z m 2.12,-7.7999999 q -0.04,0 -0.04,0.08 0,0.12 0.12,0.12 0.08,-0.08 0.08,-0.12 -0.08,-0.08 -0.16,-0.08 z M 14.3045,13.266348 q 0.12,0 0.12,-0.12 l -0.08,-0.08 q -0.12,0 -0.12,0.12 -0.08,0.08 0.08,0.08 z m -8.5200003,1.48 q 0,-0.08 -0.04,-0.08 -0.12,0 -0.16,0.12 0,0.08 0.08,0.08 0.12,0 0.12,-0.12 z m 3.16,-10.3199999 q 0,0.08 0.08,0.08 0.08,0 0.12,-0.08 0,-0.08 -0.08,-0.08 -0.12,-0.08 -0.12,0.08 z m 5.0800003,-2.76 q 0,-0.08 -0.08,-0.08 -0.12,0.04 -0.12,0.12 0,0.08 0.08,0.08 0.12,0 0.12,-0.12 z m -9.4000003,0.2 q 0.08,0.08 0.12,0.08 0.12,0 0.12,-0.12 0,-0.04 -0.08,-0.04 -0.16,0 -0.16,0.08 z m 0.88,-0.99999999 q 0.16,0 0.16,-0.12 -0.04,-0.08 -0.12,-0.08 -0.12,0 -0.12,0.12 0,0.08 0.08,0.08 z M 10.6245,4.5063481 q 0,0.12 0.08,0.12 0.08,0 0.08,-0.12 0.04,-0.12 -0.08,-0.12 -0.08,0 -0.08,0.12 z M 9.9044997,0.58634811 q -0.08,0.04 -0.08,0.12 0,0.08 0.12,0.08 0.08,0 0.08,-0.08 0,-0.12 -0.1200003,-0.12 z m -5,11.19999989 q 0.12,0 0.12,-0.08 0,-0.08 -0.08,-0.08 -0.08,0 -0.12,0.04 0,0.12 0.08,0.12 z m -3.52,3.6 q 0.12,0 0.12,-0.12 0,-0.08 -0.08,-0.08 -0.12,0 -0.12,0.12 0,0.08 0.08,0.08 z m -0.04,-0.4 q 0.04,0 0.08,-0.04 0.04,-0.04 0,-0.08 0,-0.12 -0.08,-0.08 -0.08,0 -0.08,0.12 0,0.08 0.08,0.08 z M 12.2645,4.9863481 q 0.12,0 0.12,-0.08 0,-0.12 -0.08,-0.12 -0.04,0 -0.12,0.12 0,0.08 0.08,0.08 z m -3.2800003,3.28 q 0,-0.08 -0.12,-0.08 -0.08,0 -0.08,0.12 0,0.12 0.12,0.08 0.08,0 0.08,-0.12 z m -5.52,-3.2 q 0.08,0 0.08,-0.12 0,-0.08 -0.12,-0.08 -0.08,0 -0.08,0.08 0,0.12 0.12,0.12 z m 11.2800003,1.28 q 0.08,0 0.12,-0.08 0,-0.08 -0.08,-0.08 -0.08,-0.04 -0.16,0.08 0,0.08 0.12,0.08 z m -9.6400003,-4.36 q 0,0.04 0.08,0.04 0.16,0 0.16,-0.12 0,-0.08 -0.12,-0.08 -0.12,0 -0.12,0.16 z m 9.2800003,6.48 q 0.08,0 0.08,-0.12 0,-0.08 -0.12,-0.08 -0.08,0 -0.08,0.12 0,0.08 0.12,0.08 z m -9.5600003,-7.4 q 0,-0.04 -0.08,-0.04 -0.12,0 -0.12,0.12 -0.08,0.08 0.04,0.08 0.08,0 0.16,-0.16 z m 2,1.8 q 0.08,0.04 0.16,-0.08 0,-0.04 -0.04,-0.04 l -0.04,-0.08 q -0.12,0 -0.12,0.12 -0.08,0.08 0.04,0.08 z m -1.56,11.7199999 q 0,-0.08 -0.08,-0.08 -0.12,0.12 -0.12,0.16 0,0.04 0.08,0.04 0.12,0 0.12,-0.12 z m -2.12,-13.3599999 q 0.12,0 0.12,-0.12 0,-0.08 -0.04,-0.08 -0.08,0 -0.16,0.12 0,0.08 0.08,0.08 z m 0.64,0.84 q 0.12,0 0.12,-0.12 0,-0.08 -0.08,-0.08 -0.12,0 -0.12,0.08 0,0.12 0.08,0.12 z m 10.9600003,6.32 q -0.12,0 -0.12,0.08 0,0.08 0.12,0.08 0.12,0 0.12,-0.12 -0.08,-0.08 -0.12,-0.04 z M 2.3844997,0.82634811 q 0.08,0 0.08,-0.12 0,-0.08 -0.08,-0.08 -0.12,0 -0.12,0.12 0,0.08 0.12,0.08 z m 0.2,9.75999989 q 0.12,0.08 0.12,-0.08 0,-0.08 -0.12,-0.08 -0.08,0 -0.08,0.08 0,0.08 0.08,0.08 z m 6.84,-1.9199999 q 0.04,0 0.12,-0.12 0,-0.08 -0.08,-0.08 -0.12,-0.04 -0.12,0.08 0,0.12 0.08,0.12 z m -7.68,1.7999999 q 0.08,0 0.08,-0.12 0,-0.08 -0.12,-0.08 -0.12,0 -0.12,0.12 0,0.08 0.16,0.08 z M 12.1445,2.1063481 q 0.08,0.08 0.12,0.08 0.12,-0.08 0.12,-0.16 -0.04,-0.04 -0.12,-0.04 -0.12,0 -0.12,0.12 z m 2.04,-0.08 q 0,0.12 0.08,0.12 0.04,0 0.12,-0.08 0,-0.04 -0.12,-0.12 -0.08,0 -0.08,0.08 z m -12.8000003,6.76 q -0.12,0 -0.12,0.08 0,0.08 0.08,0.08 0.12,0 0.12,-0.08 0,-0.08 -0.08,-0.08 z m 4.72,6.1999999 q 0.12,0.08 0.12,-0.08 0,-0.08 -0.08,-0.08 -0.12,0 -0.12,0.08 0,0.08 0.08,0.08 z m 0.24,-4.88 q 0,0.08 0.12,0.08 0.12,0 0.12,-0.08 0,-0.1199999 -0.12,-0.1199999 -0.12,0 -0.12,0.1199999 z m -0.16,5.36 q 0.12,0 0.16,-0.08 0,-0.12 -0.08,-0.12 -0.12,0 -0.12,0.08 0,0.12 0.04,0.12 z M 11.7845,5.7863481 q 0,0.08 0.08,0.08 0.08,0 0.08,-0.08 0,-0.12 -0.08,-0.12 -0.16,0 -0.08,0.12 z m -10.5600003,0.04 q 0,0.12 0.08,0.12 0.08,0 0.12,-0.12 0,-0.08 -0.12,-0.08 -0.08,0 -0.08,0.08 z m 8.52,-3.72 q 0,0.08 0.08,0.08 0.08,0 0.12,-0.08 0,-0.08 -0.12,-0.12 -0.08,0 -0.08,0.12 z m -6.56,12.3999999 q 0,0.12 0.08,0.12 0.08,0 0.08,-0.12 0,-0.12 -0.08,-0.12 -0.08,0.08 -0.08,0.12 z m -1.48,-8.3199999 q 0.12,0 0.12,-0.08 0,-0.08 -0.08,-0.12 -0.12,0 -0.12,0.12 0,0.08 0.08,0.08 z m 1.64,-5.43999999 q 0,0.08 0.12,0.08 0.12,0 0.12,-0.12 0,-0.08 -0.08,-0.08 -0.12,0 -0.16,0.12 z m 0.72,-0.04 q 0,-0.08 -0.12,-0.08 -0.08,0 -0.08,0.16 0,0.12 0.08,0.04 0.12,0 0.12,-0.12 z M 10.2245,2.2263481 q 0,0.08 0.08,0.08 0.12,0 0.12,-0.12 0,-0.12 -0.04,-0.12 -0.16,0 -0.16,0.16 z m -5.8000003,13.1999999 0.08,-0.04 q 0,-0.16 -0.08,-0.16 -0.12,0 -0.12,0.08 0,0.12 0.12,0.12 z m 5.16,-6.1199999 q 0,-0.04 -0.08,-0.04 -0.12,0 -0.12,0.12 0,0.12 0.08,0.04 0.12,0 0.12,-0.12 z m 4.2000003,-3.28 q 0,0.08 0.12,0.08 0.08,0 0.08,-0.08 0,-0.12 -0.12,-0.12 -0.08,0.08 -0.08,0.12 z m -0.44,0.2 q 0,0.08 0.12,0.08 0.08,0 0.08,-0.12 0,-0.08 -0.12,-0.08 -0.08,0 -0.08,0.12 z M 6.7444997,15.346348 q 0.04,0 0.04,-0.12 0,-0.08 -0.08,-0.08 -0.08,0 -0.08,0.12 0,0.08 0.12,0.08 z m -2.12,-12.5999999 q 0.04,0 0.12,-0.08 0,-0.12 -0.12,-0.12 -0.08,0 -0.08,0.08 0,0.12 0.08,0.12 z M 14.1845,14.506348 q 0,0.08 0.08,0.08 0.08,0 0.08,-0.12 0,-0.04 -0.08,-0.04 -0.08,-0.04 -0.08,0.08 z m 0.2,-8.3999999 q 0.08,0 0.08,-0.08 0,-0.08 -0.12,-0.08 -0.16,0 -0.08,0.08 0,0.08 0.12,0.08 z m -5.5600003,1.28 q 0.08,0 0.08,-0.08 0,-0.08 -0.08,-0.08 -0.12,0 -0.12,0.08 0,0.08 0.12,0.08 z m -6.28,0 q 0,0.12 0.08,0.12 0.08,0 0.08,-0.08 0,-0.12 -0.08,-0.12 -0.08,0 -0.08,0.08 z m 1.6,5.4399999 q 0.08,0 0.08,-0.08 -0.08,-0.08 -0.12,-0.08 -0.08,0 -0.08,0.08 0,0.08 0.12,0.08 z m 0.36,0.4 q 0.08,0 0.08,-0.08 0,-0.08 -0.12,-0.08 -0.08,0 -0.08,0.08 0,0.08 0.12,0.08 z m 1.84,-6.3599999 q 0.04,0.04 0.08,0.04 0.12,0 0.12,-0.16 0,-0.04 -0.08,-0.04 -0.12,0.04 -0.12,0.16 z m -2.44,8.4799999 q 0.12,0.04 0.12,-0.12 0,-0.08 -0.08,-0.08 -0.12,0 -0.12,0.08 0,0.12 0.08,0.12 z m -2.6,-8.3999999 q 0.08,0 0.08,-0.08 0,-0.12 -0.08,-0.12 -0.12,0 -0.12,0.08 0,0.12 0.12,0.12 z m 13.0400003,2.96 q 0.12,0 0.12,-0.12 0,-0.08 -0.08,-0.08 -0.12,0 -0.12,0.12 0,0.08 0.08,0.08 z m -0.12,-8.64 q 0.12,0 0.12,-0.08 0,-0.08 -0.12,-0.08 -0.08,0 -0.08,0.08 0,0.08 0.08,0.08 z m -8.9200003,6.24 q 0,0.08 0.12,0.08 0.12,0 0.08,-0.08 0,-0.04 -0.08,-0.12 -0.12,0 -0.12,0.12 z m 7.6400003,-3.84 q 0.12,0.04 0.12,-0.08 0,-0.12 -0.08,-0.12 -0.12,0 -0.12,0.12 0,0.08 0.08,0.08 z M 5.3444997,12.506348 q 0,0.12 0.08,0.12 0.08,0 0.08,-0.12 0,-0.08 -0.08,-0.08 -0.08,0 -0.08,0.08 z m -1.32,2.32 q 0,0.08 0.12,0.08 0.08,-0.08 0.08,-0.16 0,-0.04 -0.08,-0.04 -0.04,0 -0.12,0.12 z m 1.72,-5.9999999 q 0,0.12 0.12,0.12 0.08,-0.08 0.08,-0.12 0,-0.08 -0.08,-0.08 -0.12,0 -0.12,0.08 z m 6.3600003,-7.4 q 0,0.12 0.08,0.16 0.08,0 0.08,-0.08 0.08,-0.16 -0.04,-0.16 -0.12,0 -0.12,0.08 z m 2,8.7599999 q 0.16,0 0.08,-0.08 0,-0.08 -0.04,-0.08 0,-0.04 -0.04,0 -0.12,0 -0.12,0.08 0.04,0.08 0.12,0.08 z M 9.0244997,2.8263481 q 0.04,0 0.16,-0.12 l -0.08,-0.08 q -0.12,0 -0.12,0.16 0,0.08 0.04,0.04 z m -2.24,4.24 q 0.12,0 0.12,-0.08 0,-0.08 -0.12,-0.08 -0.12,0 -0.08,0.08 0,0.08 0.08,0.08 z m 1.96,-0.48 q 0,0.12 0.08,0.12 0.08,0 0.08,-0.12 0,-0.08 -0.08,-0.08 -0.08,0 -0.08,0.08 z m -6.52,-5.36 q 0.12,0 0.12,-0.08 0,-0.08 -0.12,-0.12 -0.08,0.08 -0.08,0.12 0,0.08 0.08,0.08 z m 1.8,11.2399999 q 0.12,0 0.12,-0.16 0,-0.08 -0.08,-0.08 -0.12,0 -0.12,0.16 0,0.08 0.08,0.08 z m 10.6800003,1.84 q 0.04,0 0.12,-0.08 0,-0.12 -0.12,-0.12 -0.08,0 -0.08,0.08 0,0.12 0.08,0.12 z M 3.5844997,3.6663481 q 0,-0.08 -0.08,-0.08 -0.12,0 -0.12,0.12 0,0.08 0.08,0.08 0.12,0 0.12,-0.12 z m 5.84,10.6399999 q 0.04,0 0.12,-0.08 -0.04,-0.08 -0.12,-0.08 -0.08,0 -0.12,0.08 0,0.08 0.12,0.08 z M 11.3045,7.8663481 q 0.12,0 0.12,-0.12 l -0.04,-0.08 q -0.12,0 -0.12,0.12 0,0.08 0.04,0.08 z m 0.52,1.4 q 0.12,0 0.12,-0.08 l -0.08,-0.08 q -0.12,0 -0.12,0.12 0,0.04 0.08,0.04 z m -4.0800003,-8.24 0.08,0.08 q 0.04,0 0.12,-0.08 0,-0.08 -0.12,-0.08 -0.08,0 -0.08,0.08 z M 14.3045,10.466348 q 0,-0.12 -0.08,-0.12 -0.08,0 -0.08,0.08 0,0.12 0.08,0.12 0.08,0 0.08,-0.08 z m -0.04,-6.2799999 q -0.12,0 -0.12,0.08 0,0.08 0.12,0.12 0.08,-0.08 0.08,-0.12 0,-0.08 -0.08,-0.08 z m -3.28,7.9199999 q -0.12,0 -0.12,0.08 0,0.08 0.12,0.08 0.08,0 0.08,-0.08 0,-0.08 -0.08,-0.08 z M 1.5044997,0.74634811 q 0,-0.08 -0.08,-0.08 -0.12,0 -0.12,0.04 0,0.12 0.12,0.16 0.08,0 0.08,-0.12 z M 12.9845,10.386348 q -0.12,0 -0.12,0.08 0,0.08 0.12,0.08 0.08,0 0.08,-0.08 0,-0.08 -0.08,-0.08 z m -7.4000003,1.88 q 0.12,0 0.12,-0.08 0,-0.12 -0.08,-0.12 -0.12,0 -0.12,0.08 0,0.12 0.08,0.12 z m 7.7200003,-1.6 q 0.04,0 0.12,-0.08 -0.04,-0.08 -0.12,-0.08 -0.08,0 -0.08,0.08 0,0.08 0.08,0.08 z m 0.84,-5.0799999 q 0.04,0 0.12,-0.08 0,-0.04 -0.08,-0.12 -0.12,0 -0.12,0.12 0,0.08 0.08,0.08 z m -12.1200003,0 q 0.04,-0.04 0.08,-0.08 0,-0.12 -0.08,-0.12 -0.08,0 -0.12,0.08 0,0.12 0.12,0.12 z m 2.8,2.92 q 0,-0.12 -0.12,-0.16 -0.04,0.04 -0.04,0.12 0,0.04 0.08,0.12 0.08,0 0.08,-0.08 z m 4.2,2.3199999 q 0.08,0 0.08,-0.08 0,-0.08 -0.08,-0.08 -0.12,0 -0.12,0.08 0,0.08 0.12,0.08 z M 14.7845,2.6663481 q 0,-0.08 -0.12,-0.08 -0.08,0 -0.08,0.08 0,0.12 0.08,0.12 0.12,0 0.12,-0.12 z m -0.52,-0.04 q 0.12,0 0.12,-0.08 0,-0.12 -0.08,-0.12 -0.08,0 -0.12,0.08 0,0.04 0.08,0.12 z M 2.6644997,14.706348 q 0,0.08 0.08,0.08 0.08,0 0.08,-0.08 0,-0.12 -0.08,-0.12 -0.08,0 -0.08,0.12 z m 3,0.48 q 0,0.08 0.12,0.08 0.08,0 0.08,-0.12 0,-0.08 -0.08,-0.08 -0.12,0 -0.12,0.12 z m -2.08,-13.5199999 q 0.12,0 0.12,-0.12 0,-0.08 -0.08,-0.08 -0.12,0 -0.12,0.12 0,0.08 0.08,0.08 z m 3.76,-0.52 q 0,0.08 0.04,0.08 0.12,0 0.12,-0.12 0,-0.08 -0.04,-0.08 -0.12,0 -0.12,0.12 z m 1.96,-0.47999999 q 0,0.12 0.08,0.12 0.12,0 0.12,-0.08 0,-0.12 -0.08,-0.12 -0.12,0 -0.12,0.08 z M 11.7045,2.3463481 q 0.12,0 0.12,-0.12 0,-0.08 -0.08,-0.08 -0.04,0 -0.12,0.12 0,0.08 0.08,0.08 z m 2.88,12.8799999 q 0,0.12 0.08,0.12 0.08,0 0.08,-0.08 0,-0.12 -0.08,-0.12 -0.08,0 -0.08,0.08 z m -5.4400003,-3.2 q 0.12,0 0.12,-0.12 0,-0.08 -0.04,-0.12 -0.08,0 -0.16,0.12 0,0.08 0.08,0.12 z m -6.36,-10.7999999 q 0,-0.08 -0.08,-0.08 -0.12,0.08 -0.12,0.16 0,0.04 0.08,0.04 0.12,0 0.12,-0.12 z m 1.04,3.52 q 0,0.08 0.08,0.08 0.08,0 0.08,-0.08 0,-0.08 -0.04,-0.08 -0.12,-0.08 -0.12,0.08 z m -0.52,-2.68 q 0.12,0 0.12,-0.12 0,-0.08 -0.08,-0.08 -0.12,0 -0.12,0.12 0,0.08 0.08,0.08 z M 14.7045,10.226348 q 0.12,0 0.12,-0.08 0,-0.08 -0.12,-0.08 -0.12,0 -0.12,0.08 0,0.08 0.12,0.08 z M 1.6644997,4.7063481 q 0.12,0 0.12,-0.16 0,-0.04 -0.04,-0.04 -0.16,0 -0.16,0.12 0,0.08 0.08,0.08 z m 2.44,-3.6 0.08,0.08 q 0.12,-0.04 0.12,-0.16 0,-0.08 -0.12,-0.08 -0.08,0.08 -0.08,0.15999999 z m 6.4400003,-0.08 q 0,0.08 0.08,0.08 0.12,0 0.12,-0.11999999 0,-0.08 -0.08,-0.08 -0.12,0 -0.12,0.11999999 z m 1.72,-0.27999999 q 0,0.08 0.08,0.08 0.12,0 0.12,-0.12 0,-0.08 -0.08,-0.08 -0.12,0 -0.12,0.12 z m 2.52,3.71999999 q 0,-0.08 -0.08,-0.08 -0.12,0 -0.12,0.08 0,0.12 0.08,0.12 0.12,0 0.12,-0.12 z m -1.64,7.3599999 q 0,0.08 0.08,0.08 0.08,0 0.08,-0.12 0,-0.08 -0.08,-0.08 -0.08,0 -0.08,0.12 z m -1.48,-7.1199999 q 0,0.04 0.08,0.04 0.08,0 0.08,-0.08 0,-0.08 -0.08,-0.08 -0.12,0 -0.08,0.12 z M 4.9444997,0.86634811 q 0.08,-0.08 0.08,-0.12 l -0.04,-0.08 q -0.16,0 -0.16,0.12 0.08,0.08 0.12,0.08 z m -1.04,7.55999999 q 0.12,0 0.12,-0.12 0,-0.08 -0.12,-0.08 -0.12,0 -0.12,0.08 0.08,0.12 0.12,0.12 z m 2.52,2.8799999 q 0.12,0 0.12,-0.08 0,-0.08 -0.08,-0.08 -0.12,-0.08 -0.12,0.08 0,0.08 0.08,0.08 z M 10.0645,4.4663481 q 0,-0.12 -0.08,-0.12 -0.12,0 -0.12,0.08 0,0.12 0.12,0.12 0.08,0 0.08,-0.08 z m -1.2000003,0.48 q 0,0.08 0.08,0.08 0.12,0 0.12,-0.08 0,-0.12 -0.12,-0.12 -0.08,0 -0.08,0.12 z m 1.08,7.0399999 q 0,0.08 0.08,0.08 0.08,0 0.08,-0.12 0,-0.08 -0.04,-0.08 -0.1200003,0 -0.1200003,0.12 z m -5.32,2.76 q 0.12,0 0.12,-0.12 l -0.08,-0.08 q -0.12,0 -0.12,0.12 0,0.08 0.08,0.08 z m 3.8,0.52 q -0.08,0 -0.08,0.08 0,0.08 0.08,0.08 0.04,0 0.12,-0.08 0,-0.08 -0.12,-0.08 z m -0.36,-0.68 q 0,-0.12 -0.12,-0.12 -0.08,0 -0.08,0.08 -0.04,0.08 0.08,0.08 0.04,0.04 0.08,0.04 0.04,-0.04 0.04,-0.08 z m -2.4,-11.7999999 q 0,0.08 0.08,0.08 0.08,0 0.08,-0.12 0,-0.08 -0.08,-0.08 -0.08,0 -0.08,0.12 z m -4.4,-0.04 q 0.12,0 0.12,-0.12 0,-0.08 -0.08,-0.08 -0.12,0 -0.12,0.16 0.04,0.04 0.08,0.04 z m 12.2800003,-0.08 q 0.08,0 0.08,-0.08 0,-0.08 -0.12,-0.08 -0.08,0 -0.08,0.08 0,0.08 0.12,0.08 z m -8.4400003,5.2 q -0.04,-0.08 -0.12,-0.08 -0.16,0 -0.08,0.08 0,0.12 0.08,0.12 0.12,0 0.12,-0.12 z M 13.3445,14.946348 q 0,0.12 0.08,0.12 0.08,0 0.08,-0.12 0,-0.08 -0.08,-0.08 -0.08,0 -0.08,0.08 z M 1.2644997,5.4263481 q 0.04,0.04 0.12,-0.04 0,-0.12 -0.12,-0.12 -0.08,0 -0.08,0.04 0,0.12 0.08,0.12 z m 0.08,-3.32 q 0.04,0.04 0.08,0 0.04,-0.04 0.04,-0.08 0,-0.08 -0.08,-0.08 -0.12,0 -0.12,0.08 0,0.08 0.08,0.08 z m 5.68,-1.35999999 q 0,0.08 0.08,0.08 0.08,0 0.08,-0.12 0,-0.08 -0.08,-0.08 -0.08,0 -0.08,0.12 z m -1.08,5.43999999 q 0,0.08 0.08,0.08 0.08,0 0.08,-0.12 0,-0.04 -0.08,-0.04 -0.12,0 -0.08,0.08 z m 0.28,0.36 q 0.12,0 0.12,-0.08 0,-0.08 -0.12,-0.08 -0.08,0 -0.08,0.08 0,0.08 0.08,0.08 z m 6.3200003,-3.16 q 0.04,0.04 0.04,0 0.04,-0.04 0.04,-0.08 0,-0.08 -0.08,-0.08 -0.12,0 -0.12,0.08 0.08,0.08 0.12,0.08 z M 6.3844997,14.306348 q 0.04,0 0.04,-0.04 0,-0.16 -0.12,-0.16 -0.04,0 -0.04,0.08 0,0.12 0.12,0.12 z m -2.32,-8.6799999 q 0.12,0 0.12,-0.04 0,-0.12 -0.08,-0.12 -0.12,0 -0.12,0.08 0,0.08 0.08,0.08 z m 8.0800003,0.52 q 0,-0.04 -0.12,-0.12 -0.08,0 -0.08,0.08 0,0.12 0.12,0.12 0.08,0 0.08,-0.08 z M 2.7844997,12.306348 q 0,0.08 0.12,0.08 0.08,0 0.08,-0.04 0.08,-0.12 -0.08,-0.12 -0.08,0 -0.12,0.08 z m 7.2800003,2.04 q 0,-0.12 -0.1200003,-0.12 -0.08,0 -0.08,0.04 0,0.12 0.12,0.12 0.08,0 0.08,-0.04 z M 2.3444997,7.7463481 q 0.08,0 0.08,-0.08 -0.08,-0.08 -0.12,-0.08 -0.16,0 -0.08,0.08 0,0.12 0.12,0.08 z m 5.4,-7.07999999 q 0,-0.08 -0.12,-0.08 -0.08,0.08 -0.04,0.16 0,0.04 0.08,0.04 0.08,0 0.08,-0.12 z M 14.0245,3.7463481 l 0.08,-0.12 q 0,-0.08 -0.12,-0.08 -0.08,0 -0.08,0.08 0,0.08 0.12,0.12 z m -7.4800003,8.7199999 -0.04,-0.12 q -0.16,0 -0.16,0.08 0,0.12 0.12,0.12 0.08,0 0.08,-0.08 z m 2.32,-6.2399999 q 0.04,0.04 0.04,0 0.04,-0.04 0.04,-0.08 0,-0.08 -0.12,-0.08 l -0.04,0.04 q -0.04,0.12 0.08,0.12 z m -0.32,8.3999999 q 0.08,-0.04 0.08,-0.12 0,-0.08 -0.12,-0.08 -0.08,0 -0.08,0.08 0,0.12 0.12,0.12 z M 11.5445,8.8263481 q -0.08,0.08 0.08,0.08 0.12,0 0.12,-0.12 -0.04,-0.04 -0.08,-0.04 -0.12,0 -0.12,0.08 z m 2.6,-0.04 q -0.08,0 -0.08,0.08 0,0.08 0.12,0.08 0.08,0 0.08,-0.08 0,-0.08 -0.12,-0.08 z M 4.1444997,14.346348 q 0,0.08 0.08,0.08 0.08,0 0.08,-0.08 0,-0.08 -0.08,-0.08 -0.08,0 -0.08,0.08 z M 10.1045,7.3863481 q -0.04,0 -0.1200003,0.08 0,0.08 0.08,0.08 0.12,0 0.12,-0.12 0,-0.12 -0.08,-0.04 z m -0.8000003,1.76 0.08,-0.04 q 0.04,-0.04 0.04,-0.08 0,-0.08 -0.08,-0.08 -0.12,0 -0.12,0.12 0,0.08 0.08,0.08 z m -7.32,-8.43999999 q 0,-0.12 -0.08,-0.12 -0.08,0 -0.08,0.08 0,0.16 0.08,0.12 0.08,0 0.08,-0.08 z m 7.08,0.43999999 q 0.12,0 0.12,-0.08 0,-0.08 -0.08,-0.08 -0.12,0 -0.12,0.11999999 0,0.04 0.08,0.04 z m -5.32,13.3599999 0.08,-0.08 q -0.04,-0.12 -0.12,-0.12 -0.08,0.04 -0.08,0.12 0,0.08 0.12,0.08 z m 5.8,-4.7999999 0.08,0.08 q 0.12,-0.08 0.12,-0.16 0,-0.04 -0.08,-0.04 -0.12,0 -0.12,0.12 z M 11.2645,0.70634811 q 0.12,0 0.12,-0.08 0,-0.08 -0.04,-0.08 -0.12,0 -0.16,0.08 0,0.08 0.08,0.08 z M 7.9044997,15.426348 q 0.08,0 0.08,-0.08 0,-0.08 -0.08,-0.08 -0.12,0 -0.12,0.04 0,0.12 0.12,0.12 z M 14.6645,2.2263481 q 0.12,0 0.12,-0.12 0,-0.04 -0.04,-0.04 -0.08,0 -0.16,0.08 0,0.08 0.08,0.08 z m -0.08,1.04 q 0,0.08 0.08,0.08 0.08,0 0.12,-0.08 0,-0.08 -0.08,-0.08 -0.12,0 -0.12,0.08 z m 0.04,5.8 q 0,0.08 0.12,0.08 0.08,0 0.08,-0.12 -0.08,-0.08 -0.12,-0.08 -0.08,0.08 -0.08,0.12 z M 8.9844997,14.586348 q 0.12,0 0.12,-0.08 0,-0.08 -0.08,-0.12 -0.08,0 -0.08,0.12 -0.08,0.08 0.04,0.08 z M 12.7045,7.0663481 q 0,0.12 0.08,0.12 0.08,0 0.08,-0.08 0,-0.12 -0.08,-0.12 -0.08,0 -0.08,0.08 z m -6.2800003,-5.92 q 0,0.08 0.08,0.08 0.08,0 0.08,-0.08 0,-0.12 -0.08,-0.12 -0.08,0 -0.08,0.12 z M 13.2245,15.466348 l 0.08,-0.08 q -0.08,-0.12 -0.12,-0.12 -0.04,0 -0.04,0.08 0,0.12 0.08,0.12 z m 1.04,-2.8 q -0.08,0 -0.08,0.08 0,0.08 0.12,0.08 0.08,0 0.08,-0.08 0,-0.08 -0.12,-0.08 z M 8.9044997,0.78634811 q 0.04,0.04 0.12,-0.08 0,-0.08 -0.08,-0.08 -0.12,0 -0.12,0.12 0,0.04 0.08,0.04 z m -1.72,14.59999989 q 0,0.08 0.04,0.04 0.08,0 0.08,-0.12 0,-0.04 -0.04,-0.04 -0.08,0 -0.08,0.12 z m 4.1200003,-2.8 q 0,-0.04 -0.08,-0.04 -0.08,0 -0.08,0.08 0,0.08 0.08,0.08 0.08,0 0.08,-0.12 z M 9.7044997,1.0663481 q 0,-0.11999999 -0.08,-0.11999999 -0.08,0 -0.08,0.08 0,0.12 0.04,0.12 0.12,0 0.12,-0.08 z m -4.6,0.48 q 0.12,0 0.12,-0.08 0,-0.08 -0.08,-0.08 -0.12,0 -0.12,0.08 0,0.08 0,0.12 0.04,0 0.08,-0.04 z m 2.72,10.9199999 q 0.12,0.04 0.12,-0.08 0,-0.08 -0.04,-0.08 -0.12,-0.04 -0.12,0.08 0,0.08 0.04,0.08 z M 11.9445,1.9063481 q 0.08,0 0.08,-0.08 0,-0.08 -0.04,-0.08 -0.08,0 -0.12,0.04 0,0.12 0.08,0.12 z m -1,0.36 q 0.08,0 0.08,-0.08 0,-0.12 -0.08,-0.12 -0.08,0.04 -0.08,0.12 0,0.12 0.08,0.08 z m -2.6400003,0.16 q 0.08,0 0.08,-0.08 0,-0.12 -0.04,-0.12 -0.08,0.04 -0.08,0.12 -0.08,0.08 0.04,0.08 z m 5.6400003,0.88 q 0.12,0 0.12,-0.08 -0.08,-0.08 -0.12,-0.08 -0.08,0 -0.08,0.08 0,0.08 0.08,0.08 z M 6.5444997,12.146348 q 0.12,0 0.12,-0.12 -0.04,-0.04 -0.12,-0.04 -0.08,0 -0.08,0.08 0,0.08 0.08,0.08 z m -2.24,-7.5999999 q -0.04,0.12 0.08,0.12 0.08,0 0.08,-0.08 0,-0.08 -0.08,-0.12 -0.08,0 -0.08,0.08 z M 14.7045,13.666348 l 0.08,-0.08 q -0.08,-0.08 -0.12,-0.08 -0.08,0 -0.08,0.08 0,0.08 0.12,0.08 z m -0.04,-7.9599999 q 0,0.08 0.08,0.08 0.08,0 0.08,-0.12 0,-0.04 -0.08,-0.04 -0.08,0 -0.08,0.08 z m -7.9200003,0.2 q 0,0.04 0.08,0.12 0.12,0 0.12,-0.12 l -0.08,-0.08 q -0.04,0 -0.12,0.08 z m -5.48,0.32 q -0.04,0 -0.04,0.08 0,0.08 0.08,0.08 0.08,0 0.08,-0.08 0,-0.08 -0.12,-0.08 z m 4.64,0.64 q 0,0.08 0.16,0.08 0.04,-0.04 0.04,-0.08 0,-0.08 -0.08,-0.08 -0.12,-0.04 -0.12,0.08 z m 3.52,0.16 q 0.12,0 0.12,-0.08 0,-0.12 -0.08,-0.12 -0.08,0 -0.08,0.08 0,0.12 0.04,0.12 z m 4.4800003,0.52 q 0,0.04 0.04,0.04 0.12,0 0.16,-0.08 0,-0.08 -0.08,-0.08 -0.12,0 -0.12,0.12 z M 9.7044997,14.786348 q 0.04,0.04 0.04,-0.08 0,-0.08 -0.08,-0.12 -0.08,0 -0.08,0.08 0,0.12 0.12,0.12 z m 4.9600003,-3.52 q 0,0.04 0.08,0.12 0.08,0 0.08,-0.12 0,-0.08 -0.04,-0.08 -0.04,0 -0.12,0.08 z m -2.76,3.32 0.04,0.08 q 0.16,0 0.16,-0.08 0,-0.08 -0.08,-0.08 -0.12,0 -0.12,0.08 z m -1.6,-6.0799999 q 0.08,0 0.08,-0.08 0,-0.12 -0.08,-0.12 -0.08,0 -0.08,0.08 0,0.08 0.08,0.12 z m -5.7200003,-0.36 q 0.08,0 0.08,-0.08 0,-0.08 -0.08,-0.08 -0.08,0 -0.08,0.08 0,0.08 0.08,0.08 z M 11.7045,0.70634811 q 0,0.04 0.08,0.04 0.08,0 0.04,-0.12 0,-0.04 -0.04,-0.04 -0.16,0 -0.08,0.12 z m 0.36,14.59999989 q -0.12,-0.08 -0.12,0.08 0,0.08 0.08,0.08 0.08,0 0.08,-0.08 0,-0.08 -0.04,-0.08 z M 6.9044997,1.1863481 l 0.12,-0.12 -0.08,-0.08 q -0.08,0 -0.08,0.11999999 0,0.08 0.04,0.08 z M 14.2245,15.386348 l 0.08,-0.04 q 0,-0.16 -0.08,-0.16 -0.08,0 -0.08,0.08 0,0.04 0.08,0.12 z m -0.64,-3.36 q 0,0.12 0.08,0.12 0.08,0 0.12,-0.08 0,-0.08 -0.08,-0.08 -0.08,0 -0.12,0.04 z m -4.7600003,-1.68 q 0.08,0 0.08,-0.04 0,-0.08 -0.08,-0.08 -0.08,-0.08 -0.08,0.04 -0.08,0.08 0.08,0.08 z m 4.8800003,-0.12 q 0,0.04 0.08,0.04 0.08,0 0.08,-0.08 0,-0.08 -0.08,-0.08 -0.08,0 -0.08,0.12 z M 7.8644997,2.2263481 q 0.04,-0.04 0.04,-0.12 0,-0.04 -0.08,-0.04 -0.08,0 -0.08,0.08 0,0.08 0.12,0.08 z m 5.8400003,7.68 q 0,0.08 0.08,0.08 0.08,0 0.08,-0.04 0,-0.08 -0.08,-0.08 -0.08,-0.08 -0.08,0.04 z m 0.28,3.5599999 q 0.04,0 0.04,-0.08 0,-0.08 -0.08,-0.08 -0.16,0 -0.08,0.08 0,0.08 0.12,0.08 z m -0.08,-11.1199999 q 0.08,0 0.08,-0.08 -0.04,-0.04 -0.12,-0.04 -0.08,0 -0.04,0.08 0,0.12 0.08,0.04 z m -3.72,0.32 0.08,-0.12 -0.04,-0.04 h -0.04 q -0.08,-0.08 -0.08,0.04 0,0.12 0.08,0.12 z m -8.1200003,7.16 0.04,0.08 q 0.12,0 0.12,-0.08 0,-0.08 -0.08,-0.08 -0.08,0 -0.08,0.08 z m 6.52,-7.16 q 0,0.08 0.08,0.08 0.08,0 0.08,-0.08 0,-0.08 -0.08,-0.08 -0.08,0 -0.08,0.08 z m -7.36,0.56 q -0.08,0.08 0.04,0.08 0.12,0 0.12,-0.08 0,-0.08 -0.08,-0.08 -0.08,0 -0.08,0.08 z m 13.3600003,0.68 q 0,0.08 0.08,0.08 0.08,0 0.08,-0.08 0,-0.08 -0.08,-0.08 -0.08,0 -0.08,0.08 z m -3.8,1.12 q 0.04,0.04 0.04,0 0.04,-0.04 0.04,-0.08 0,-0.08 -0.08,-0.08 -0.08,0 -0.08,0.12 0,0.04 0.08,0.04 z m 1.72,0.04 q 0,0.04 0.08,0.04 l 0.08,-0.04 q 0.04,0 0.04,-0.08 0,-0.08 -0.08,0 -0.12,0 -0.12,0.08 z m -0.44,0.2 q -0.12,0 -0.12,0.08 0,0.08 0.08,0.08 l 0.04,-0.04 q 0.04,0 0.04,0 0.04,-0.04 0.04,-0.08 0,-0.04 -0.08,-0.04 z m -10.4400003,-0.04 q 0.12,0 0.12,-0.08 0,-0.08 -0.04,-0.08 -0.12,-0.08 -0.12,0.08 0,0.04 0.04,0.08 z m 7.6,9.6799999 q 0,0.08 0.08,0.08 0.08,0 0.08,-0.08 0,-0.08 -0.12,-0.08 -0.04,0 -0.04,0.08 z m 5.5600003,-3.04 q 0,-0.08 -0.12,-0.08 -0.08,0 -0.08,0.08 0,0.04 0.08,0.04 0.08,0 0.12,-0.04 z M 3.0644997,6.1063481 q 0.08,-0.08 -0.04,-0.08 -0.08,0 -0.12,0.04 0,0.12 0.08,0.12 0.08,0 0.08,-0.08 z m -0.6,0.76 q 0,0.12 0.08,0.12 0.08,0 0.08,-0.12 0,-0.04 -0.04,-0.04 -0.08,0 -0.12,0.04 z m 2.72,6.9999999 q 0,-0.08 -0.08,-0.08 -0.08,0 -0.08,0.04 0,0.12 0.12,0.12 0.04,-0.04 0.04,-0.08 z m -2.24,-5.3999999 q 0.08,0 0.08,-0.08 0,-0.08 -0.08,-0.08 -0.08,0 -0.08,0.04 0,0.12 0.08,0.12 z m 3.84,2.6399999 q 0.08,0 0.08,-0.08 0,-0.08 -0.12,-0.08 -0.04,0 -0.04,0.04 -0.04,0.12 0.08,0.12 z m -5.52,-3.7599999 q 0.12,0 0.04,-0.08 0,-0.04 -0.08,-0.04 -0.12,0 -0.04,0.08 0,0.12 0.08,0.04 z m 6.8,5.5999999 q 0.04,0 0.12,-0.08 0,-0.08 -0.04,-0.08 -0.12,0 -0.16,0.04 0,0.12 0.08,0.12 z m -1.28,-5.4399999 q 0.04,0.08 0.12,0.08 0.08,0 0.08,-0.08 -0.08,-0.08 -0.12,-0.08 -0.08,0 -0.08,0.08 z m -5.56,6.3999999 q 0,0.08 0.08,0.08 0.08,0 0.08,-0.08 0,-0.08 -0.08,-0.08 -0.08,0 -0.08,0.08 z M 10.3845,7.6663481 q 0,0.08 0.08,0.08 0.08,0 0.08,-0.08 0,-0.08 -0.12,-0.08 -0.12,0 -0.04,0.08 z M 8.9044997,11.346348 q 0,0.04 0.08,0.04 0.04,0 0.04,-0.04 0.08,-0.08 -0.04,-0.08 -0.08,0 -0.08,0.08 z M 10.6245,9.5863481 q 0,0.08 0.08,0.08 0.08,0 0.08,-0.08 0,-0.08 -0.08,-0.08 -0.08,0 -0.08,0.08 z m 2.16,1.4399999 q 0.04,0 0.04,-0.08 0,-0.08 -0.08,-0.08 -0.04,-0.04 -0.04,0.04 0,0.08 0.08,0.12 z m -1.72,2.04 q 0,0.08 0.04,0.12 0.04,0 0.12,-0.08 0,-0.08 -0.08,-0.08 -0.04,0 -0.08,0.04 z m -0.28,0.72 q -0.08,0.08 0,0.08 0.12,0.08 0.12,-0.04 0,-0.08 -0.08,-0.12 -0.04,0.04 -0.04,0.08 z m 0.92,-3.44 q -0.08,0.08 0.08,0.08 0.04,0 0.04,-0.08 0,-0.08 -0.08,-0.08 -0.04,0.04 -0.04,0.08 z m 0.08,0.44 q -0.04,0.08 0.08,0.08 0.04,0 0.04,-0.04 0,-0.08 -0.08,-0.08 -0.04,0 -0.04,0.04 z M 3.0644997,8.0663481 q 0.08,0 0.12,-0.04 0,-0.04 -0.08,-0.12 -0.08,0 -0.08,0.04 0,0.08 0.04,0.12 z m 3.76,-0.04 q -0.08,0 -0.08,0.08 0,0.08 0.12,0.08 0.04,0 0.04,-0.08 0.04,-0.08 -0.08,-0.08 z m 1.96,6.0399999 q 0,0.04 0.08,0.04 0.08,0 0.08,-0.08 0,-0.08 -0.08,-0.08 -0.12,0.08 -0.08,0.12 z m 2.0400003,-1.52 q -0.08,0 -0.08,0.08 0,0.12 0.08,0.04 0.16,0 0.08,-0.08 0,-0.12 -0.08,-0.04 z m -1.3200003,-0.92 q -0.08,0.08 0.04,0.08 0.04,0 0.12,-0.08 0,-0.08 -0.08,-0.08 -0.08,0 -0.08,0.08 z m 3.8000003,-1.44 q 0.12,0 0.12,-0.08 0,-0.08 -0.08,-0.08 -0.08,0 -0.08,0.08 0,0.08 0.04,0.08 z m 1.48,-2.1999999 q 0.08,0 0.08,-0.08 -0.04,-0.04 -0.12,-0.04 -0.08,0 -0.08,0.04 0,0.08 0.12,0.08 z M 7.7444997,13.186348 q 0,0.08 0.08,0.08 0.16,0 0.08,-0.08 0,-0.04 -0.08,-0.04 -0.08,0 -0.08,0.04 z m 5.1200003,-1.32 q 0.04,0 0.04,-0.08 0,-0.08 -0.08,-0.08 -0.04,0 -0.04,0.08 0,0.08 0.08,0.08 z M 2.9844997,2.2663481 q 0,0.04 0.08,0.04 0.08,0 0.08,-0.04 0,-0.08 -0.08,-0.08 -0.08,0 -0.08,0.08 z m 5.68,12.6399999 q 0,0.04 0.08,0.04 0.08,0 0.08,-0.12 h -0.08 q -0.08,0 -0.08,0.08 z m -5.24,-12.5599999 q 0,0.04 0.08,0.04 0.08,0 0.08,-0.08 0,-0.08 -0.08,-0.08 -0.08,0.08 -0.08,0.12 z m -1.96,7.36 q 0.04,0 0.04,-0.04 0,-0.08 -0.08,-0.08 -0.08,0 -0.08,0.08 0,0.04 0.12,0.04 z m 12.9600003,-0.4 q 0,-0.08 -0.08,-0.08 -0.08,0 -0.08,0.08 0,0.04 0.12,0.04 0.04,0 0.04,-0.04 z m -9.4400003,-6.56 q 0.04,0.04 0.12,0.04 0.08,-0.08 0.08,-0.12 -0.04,-0.08 -0.08,-0.04 -0.12,0 -0.12,0.12 z M 12.3845,15.026348 q 0,-0.08 -0.08,-0.08 -0.08,0 -0.08,0.08 0,0.04 0.08,0.04 0.08,0 0.08,-0.04 z m -1.88,-0.04 q 0,0.08 0.04,0.08 0.08,0 0.08,-0.04 0,-0.08 -0.04,-0.08 -0.08,0 -0.08,0.04 z M 9.4244997,4.3463481 q 0,0.04 0.08,0.04 0.08,0 0.08,-0.08 0,-0.08 -0.08,-0.08 -0.08,0.08 -0.08,0.12 z m 2.2800003,-0.84 q 0.08,0.08 0.08,-0.04 0,-0.08 -0.04,-0.08 -0.08,0 -0.08,0.08 0,0.04 0.04,0.04 z m 1.88,-0.36 q 0.04,-0.04 0.04,-0.08 0,-0.08 -0.08,-0.08 -0.04,0.04 -0.04,0.08 0,0.08 0.08,0.08 z m -4.6400003,2.28 q 0.04,0 0.04,-0.04 0,-0.08 -0.04,-0.08 -0.08,0 -0.08,0.08 0,0.12 0.08,0.04 z M 11.6645,14.426348 q 0.04,0 0.04,-0.08 0,-0.04 -0.08,-0.04 -0.04,0 -0.04,0.08 0,0.04 0.08,0.04 z M 3.5844997,9.1063481 q 0,-0.08 -0.08,-0.08 -0.04,0 -0.04,0.08 0,0.08 0.08,0.08 0.04,-0.04 0.04,-0.08 z m 7.8400003,-7 q 0.04,0 0.04,-0.08 0,-0.08 -0.08,-0.08 -0.08,0.08 -0.04,0.12 0,0.04 0.08,0.04 z M 4.5044997,14.986348 q 0.04,0 0.04,-0.04 l -0.04,-0.04 q -0.04,-0.04 -0.04,0.04 -0.04,0.04 0.04,0.04 z M 12.0645,3.4663481 q 0.04,0 0.04,0 0,-0.04 0.04,-0.04 0,-0.04 -0.04,-0.08 0,-0.04 -0.04,0 -0.08,0 -0.08,0.04 0,0.08 0.08,0.08 z m -0.64,6.48 q 0.08,0 0.08,-0.04 l -0.04,-0.08 q -0.08,0 -0.08,0.08 0,0.04 0.04,0.04 z M 5.3844997,14.306348 q 0,0.08 0.08,0.08 0.08,0 0.08,-0.04 0,-0.08 -0.08,-0.08 -0.04,0 -0.08,0.04 z M 10.6245,8.7063481 q -0.04,0 -0.04,0.04 0,0.08 0.04,0.08 0.08,0 0.08,-0.08 0,-0.12 -0.08,-0.04 z m 2.28,5.9999999 q 0.08,0 0.08,-0.08 0,-0.04 -0.04,-0.04 -0.08,0 -0.08,0.04 0,0.04 0,0.04 0.04,0 0.04,0.04 z m -1.72,-1.24 0.04,-0.04 q 0,-0.08 -0.04,-0.08 -0.08,0 -0.08,0.08 0,0.04 0.08,0.04 z m 3.56,-0.44 q 0.04,0 0.04,-0.04 0,-0.12 -0.08,-0.04 l -0.04,0.04 q 0.08,0.08 0.08,0.04 z M 8.7444997,7.8263481 q 0.08,0.04 0.08,-0.04 0,-0.04 -0.04,-0.08 -0.08,0 -0.08,0.08 z m -7.6,0.12 q 0,0.08 0.08,0.08 0.08,0 0.08,-0.08 0,-0.08 -0.08,-0.08 z m 9.5600003,1.28 q 0.04,-0.04 0.04,-0.08 0,-0.04 -0.04,-0.04 -0.04,0 -0.04,0.08 z m -9.1200003,-2.72 q -0.04,0 -0.04,0.04 0,0.04 0.04,0.04 l 0.04,-0.04 q 0,-0.04 -0.04,-0.04 z m 7.12,-5.28 -0.04,-0.04 v 0.04 0.04 q 0.04,0 0.04,-0.04 z M 15.4245,0.02634811 V 16.026348 H 0.66449966 V 0.02634811 Z m -14.56000034,0.2 V 15.826348 H 15.1845 V 0.22634811 Z"
         style="font-style:normal;font-variant:normal;font-weight:normal;font-stretch:normal;font-size:40px;font-family:'Euclid Initials';-inkscape-font-specification:'Euclid Initials, Normal';font-variant-ligatures:normal;font-variant-caps:normal;font-variant-numeric:normal;font-variant-east-asian:normal;stroke-width:1.875"
         id="path847" />
    </g>
  </g>
</svg>
